<svg viewBox="0 0 540.3 453.6" xmlns="http://www.w3.org/2000/svg" xmlns:xlink="http://www.w3.org/1999/xlink"><defs><path id="a" d="M287.3 383.7l-59.2 59.2c-2.4 2.4-2.4 6.4 0 8.8s6.4 2.4 8.8 0l59.2-59.2c2.4-2.4 2.4-6.4 0-8.8-1.2-1.2-2.8-1.8-4.4-1.8-1.5 0-3.1.6-4.4 1.8"/></defs><clipPath id="b"><use overflow="visible" xlink:href="#a"/></clipPath><linearGradient id="c" x1="17.93" x2="18.93" y1="446.03" y2="446.03" gradientTransform="scale(258.2 -258.2) rotate(45 550.015 201.305)" gradientUnits="userSpaceOnUse"><stop stop-color="#BBE229" offset="0"/><stop stop-color="#24C79A" offset=".28"/><stop stop-color="#7700A7" offset=".597"/><stop stop-color="#FF2663" offset="1"/></linearGradient><path clip-path="url(#b)" fill="url(#c)" d="M189.6 418l72.6-72.5 72.5 72.5-72.5 72.6z"/><defs><path id="d" d="M98.1 235.7l-59.2 59.2c-2.4 2.4-2.4 6.4 0 8.8s6.4 2.4 8.8 0l59.2-59.2c2.4-2.4 2.4-6.4 0-8.8-1.2-1.2-2.8-1.8-4.4-1.8s-3.2.6-4.4 1.8"/></defs><clipPath id="e"><use overflow="visible" xlink:href="#d"/></clipPath><linearGradient id="f" x1="17.93" x2="18.93" y1="446.03" y2="446.03" gradientTransform="scale(258.2 -258.2) rotate(45 548.957 200.708)" gradientUnits="userSpaceOnUse"><stop stop-color="#FF2663" offset="0"/><stop stop-color="#7700A7" offset=".403"/><stop stop-color="#24C79A" offset=".72"/><stop stop-color="#BBE229" offset="1"/></linearGradient><path clip-path="url(#e)" fill="url(#f)" d="M.4 270l72.5-72.5 72.6 72.5-72.6 72.6z"/><defs><path id="g" d="M61 352.8L1.8 412c-1.2 1.2-1.8 2.8-1.8 4.4v.1c0 1.6.6 3.2 1.8 4.4 2.4 2.4 6.4 2.4 8.8 0l59.2-59.2c2.4-2.4 2.4-6.4 0-8.8-1.2-1.2-2.8-1.8-4.4-1.8-1.6-.1-3.2.5-4.4 1.7"/></defs><clipPath id="h"><use overflow="visible" xlink:href="#g"/></clipPath><linearGradient id="i" x1="17.93" x2="18.93" y1="446.03" y2="446.03" gradientTransform="scale(258.2 -258.2) rotate(45 549.433 200.308)" gradientUnits="userSpaceOnUse"><stop stop-color="#FBB03B" offset="0"/><stop stop-color="#FF2663" offset="1"/></linearGradient><path clip-path="url(#h)" fill="url(#i)" d="M-36.1 387.1l72.2-72.2 72.3 72.2-72.3 72.3z"/><defs><path id="j" d="M481.5 192.4l-59.2 59.2c-2.4 2.4-2.4 6.4 0 8.8s6.4 2.4 8.8 0l59.2-59.2c2.4-2.4 2.4-6.4 0-8.8-1.2-1.2-2.8-1.8-4.4-1.8s-3.2.6-4.4 1.8"/></defs><clipPath id="k"><use overflow="visible" xlink:href="#j"/></clipPath><linearGradient id="l" x1="17.93" x2="18.93" y1="446.03" y2="446.03" gradientTransform="scale(258.2 -258.2) rotate(45 549.5 202.586)" gradientUnits="userSpaceOnUse"><stop stop-color="#FBB03B" offset="0"/><stop stop-color="#FF2663" offset="1"/></linearGradient><path clip-path="url(#k)" fill="url(#l)" d="M383.7 226.7l72.6-72.6 72.6 72.6-72.6 72.5z"/><defs><path id="m" d="M354.7 93.3l-59.2 59.2c-2.4 2.4-2.4 6.4 0 8.8s6.4 2.4 8.8 0l59.2-59.2c2.4-2.4 2.4-6.4 0-8.8-1.2-1.2-2.8-1.8-4.4-1.8s-3.2.6-4.4 1.8"/></defs><clipPath id="n"><use overflow="visible" xlink:href="#m"/></clipPath><linearGradient id="o" x1="17.93" x2="18.93" y1="446.03" y2="446.03" gradientTransform="scale(258.2 -258.2) rotate(45 548.791 202.184)" gradientUnits="userSpaceOnUse"><stop stop-color="#BBE229" offset="0"/><stop stop-color="#24C79A" offset=".28"/><stop stop-color="#7700A7" offset=".597"/><stop stop-color="#FF2663" offset="1"/></linearGradient><path clip-path="url(#n)" fill="url(#o)" d="M257 127.6l72.5-72.5 72.6 72.5-72.6 72.6z"/><defs><path id="p" d="M454.9 162.9l-59.2 59.2c-2.4 2.4-2.4 6.4 0 8.8s6.4 2.4 8.8 0l59.2-59.2c2.4-2.4 2.4-6.4 0-8.8-1.2-1.2-2.8-1.8-4.4-1.8-1.6-.1-3.2.6-4.4 1.8"/></defs><clipPath id="q"><use overflow="visible" xlink:href="#p"/></clipPath><linearGradient id="r" x1="17.93" x2="18.93" y1="446.03" y2="446.03" gradientTransform="scale(258.2 -258.2) rotate(45 549.307 202.518)" gradientUnits="userSpaceOnUse"><stop stop-color="#BBE229" offset="0"/><stop stop-color="#24C79A" offset=".28"/><stop stop-color="#7700A7" offset=".597"/><stop stop-color="#FF2663" offset="1"/></linearGradient><path clip-path="url(#q)" fill="url(#r)" d="M357.1 197.2l72.6-72.6 72.5 72.6-72.5 72.5z"/><defs><path id="s" d="M479.9 137.9l-7.2 7.2c-2.4 2.4-2.4 6.4 0 8.8s6.4 2.4 8.8 0l7.2-7.2c2.4-2.4 2.4-6.4 0-8.8-1.2-1.2-2.8-1.8-4.4-1.8s-3.2.6-4.4 1.8"/></defs><clipPath id="t"><use overflow="visible" xlink:href="#s"/></clipPath><linearGradient id="u" x1="17.703" x2="18.703" y1="446.12" y2="446.12" gradientTransform="scale(60.85 -60.85) rotate(45 554.41 209.545)" gradientUnits="userSpaceOnUse"><stop stop-color="#BBE229" offset="0"/><stop stop-color="#24C79A" offset=".28"/><stop stop-color="#7700A7" offset=".597"/><stop stop-color="#FF2663" offset="1"/></linearGradient><path clip-path="url(#t)" fill="url(#u)" d="M460.1 146.2l20.6-20.6 20.5 20.6-20.5 20.6z"/><defs><path id="v" d="M179.2 400.5l-7.2 7.2c-2.4 2.4-2.4 6.4 0 8.8s6.4 2.4 8.8 0l7.2-7.2c2.4-2.4 2.4-6.4 0-8.8-1.2-1.2-2.8-1.8-4.4-1.8s-3.2.6-4.4 1.8"/></defs><clipPath id="w"><use overflow="visible" xlink:href="#v"/></clipPath><linearGradient id="x" x1="17.703" x2="18.703" y1="446.12" y2="446.12" gradientTransform="scale(60.85 -60.85) rotate(45 557.162 201.433)" gradientUnits="userSpaceOnUse"><stop stop-color="#FBB03B" offset="0"/><stop stop-color="#FF2663" offset="1"/></linearGradient><path clip-path="url(#w)" fill="url(#x)" d="M159.4 408.8l20.6-20.5 20.6 20.5-20.6 20.6z"/><defs><path id="y" d="M62.3 382.3l-7.2 7.2c-2.4 2.4-2.4 6.4 0 8.8s6.4 2.4 8.8 0l7.2-7.2c2.4-2.4 2.4-6.4 0-8.8-1.2-1.2-2.8-1.8-4.4-1.8-1.6-.1-3.2.6-4.4 1.8"/></defs><clipPath id="z"><use overflow="visible" xlink:href="#y"/></clipPath><linearGradient id="A" x1="17.703" x2="18.703" y1="446.12" y2="446.12" gradientTransform="scale(60.85 -60.85) rotate(45 556.056 198.707)" gradientUnits="userSpaceOnUse"><stop stop-color="#FF2663" offset="0"/><stop stop-color="#7700A7" offset=".403"/><stop stop-color="#24C79A" offset=".72"/><stop stop-color="#BBE229" offset="1"/></linearGradient><path clip-path="url(#z)" fill="url(#A)" d="M42.5 390.6L63.1 370l20.6 20.6-20.6 20.6z"/><defs><path id="B" d="M435.6 357.3l-43.5 43.5c-3.9 3.9-3.9 10.3 0 14.2s10.3 3.9 14.2 0l43.5-43.5c3.9-3.9 3.9-10.3 0-14.2-2-2-4.5-2.9-7.1-2.9-2.5-.1-5.1.9-7.1 2.9"/></defs><clipPath id="C"><use overflow="visible" xlink:href="#B"/></clipPath><linearGradient id="D" x1="18.088" x2="19.088" y1="445.97" y2="445.97" gradientTransform="scale(-206.39 206.39) rotate(45 544.186 199.361)" gradientUnits="userSpaceOnUse"><stop stop-color="#FF2663" offset="0"/><stop stop-color="#7700A7" offset=".403"/><stop stop-color="#24C79A" offset=".72"/><stop stop-color="#BBE229" offset="1"/></linearGradient><path clip-path="url(#C)" fill="url(#D)" d="M486.1 386.6L421 451.7l-65.1-65.1 65.1-65z"/><defs><path id="E" d="M150.5 341.9L83 409.5c-3.9 3.9-3.9 10.3 0 14.2 2 2 4.5 2.9 7.1 2.9s5.2-1 7.1-2.9l67.6-67.6c3.9-3.9 3.9-10.3 0-14.2-2-2-4.5-2.9-7.1-2.9s-5.2 1-7.2 2.9"/></defs><clipPath id="F"><use overflow="visible" xlink:href="#E"/></clipPath><linearGradient id="G" x1="17.938" x2="18.938" y1="446.03" y2="446.03" gradientTransform="scale(292.57 -292.57) rotate(45 549.27 200.96)" gradientUnits="userSpaceOnUse"><stop stop-color="#BBE229" offset="0"/><stop stop-color="#24C79A" offset=".28"/><stop stop-color="#7700A7" offset=".597"/><stop stop-color="#FF2663" offset="1"/></linearGradient><path clip-path="url(#F)" fill="url(#G)" d="M35.2 382.8l88.7-88.6 88.6 88.6-88.6 88.7z"/><defs><path id="H" d="M374.3 31.8L227.6 178.5c-2.8 2.8-2.8 7.2 0 10s7.3 2.8 10 0L384.3 41.8c2.8-2.8 2.8-7.3 0-10-1.4-1.4-3.2-2.1-5-2.1-1.9 0-3.7.7-5 2.1"/></defs><clipPath id="I"><use overflow="visible" xlink:href="#H"/></clipPath><linearGradient id="J" x1="18.032" x2="19.032" y1="445.99" y2="445.99" gradientTransform="scale(-560.34 560.34) rotate(45 547.093 200.094)" gradientUnits="userSpaceOnUse"><stop stop-color="#7700A7" offset="0"/><stop stop-color="#7603A7" offset=".006"/><stop stop-color="#6331A4" offset=".095"/><stop stop-color="#5259A1" offset=".19"/><stop stop-color="#447B9F" offset=".289"/><stop stop-color="#38979D" offset=".395"/><stop stop-color="#2FAC9C" offset=".509"/><stop stop-color="#29BB9B" offset=".634"/><stop stop-color="#25C49A" offset=".781"/><stop stop-color="#24C79A" offset="1"/></linearGradient><path clip-path="url(#I)" fill="url(#J)" d="M467.8 110.5L305.9 272.3 144.1 110.5 305.9-51.4z"/><defs><path id="K" d="M236.1 63.9l-89.8 89.8c-5.2 5.2-5.2 13.7 0 18.9s13.7 5.2 18.9 0L255 82.8c5.2-5.2 5.2-13.7 0-18.9-2.6-2.6-6-3.9-9.5-3.9-3.4 0-6.8 1.3-9.4 3.9"/></defs><clipPath id="L"><use overflow="visible" xlink:href="#K"/></clipPath><linearGradient id="M" x1="18.046" x2="19.046" y1="445.98" y2="445.98" gradientTransform="scale(-388.88 388.88) rotate(45 546.978 200.156)" gradientUnits="userSpaceOnUse"><stop stop-color="#FBB03B" offset="0"/><stop stop-color="#FF2663" offset="1"/></linearGradient><path clip-path="url(#L)" fill="url(#M)" d="M319.1 118.9L200.6 237.4 82.1 118.9 200.6.4z"/><defs><path id="N" d="M397 96.9l-67.6 67.6c-3.9 3.9-3.9 10.3 0 14.2s10.3 3.9 14.2 0l67.6-67.6c3.9-3.9 3.9-10.3 0-14.2-2-2-4.5-2.9-7.1-2.9-2.6-.1-5.2.9-7.1 2.9"/></defs><clipPath id="O"><use overflow="visible" xlink:href="#N"/></clipPath><linearGradient id="P" x1="18.062" x2="19.062" y1="445.98" y2="445.98" gradientTransform="scale(-292.57 292.57) rotate(45 546.409 199.318)" gradientUnits="userSpaceOnUse"><stop stop-color="#BBE229" offset="0"/><stop stop-color="#24C79A" offset=".28"/><stop stop-color="#7700A7" offset=".597"/><stop stop-color="#FF2663" offset="1"/></linearGradient><path clip-path="url(#O)" fill="url(#P)" d="M459.5 138.3l-89.2 89.1-89.2-89.1 89.2-89.2z"/><defs><path id="Q" d="M187.4 374.2c0 3.4 2.8 6.2 6.2 6.2s6.2-2.8 6.2-6.2-2.8-6.2-6.2-6.2-6.2 2.8-6.2 6.2"/></defs><clipPath id="R"><use overflow="visible" xlink:href="#Q"/></clipPath><linearGradient id="S" x1="17.458" x2="18.458" y1="446.22" y2="446.22" gradientTransform="scale(33.385 -33.385) rotate(45 563.97 202.962)" gradientUnits="userSpaceOnUse"><stop stop-color="#FBB03B" offset="0"/><stop stop-color="#FF2663" offset="1"/></linearGradient><path clip-path="url(#R)" fill="url(#S)" d="M181.2 374.2l12.4-12.4 12.5 12.4-12.5 12.5z"/><defs><path id="T" d="M56.9 181.9c0 3.4 2.8 6.2 6.2 6.2s6.2-2.8 6.2-6.2-2.8-6.2-6.2-6.2-6.2 2.7-6.2 6.2"/></defs><clipPath id="U"><use overflow="visible" xlink:href="#T"/></clipPath><linearGradient id="V" x1="17.458" x2="18.458" y1="446.22" y2="446.22" gradientTransform="scale(33.385 -33.385) rotate(45 555.44 200.267)" gradientUnits="userSpaceOnUse"><stop stop-color="#7700A7" offset="0"/><stop stop-color="#7700A7" offset=".011"/><stop stop-color="#8B059D" offset=".115"/><stop stop-color="#BC1384" offset=".406"/><stop stop-color="#E11E72" offset=".661"/><stop stop-color="#F72467" offset=".868"/><stop stop-color="#FF2663" offset="1"/></linearGradient><path clip-path="url(#U)" fill="url(#V)" d="M50.7 181.9l12.4-12.5 12.4 12.5-12.4 12.4z"/><defs><path id="W" d="M371.8 77.5c0 3.4 2.8 6.2 6.2 6.2s6.2-2.8 6.2-6.2-2.8-6.2-6.2-6.2-6.2 2.8-6.2 6.2"/></defs><clipPath id="X"><use overflow="visible" xlink:href="#W"/></clipPath><linearGradient id="Y" x1="17.732" x2="18.732" y1="446.11" y2="446.11" gradientTransform="scale(67.445 -67.445) rotate(45 551.59 207.748)" gradientUnits="userSpaceOnUse"><stop stop-color="#BBE229" offset="0"/><stop stop-color="#24C79A" offset=".28"/><stop stop-color="#7700A7" offset=".597"/><stop stop-color="#FF2663" offset="1"/></linearGradient><path clip-path="url(#X)" fill="url(#Y)" d="M365.6 77.5l12.5-12.4 12.4 12.4-12.4 12.4z"/><defs><path id="Z" d="M35.6 238.3c0 5.9 4.7 10.6 10.6 10.6s10.6-4.7 10.6-10.6-4.7-10.6-10.6-10.6c-5.8 0-10.6 4.8-10.6 10.6"/></defs><clipPath id="aa"><use overflow="visible" xlink:href="#Z"/></clipPath><linearGradient id="ab" x1="17.682" x2="18.682" y1="446.13" y2="446.13" gradientTransform="scale(56.933 -56.933) rotate(45 553.04 200.13)" gradientUnits="userSpaceOnUse"><stop stop-color="#7700A7" offset="0"/><stop stop-color="#7603A7" offset=".006"/><stop stop-color="#6331A4" offset=".095"/><stop stop-color="#5259A1" offset=".19"/><stop stop-color="#447B9F" offset=".289"/><stop stop-color="#38979D" offset=".395"/><stop stop-color="#2FAC9C" offset=".509"/><stop stop-color="#29BB9B" offset=".634"/><stop stop-color="#25C49A" offset=".781"/><stop stop-color="#24C79A" offset="1"/></linearGradient><path clip-path="url(#aa)" fill="url(#ab)" d="M25 238.3l21.2-21.2 21.2 21.2-21.2 21.2z"/><defs><path id="ac" d="M414.6 340.3l-10.2 10.2c-3.4 3.4-3.4 9 0 12.4s9 3.4 12.4 0l10.2-10.2c3.4-3.4 3.4-9 0-12.4-1.7-1.7-4-2.6-6.2-2.6s-4.5.9-6.2 2.6"/></defs><clipPath id="ad"><use overflow="visible" xlink:href="#ac"/></clipPath><linearGradient id="ae" x1="17.79" x2="18.79" y1="446.08" y2="446.08" gradientTransform="scale(85.91 -85.91) rotate(45 555.155 204.333)" gradientUnits="userSpaceOnUse"><stop stop-color="#FF2663" offset="0"/><stop stop-color="#7700A7" offset=".403"/><stop stop-color="#24C79A" offset=".72"/><stop stop-color="#BBE229" offset="1"/></linearGradient><path clip-path="url(#ad)" fill="url(#ae)" d="M386.7 352l29-29 29.1 29-29.1 29.1z"/><defs><path id="af" d="M470.3 289.8c0 4.8 3.9 8.8 8.8 8.8s8.8-3.9 8.8-8.8c0-4.8-3.9-8.8-8.8-8.8s-8.8 4-8.8 8.8"/></defs><clipPath id="ag"><use overflow="visible" xlink:href="#af"/></clipPath><linearGradient id="ah" x1="17.616" x2="18.616" y1="446.16" y2="446.16" gradientTransform="scale(47.134 -47.134) rotate(45 560.07 210.54)" gradientUnits="userSpaceOnUse"><stop stop-color="#FBB03B" offset="0"/><stop stop-color="#FF2663" offset="1"/></linearGradient><path clip-path="url(#ag)" fill="url(#ah)" d="M461.5 289.8l17.6-17.5 17.6 17.5-17.6 17.6z"/><defs><path id="ai" d="M144.7 91.3l-59.2 59.2c-2.4 2.4-2.4 6.4 0 8.8s6.4 2.4 8.8 0l59.2-59.2c2.4-2.4 2.4-6.4 0-8.8-1.2-1.2-2.8-1.8-4.4-1.8-1.6-.1-3.2.6-4.4 1.8"/></defs><clipPath id="aj"><use overflow="visible" xlink:href="#ai"/></clipPath><linearGradient id="ak" x1="17.93" x2="18.93" y1="446.03" y2="446.03" gradientTransform="scale(258.2 -258.2) rotate(45 548.375 201.206)" gradientUnits="userSpaceOnUse"><stop stop-color="#BBE229" offset="0"/><stop stop-color="#24C79A" offset=".28"/><stop stop-color="#7700A7" offset=".597"/><stop stop-color="#FF2663" offset="1"/></linearGradient><path clip-path="url(#aj)" fill="url(#ak)" d="M46.9 125.6L119.5 53l72.5 72.6-72.5 72.5z"/><defs><path id="al" d="M290.6 36.6l-59.2 59.2c-2.4 2.4-2.4 6.4 0 8.8 1.2 1.2 2.8 1.8 4.4 1.8s3.2-.6 4.4-1.8l59.2-59.2c2.4-2.4 2.4-6.4 0-8.8-1.2-1.2-2.8-1.8-4.4-1.8s-3.2.6-4.4 1.8"/></defs><clipPath id="am"><use overflow="visible" xlink:href="#al"/></clipPath><linearGradient id="an" x1="18.07" x2="19.07" y1="445.97" y2="445.97" gradientTransform="scale(-258.2 258.2) rotate(45 546.714 199.589)" gradientUnits="userSpaceOnUse"><stop stop-color="#BBE229" offset="0"/><stop stop-color="#24C79A" offset=".28"/><stop stop-color="#7700A7" offset=".597"/><stop stop-color="#FF2663" offset="1"/></linearGradient><path clip-path="url(#am)" fill="url(#an)" d="M337.6 70.6l-72.2 72.3-72.3-72.3 72.3-72.2z"/><defs><path id="ao" d="M482.7 48.7l-59.2 59.2c-2.4 2.4-2.4 6.4 0 8.8 1.2 1.2 2.8 1.8 4.4 1.8s3.2-.6 4.4-1.8l59.2-59.2c2.4-2.4 2.4-6.4 0-8.8-1.2-1.2-2.8-1.8-4.4-1.8s-3.2.6-4.4 1.8"/></defs><clipPath id="ap"><use overflow="visible" xlink:href="#ao"/></clipPath><linearGradient id="aq" x1="18.07" x2="19.07" y1="445.97" y2="445.97" gradientTransform="scale(-258.2 258.2) rotate(45 546.286 198.714)" gradientUnits="userSpaceOnUse"><stop stop-color="#FBB03B" offset="0"/><stop stop-color="#FF2663" offset="1"/></linearGradient><path clip-path="url(#ap)" fill="url(#aq)" d="M529.8 82.7l-72.3 72.2-72.2-72.2 72.2-72.3z"/><defs><path id="ar" d="M171.3 147.4l-59.2 59.2c-2.4 2.4-2.4 6.4 0 8.8 1.2 1.2 2.8 1.8 4.4 1.8s3.2-.6 4.4-1.8l59.2-59.2c2.4-2.4 2.4-6.4 0-8.8-1.2-1.2-2.8-1.8-4.4-1.8s-3.2.6-4.4 1.8"/></defs><clipPath id="as"><use overflow="visible" xlink:href="#ar"/></clipPath><linearGradient id="at" x1="18.07" x2="19.07" y1="445.97" y2="445.97" gradientTransform="scale(-258.2 258.2) rotate(45 546.425 200.36)" gradientUnits="userSpaceOnUse"><stop stop-color="#FBB03B" offset="0"/><stop stop-color="#FF2663" offset="1"/></linearGradient><path clip-path="url(#as)" fill="url(#at)" d="M218.3 181.4l-72.2 72.2-72.3-72.2 72.3-72.3z"/><defs><path id="au" d="M215.5 312.6l-59.2 59.2c-2.4 2.4-2.4 6.4 0 8.8 1.2 1.2 2.8 1.8 4.4 1.8s3.2-.6 4.4-1.8l59.2-59.2c2.4-2.4 2.4-6.4 0-8.8-1.2-1.2-2.8-1.8-4.4-1.8-1.6-.1-3.2.5-4.4 1.8"/></defs><clipPath id="av"><use overflow="visible" xlink:href="#au"/></clipPath><linearGradient id="aw" x1="18.07" x2="19.07" y1="445.97" y2="445.97" gradientTransform="scale(-258.2 258.2) rotate(45 545.568 200.474)" gradientUnits="userSpaceOnUse"><stop stop-color="#BBE229" offset="0"/><stop stop-color="#24C79A" offset=".28"/><stop stop-color="#7700A7" offset=".597"/><stop stop-color="#FF2663" offset="1"/></linearGradient><path clip-path="url(#av)" fill="url(#aw)" d="M262.6 346.6l-72.3 72.2-72.2-72.2 72.2-72.3z"/><defs><path id="ax" d="M108.1 257.8L48.9 317c-2.4 2.4-2.4 6.4 0 8.8 1.2 1.2 2.8 1.8 4.4 1.8s3.2-.6 4.4-1.8l59.2-59.2c2.4-2.4 2.4-6.4 0-8.8-1.2-1.2-2.8-1.8-4.4-1.8-1.6-.1-3.2.6-4.4 1.8"/></defs><clipPath id="ay"><use overflow="visible" xlink:href="#ax"/></clipPath><linearGradient id="az" x1="18.07" x2="19.07" y1="445.97" y2="445.97" gradientTransform="scale(-258.2 258.2) rotate(45 546.033 200.868)" gradientUnits="userSpaceOnUse"><stop stop-color="#BBE229" offset="0"/><stop stop-color="#24C79A" offset=".28"/><stop stop-color="#7700A7" offset=".597"/><stop stop-color="#FF2663" offset="1"/></linearGradient><path clip-path="url(#ay)" fill="url(#az)" d="M155.1 291.8L82.9 364l-72.3-72.2 72.3-72.3z"/><defs><path id="aA" d="M31.1 334.7l-7.2 7.2c-2.4 2.4-2.4 6.4 0 8.8 1.2 1.2 2.8 1.8 4.4 1.8s3.2-.6 4.4-1.8l7.2-7.2c2.4-2.4 2.4-6.4 0-8.8-1.2-1.2-2.8-1.8-4.4-1.8s-3.2.6-4.4 1.8"/></defs><clipPath id="aB"><use overflow="visible" xlink:href="#aA"/></clipPath><linearGradient id="aC" x1="18.297" x2="19.297" y1="445.88" y2="445.88" gradientTransform="scale(-60.85 60.85) rotate(45 540.511 202.556)" gradientUnits="userSpaceOnUse"><stop stop-color="#BBE229" offset="0"/><stop stop-color="#24C79A" offset=".28"/><stop stop-color="#7700A7" offset=".597"/><stop stop-color="#FF2663" offset="1"/></linearGradient><path clip-path="url(#aB)" fill="url(#aC)" d="M52.2 342.8L31.9 363l-20.3-20.2 20.3-20.3z"/><defs><path id="aD" d="M320.6 8.9l-7.2 7.2c-2.4 2.4-2.4 6.4 0 8.8 1.2 1.2 2.8 1.8 4.4 1.8s3.2-.6 4.4-1.8l7.2-7.2c2.4-2.4 2.4-6.4 0-8.8-1.2-1.2-2.8-1.8-4.4-1.8s-3.2.6-4.4 1.8"/></defs><clipPath id="aE"><use overflow="visible" xlink:href="#aD"/></clipPath><linearGradient id="aF" x1="18.297" x2="19.297" y1="445.88" y2="445.88" gradientTransform="scale(-60.85 60.85) rotate(45 544.588 194.137)" gradientUnits="userSpaceOnUse"><stop stop-color="#FBB03B" offset="0"/><stop stop-color="#FF2663" offset="1"/></linearGradient><path clip-path="url(#aE)" fill="url(#aF)" d="M341.7 16.9l-20.3 20.3-20.3-20.3 20.3-20.3z"/><defs><path id="aG" d="M529.7 1.8L522.5 9c-2.4 2.4-2.4 6.4 0 8.8 1.2 1.2 2.8 1.8 4.4 1.8s3.2-.6 4.4-1.8l7.2-7.2c2.4-2.4 2.4-6.4 0-8.8-1.2-1.2-2.8-1.8-4.4-1.8s-3.2.6-4.4 1.8"/></defs><clipPath id="aH"><use overflow="visible" xlink:href="#aG"/></clipPath><linearGradient id="aI" x1="18.297" x2="19.297" y1="445.88" y2="445.88" gradientTransform="scale(-60.85 60.85) rotate(45 543.242 189.373)" gradientUnits="userSpaceOnUse"><stop stop-color="#FF2663" offset="0"/><stop stop-color="#7700A7" offset=".403"/><stop stop-color="#24C79A" offset=".72"/><stop stop-color="#BBE229" offset="1"/></linearGradient><path clip-path="url(#aH)" fill="url(#aI)" d="M550.8 9.8l-20.3 20.3-20.3-20.3 20.3-20.2z"/><defs><path id="aJ" d="M336 29.7l-43.5 43.5c-3.9 3.9-3.9 10.3 0 14.2 2 2 4.5 2.9 7.1 2.9s5.2-1 7.1-2.9l43.5-43.5c3.9-3.9 3.9-10.3 0-14.2-2-2-4.5-2.9-7.1-2.9-2.6-.1-5.1.9-7.1 2.9"/></defs><clipPath id="aK"><use overflow="visible" xlink:href="#aJ"/></clipPath><linearGradient id="aL" x1="17.912" x2="18.912" y1="446.04" y2="446.04" gradientTransform="scale(206.39 -206.39) rotate(45 548.588 202.876)" gradientUnits="userSpaceOnUse"><stop stop-color="#FF2663" offset="0"/><stop stop-color="#7700A7" offset=".403"/><stop stop-color="#24C79A" offset=".72"/><stop stop-color="#BBE229" offset="1"/></linearGradient><path clip-path="url(#aK)" fill="url(#aL)" d="M256.8 58.5L321.4-6 386 58.5l-64.6 64.6z"/><defs><path id="aM" d="M440.3 17.6l-67.6 67.6c-3.9 3.9-3.9 10.3 0 14.2s10.3 3.9 14.2 0l67.6-67.6c3.9-3.9 3.9-10.3 0-14.2-2-2-4.5-2.9-7.1-2.9-2.5 0-5.1 1-7.1 2.9"/></defs><clipPath id="aN"><use overflow="visible" xlink:href="#aM"/></clipPath><linearGradient id="aO" x1="18.062" x2="19.062" y1="445.98" y2="445.98" gradientTransform="scale(-292.57 292.57) rotate(45 546.532 199.325)" gradientUnits="userSpaceOnUse"><stop stop-color="#BBE229" offset="0"/><stop stop-color="#24C79A" offset=".28"/><stop stop-color="#7700A7" offset=".597"/><stop stop-color="#FF2663" offset="1"/></linearGradient><path clip-path="url(#aN)" fill="url(#aO)" d="M502.8 59l-89.1 89.2L324.5 59l89.2-89.1z"/><defs><path id="aP" d="M517.1 177.9L370.5 324.6c-2.8 2.8-2.8 7.2 0 10 1.4 1.4 3.2 2.1 5 2.1s3.6-.7 5-2.1l146.7-146.7c2.8-2.8 2.8-7.2 0-10-1.4-1.4-3.2-2.1-5-2.1-1.9 0-3.7.7-5.1 2.1"/></defs><clipPath id="aQ"><use overflow="visible" xlink:href="#aP"/></clipPath><linearGradient id="aR" x1="17.968" x2="18.968" y1="446.01" y2="446.01" gradientTransform="scale(560.34 -560.34) rotate(45 548.574 201.474)" gradientUnits="userSpaceOnUse"><stop stop-color="#7700A7" offset="0"/><stop stop-color="#7603A7" offset=".006"/><stop stop-color="#6331A4" offset=".095"/><stop stop-color="#5259A1" offset=".19"/><stop stop-color="#447B9F" offset=".289"/><stop stop-color="#38979D" offset=".395"/><stop stop-color="#2FAC9C" offset=".509"/><stop stop-color="#29BB9B" offset=".634"/><stop stop-color="#25C49A" offset=".781"/><stop stop-color="#24C79A" offset="1"/></linearGradient><path clip-path="url(#aQ)" fill="url(#aR)" d="M287.3 256.3L448.8 94.7l161.5 161.6-161.5 161.5z"/><defs><path id="aS" d="M366 252.8l-89.8 89.8c-5.2 5.2-5.2 13.7 0 18.9 2.6 2.6 6 3.9 9.5 3.9 3.4 0 6.8-1.3 9.5-3.9l89.8-89.8c5.2-5.2 5.2-13.7 0-18.9-2.6-2.6-6-3.9-9.5-3.9s-6.9 1.3-9.5 3.9"/></defs><clipPath id="aT"><use overflow="visible" xlink:href="#aS"/></clipPath><linearGradient id="aU" x1="17.954" x2="18.954" y1="446.02" y2="446.02" gradientTransform="scale(388.88 -388.88) rotate(45 548.983 201.399)" gradientUnits="userSpaceOnUse"><stop stop-color="#FBB03B" offset="0"/><stop stop-color="#FF2663" offset="1"/></linearGradient><path clip-path="url(#aT)" fill="url(#aU)" d="M212.6 307.2l117.9-117.9 117.9 117.9-117.9 117.9z"/><defs><path id="aV" d="M160.9 290.6l-67.6 67.6c-3.9 3.9-3.9 10.3 0 14.2 2 2 4.5 2.9 7.1 2.9s5.2-1 7.1-2.9l67.6-67.6c3.9-3.9 3.9-10.3 0-14.2-2-2-4.5-2.9-7.1-2.9s-5.1.9-7.1 2.9"/></defs><clipPath id="aW"><use overflow="visible" xlink:href="#aV"/></clipPath><linearGradient id="aX" x1="17.938" x2="18.938" y1="446.03" y2="446.03" gradientTransform="scale(292.57 -292.57) rotate(45 549.206 200.774)" gradientUnits="userSpaceOnUse"><stop stop-color="#BBE229" offset="0"/><stop stop-color="#24C79A" offset=".28"/><stop stop-color="#7700A7" offset=".597"/><stop stop-color="#FF2663" offset="1"/></linearGradient><path clip-path="url(#aW)" fill="url(#aX)" d="M45.6 331.5l88.6-88.7 88.7 88.7-88.7 88.7z"/><defs><path id="aY" d="M368.4 51.2c0 3.4 2.8 6.2 6.2 6.2s6.2-2.8 6.2-6.2-2.8-6.2-6.2-6.2-6.2 2.8-6.2 6.2"/></defs><clipPath id="aZ"><use overflow="visible" xlink:href="#aY"/></clipPath><linearGradient id="ba" x1="18.542" x2="19.542" y1="445.78" y2="445.78" gradientTransform="scale(-33.384 33.384) rotate(45 540.116 187.257)" gradientUnits="userSpaceOnUse"><stop stop-color="#FBB03B" offset="0"/><stop stop-color="#FF2663" offset="1"/></linearGradient><path clip-path="url(#aZ)" fill="url(#ba)" d="M387.1 51.2l-12.5 12.4-12.4-12.4 12.4-12.4z"/><defs><path id="bb" d="M499 243.6c0 3.4 2.8 6.2 6.2 6.2s6.2-2.8 6.2-6.2-2.8-6.2-6.2-6.2c-3.5-.1-6.2 2.7-6.2 6.2"/></defs><clipPath id="bc"><use overflow="visible" xlink:href="#bb"/></clipPath><linearGradient id="bd" x1="18.542" x2="19.542" y1="445.78" y2="445.78" gradientTransform="scale(-33.384 33.384) rotate(45 531.55 184.574)" gradientUnits="userSpaceOnUse"><stop stop-color="#7700A7" offset="0"/><stop stop-color="#7700A7" offset=".011"/><stop stop-color="#8B059D" offset=".115"/><stop stop-color="#BC1384" offset=".406"/><stop stop-color="#E11E72" offset=".661"/><stop stop-color="#F72467" offset=".868"/><stop stop-color="#FF2663" offset="1"/></linearGradient><path clip-path="url(#bc)" fill="url(#bd)" d="M517.6 243.6L505.2 256l-12.5-12.4 12.5-12.5z"/><defs><path id="be" d="M136.6 395.3c0 3.4 2.8 6.2 6.2 6.2s6.2-2.8 6.2-6.2-2.8-6.2-6.2-6.2-6.2 2.7-6.2 6.2"/></defs><clipPath id="bf"><use overflow="visible" xlink:href="#be"/></clipPath><linearGradient id="bg" x1="18.268" x2="19.268" y1="445.89" y2="445.89" gradientTransform="scale(-67.445 67.445) rotate(45 539.282 201.167)" gradientUnits="userSpaceOnUse"><stop stop-color="#BBE229" offset="0"/><stop stop-color="#24C79A" offset=".28"/><stop stop-color="#7700A7" offset=".597"/><stop stop-color="#FF2663" offset="1"/></linearGradient><path clip-path="url(#bf)" fill="url(#bg)" d="M155.3 395.3l-12.4 12.4-12.5-12.4 12.5-12.5z"/><defs><path id="bh" d="M509.6 141.2c0 5.9 4.7 10.6 10.6 10.6s10.6-4.7 10.6-10.6-4.7-10.6-10.6-10.6-10.6 4.7-10.6 10.6"/></defs><clipPath id="bi"><use overflow="visible" xlink:href="#bh"/></clipPath><linearGradient id="bj" x1="18.318" x2="19.318" y1="445.87" y2="445.87" gradientTransform="scale(-56.933 56.933) rotate(45 540.005 190.55)" gradientUnits="userSpaceOnUse"><stop stop-color="#7700A7" offset="0"/><stop stop-color="#7603A7" offset=".006"/><stop stop-color="#6331A4" offset=".095"/><stop stop-color="#5259A1" offset=".19"/><stop stop-color="#447B9F" offset=".289"/><stop stop-color="#38979D" offset=".395"/><stop stop-color="#2FAC9C" offset=".509"/><stop stop-color="#29BB9B" offset=".634"/><stop stop-color="#25C49A" offset=".781"/><stop stop-color="#24C79A" offset="1"/></linearGradient><path clip-path="url(#bi)" fill="url(#bj)" d="M541.4 141.2l-21.2 21.2-21.2-21.2 21.2-21.2z"/><defs><path id="bk" d="M151.4 62.5l-10.2 10.2c-3.4 3.4-3.4 9 0 12.4 1.7 1.7 4 2.6 6.2 2.6s4.5-.9 6.2-2.6L163.8 75c3.4-3.4 3.4-9 0-12.4-1.7-1.7-4-2.6-6.2-2.6s-4.5.8-6.2 2.5"/></defs><clipPath id="bl"><use overflow="visible" xlink:href="#bk"/></clipPath><linearGradient id="bm" x1="18.21" x2="19.21" y1="445.91" y2="445.91" gradientTransform="scale(-85.91 85.91) rotate(45 545.879 198.233)" gradientUnits="userSpaceOnUse"><stop stop-color="#FF2663" offset="0"/><stop stop-color="#7700A7" offset=".403"/><stop stop-color="#24C79A" offset=".72"/><stop stop-color="#BBE229" offset="1"/></linearGradient><path clip-path="url(#bl)" fill="url(#bm)" d="M181.2 73.8l-28.7 28.7-28.6-28.7 28.6-28.6z"/><defs><path id="bn" d="M119.5 96.5c0 4.8 3.9 8.8 8.8 8.8 4.8 0 8.8-3.9 8.8-8.8 0-4.8-3.9-8.8-8.8-8.8s-8.8 4-8.8 8.8"/></defs><clipPath id="bo"><use overflow="visible" xlink:href="#bn"/></clipPath><linearGradient id="bp" x1="18.384" x2="19.384" y1="445.84" y2="445.84" gradientTransform="scale(-47.134 47.134) rotate(45 543.737 197.982)" gradientUnits="userSpaceOnUse"><stop stop-color="#FBB03B" offset="0"/><stop stop-color="#FF2663" offset="1"/></linearGradient><path clip-path="url(#bo)" fill="url(#bp)" d="M145.8 96.5l-17.5 17.6-17.6-17.6 17.6-17.6z"/><defs><path id="bq" d="M220.7 47.4L125.1 143c-3.9 3.9-3.9 10.3 0 14.2 2 2 4.5 2.9 7.1 2.9s5.2-1 7.1-2.9l95.6-95.6c3.9-3.9 3.9-10.3 0-14.2-2-2-4.5-2.9-7.1-2.9-2.5 0-5.1 1-7.1 2.9"/></defs><clipPath id="br"><use overflow="visible" xlink:href="#bq"/></clipPath><linearGradient id="bs" x1="18.043" x2="19.043" y1="445.98" y2="445.98" gradientTransform="scale(-417.18 417.18) rotate(45 547.063 200.329)" gradientUnits="userSpaceOnUse"><stop stop-color="#7700A7" offset="0"/><stop stop-color="#7603A7" offset=".006"/><stop stop-color="#6331A4" offset=".095"/><stop stop-color="#5259A1" offset=".19"/><stop stop-color="#447B9F" offset=".289"/><stop stop-color="#38979D" offset=".395"/><stop stop-color="#2FAC9C" offset=".509"/><stop stop-color="#29BB9B" offset=".634"/><stop stop-color="#25C49A" offset=".781"/><stop stop-color="#24C79A" offset="1"/></linearGradient><path clip-path="url(#br)" fill="url(#bs)" d="M296.8 102.4L180 219.1 63.3 102.4 180-14.4z"/><defs><path id="bt" d="M421.4 135.5l-26.3 26.3c-6.1 6.1-6.1 15.9 0 22 3 3 7 4.5 11 4.5s7.9-1.5 11-4.5l26.3-26.3c6.1-6.1 6.1-15.9 0-22-3-3-7-4.5-11-4.5s-7.9 1.5-11 4.5"/></defs><clipPath id="bu"><use overflow="visible" xlink:href="#bt"/></clipPath><linearGradient id="bv" x1="17.948" x2="18.948" y1="446.02" y2="446.02" gradientTransform="scale(349.04 -349.04) rotate(45 548.897 201.633)" gradientUnits="userSpaceOnUse"><stop stop-color="#7700A7" offset="0"/><stop stop-color="#7700A7" offset=".011"/><stop stop-color="#8B059D" offset=".115"/><stop stop-color="#BC1384" offset=".406"/><stop stop-color="#E11E72" offset=".661"/><stop stop-color="#F72467" offset=".868"/><stop stop-color="#FF2663" offset="1"/></linearGradient><path clip-path="url(#bu)" fill="url(#bv)" d="M360.4 159.7l58.9-58.9 58.8 58.9-58.8 58.9z"/><defs><path id="bw" d="M499.3 77.6l-43.5 43.5c-3.9 3.9-3.9 10.3 0 14.2 2 2 4.5 2.9 7.1 2.9s5.1-1 7.1-2.9l43.5-43.5c3.9-3.9 3.9-10.3 0-14.2-2-2-4.5-2.9-7.1-2.9s-5.2.9-7.1 2.9"/></defs><clipPath id="bx"><use overflow="visible" xlink:href="#bw"/></clipPath><linearGradient id="by" x1="17.912" x2="18.912" y1="446.04" y2="446.04" gradientTransform="scale(206.39 -206.39) rotate(45 549.258 203.715)" gradientUnits="userSpaceOnUse"><stop stop-color="#BBE229" offset="0"/><stop stop-color="#A5DE39" offset=".108"/><stop stop-color="#6ED463" offset=".41"/><stop stop-color="#46CD81" offset=".67"/><stop stop-color="#2DC993" offset=".875"/><stop stop-color="#24C79A" offset="1"/></linearGradient><path clip-path="url(#bx)" fill="url(#by)" d="M420.1 106.5l64.5-64.6 64.6 64.6-64.6 64.5z"/><defs><path id="bz" d="M474 266.2l-59.2 59.2c-2.4 2.4-2.4 6.4 0 8.8 1.2 1.2 2.8 1.8 4.4 1.8s3.2-.6 4.4-1.8l59.2-59.2c2.4-2.4 2.4-6.4 0-8.8-1.2-1.2-2.8-1.8-4.4-1.8-1.6-.1-3.2.6-4.4 1.8"/></defs><clipPath id="bA"><use overflow="visible" xlink:href="#bz"/></clipPath><linearGradient id="bB" x1="18.07" x2="19.07" y1="445.97" y2="445.97" gradientTransform="scale(-258.2 258.2) rotate(45 545.284 199.178)" gradientUnits="userSpaceOnUse"><stop stop-color="#BBE229" offset="0"/><stop stop-color="#24C79A" offset=".28"/><stop stop-color="#7700A7" offset=".597"/><stop stop-color="#FF2663" offset="1"/></linearGradient><path clip-path="url(#bA)" fill="url(#bB)" d="M521.1 300.2l-72.3 72.2-72.2-72.2 72.2-72.3z"/></svg>