<svg viewBox="0 0 1920 1250" xmlns="http://www.w3.org/2000/svg"><g fill="#009EE0"><path d="M0 104.14L213.3-.06v208.4L0 104.14z" opacity=".003"/><path d="M213.3 208.34V.24l213.3 104.2-213.3 103.9z" opacity=".006"/><path d="M426.7 104.14L640 .04v208.4l-213.3-104.3z" opacity=".003"/><path d="M640 208.34V.24l213.3 104.2L640 208.34z" opacity=".006"/><path d="M853.3 104.14L1066.6-.06v208.4l-213.3-104.2z" opacity=".003"/><path d="M1066.7 208.34V.24l213.3 104.2-213.3 103.9z" opacity=".006"/><path d="M1280 104.14L1493.3-.06v208.4L1280 104.14z" opacity=".003"/><path d="M1493.3 208.34V.24l213.3 104.2-213.3 103.9z" opacity=".006"/><path d="M1706.7 104.14L1920 .04v208.4l-213.3-104.3z" opacity=".003"/><path d="M0 312.54v-208.4l213.3 104.2L0 312.54z" opacity=".03"/><path d="M213.3 208.34l213.3-104.2v208.5l-213.3-104.3z" opacity=".08"/><path d="M426.7 312.54v-208.4L640 208.34l-213.3 104.2z" opacity=".03"/><path d="M640 208.34l213.3-104.2v208.5L640 208.34z" opacity=".08"/><path d="M853.3 312.54v-208.4l213.3 104.2-213.3 104.2z" opacity=".03"/><path d="M1066.7 208.34l213.3-104.2v208.5l-213.3-104.3z" opacity=".08"/><path d="M1280 312.54v-208.4l213.3 104.2-213.3 104.2z" opacity=".03"/><path d="M1493.3 208.34l213.3-104.2v208.5l-213.3-104.3z" opacity=".08"/><path d="M1706.7 312.54v-208.4l213.3 104.2-213.3 104.2z" opacity=".03"/><g><path d="M0 312.54l213.3-104.2v208.4L0 312.54z" opacity=".1"/><path d="M213.3 416.74v-208.4l213.3 104.2-213.3 104.2z" opacity=".08"/><path d="M426.7 312.54L640 208.34v208.4l-213.3-104.2z" opacity=".1"/><path d="M640 416.74v-208.4l213.3 104.2L640 416.74z" opacity=".08"/><path d="M853.3 312.54l213.3-104.2v208.4l-213.3-104.2z" opacity=".1"/><path d="M1066.7 416.74v-208.4l213.3 104.2-213.3 104.2z" opacity=".08"/><path d="M1280 312.54l213.3-104.2v208.4L1280 312.54z" opacity=".1"/><path d="M1493.3 416.74v-208.4l213.3 104.2-213.3 104.2z" opacity=".08"/><path d="M1706.7 312.54l213.3-104.2v208.4l-213.3-104.2z" opacity=".1"/></g><g><path d="M0 520.94v-208.3l213.3 104.2L0 520.94z" opacity=".2"/><path d="M213.3 416.74l213.4-104.1v208.4l-213.4-104.3z" opacity=".3"/><path d="M426.7 520.94v-208.3L640 416.74l-213.3 104.2z" opacity=".2"/><path d="M640 416.74l213.3-104.1v208.4L640 416.74z" opacity=".3"/><path d="M853.3 520.94v-208.3l213.3 104.2-213.3 104.1z" opacity=".2"/><path d="M1066.7 416.74l213.3-104.1v208.4l-213.3-104.3z" opacity=".3"/><path d="M1280 520.94v-208.3l213.3 104.2-213.3 104.1z" opacity=".2"/><path d="M1493.3 416.74l213.4-104.1v208.4l-213.4-104.3z" opacity=".3"/><path d="M1706.7 520.94v-208.3l213.3 104.1-213.3 104.2z" opacity=".2"/></g><g><path d="M0 520.94l213.3-104.2v208.4L0 520.94z" opacity=".3"/><path d="M213.3 625.04v-208.3l213.3 104.2-213.3 104.1z" opacity=".4"/><path d="M426.7 520.94L640 416.74v208.4l-213.3-104.2z" opacity=".3"/><path d="M640 625.04v-208.3l213.3 104.2L640 625.04z" opacity=".4"/><path d="M853.3 520.94l213.3-104.2v208.4l-213.3-104.2z" opacity=".3"/><path d="M1066.7 625.04v-208.3l213.3 104.2-213.3 104.1z" opacity=".4"/><path d="M1280 520.94l213.3-104.2v208.4L1280 520.94z" opacity=".5"/><path d="M1493.3 625.04v-208.3l213.3 104.2-213.3 104.1z" opacity=".4"/><path d="M1706.7 520.94l213.3-104.2v208.4l-213.3-104.2z" opacity=".5"/></g><g><path d="M0 729.14v-208.3l213.3 104.2L0 729.14z" opacity=".4"/><path d="M213.3 625.04l213.3-104.2v208.4l-213.3-104.2z" opacity=".5"/><path d="M426.7 729.14v-208.2L640 625.14l-213.3 104z" opacity=".4"/><path d="M640 625.04l213.3-104.2v208.4L640 625.04z" opacity=".5"/><path d="M853.3 729.14v-208.2l213.3 104.2-213.3 104z" opacity=".4"/><path d="M1066.7 625.04l213.3-104.2v208.4l-213.3-104.2z" opacity=".7"/><path d="M1280 729.14v-208.2l213.3 104.2-213.3 104z" opacity=".6"/><path d="M1493.3 625.04l213.3-104.2v208.4l-213.3-104.2z" opacity=".7"/><path d="M1706.7 729.14v-208.2l213.3 104.2-213.3 104z" opacity=".6"/></g><g><path d="M0 729.14l213.3-104.2v208.4L0 729.14z" opacity=".5"/><path d="M213.3 833.34v-208.3l213.3 104.2-213.3 104.1z" opacity=".4"/><path d="M426.7 729.14L640 624.94v208.4l-213.3-104.2z" opacity=".5"/><path d="M640 833.34v-208.3l213.3 104.2L640 833.34z" opacity=".4"/><path d="M853.3 729.14l213.3-104.2v208.4l-213.3-104.2z" opacity=".5"/><path d="M1066.7 833.34v-208.3l213.3 104.2-213.3 104.1z" opacity=".4"/><path d="M1280 729.14l213.3-104.2v208.4L1280 729.14z" opacity=".5"/><path d="M1493.3 833.34v-208.3l213.3 104.2-213.3 104.1z" opacity=".4"/><path d="M1706.7 729.14l213.3-104.2v208.4l-213.3-104.2z" opacity=".5"/></g><g><path d="M0 937.54v-208.4l213.3 104.2L0 937.54z" opacity=".2"/><path d="M213.3 833.34l213.3-104.2v208.4l-213.3-104.2z" opacity=".3"/><path d="M426.7 937.54v-208.4L640 833.34l-213.3 104.2z" opacity=".2"/><path d="M640 833.34l213.3-104.2v208.4L640 833.34z" opacity=".3"/><path d="M853.3 937.54v-208.4l213.3 104.2-213.3 104.2z" opacity=".2"/><path d="M1066.7 833.34l213.3-104.2v208.4l-213.3-104.2z" opacity=".3"/><path d="M1280 937.54v-208.4l213.3 104.2-213.3 104.2z" opacity=".2"/><path d="M1493.3 833.34l213.3-104.2v208.4l-213.3-104.2z" opacity=".3"/><path d="M1706.7 937.54v-208.4l213.3 104.2-213.3 104.2z" opacity=".2"/></g><g><path d="M0 937.54l213.3-104.2v208.4L0 937.54z" opacity=".1"/><path d="M213.3 1041.64v-208.3l213.3 104.2-213.3 104.1z" opacity=".15"/><path d="M426.7 937.54L640 833.34v208.4l-213.3-104.2z" opacity=".1"/><path d="M640 1041.64v-208.3l213.3 104.2-213.3 104.1z" opacity=".15"/><path d="M853.3 937.54l213.3-104.2v208.4l-213.3-104.2z" opacity=".1"/><path d="M1066.7 1041.64v-208.3l213.3 104.2-213.3 104.1z" opacity=".15"/><path d="M1280 937.54l213.3-104.2v208.4L1280 937.54z" opacity=".1"/><path d="M1493.3 1041.64v-208.3l213.3 104.2-213.3 104.1z" opacity=".15"/><path d="M1706.7 937.54l213.3-104.2v208.4l-213.3-104.2z" opacity=".1"/></g><g><path d="M0 1145.84v-208.4l213.3 104.2L0 1145.84z" opacity=".02"/><path d="M213.3 1041.64l213.3-104.2v208.4l-213.3-104.2z" opacity=".035"/><path d="M426.7 1145.84v-208.4l213.3 104.2-213.3 104.2z" opacity=".02"/><path d="M640 1041.64l213.3-104.2v208.4L640 1041.64z" opacity=".035"/><path d="M853.3 1145.84v-208.4l213.3 104.2-213.3 104.2z" opacity=".02"/><path d="M1066.7 1041.64l213.3-104.2v208.4l-213.3-104.2z" opacity=".035"/><path d="M1280 1145.84v-208.4l213.3 104.2-213.3 104.2z" opacity=".02"/><path d="M1493.3 1041.64l213.3-104.2v208.4l-213.3-104.2z" opacity=".08"/><path d="M1706.7 1145.84v-208.4l213.3 104.2-213.3 104.2z" opacity=".02"/></g><g><path d="M0 1145.84l213.3-104.2v208.4L0 1145.84z" opacity=".003"/><path d="M213.3 1250.04v-208.4l213.3 104.2-213.3 104.2z" opacity=".006"/><path d="M426.7 1145.84l213.3-104.2v208.4l-213.3-104.2z" opacity=".003"/><path d="M640 1250.04v-208.4l213.3 104.2-213.3 104.2z" opacity=".006"/><path d="M853.3 1145.84l213.3-104.2v208.4l-213.3-104.2z" opacity=".003"/><path d="M1066.7 1250.04v-208.4l213.3 104.2-213.3 104.2z" opacity=".006"/><path d="M1280 1145.84l213.3-104.2v208.4l-213.3-104.2z" opacity=".003"/><path d="M1493.3 1250.04v-208.4l213.3 104.2-213.3 104.2z" opacity=".006"/><path d="M1706.7 1145.84l213.3-104.2v208.4l-213.3-104.2z" opacity=".003"/></g></g></svg>