<svg xmlns="http://www.w3.org/2000/svg" viewBox="0 0 1919.736 822.722"><path fill="#00957E" d="M0 0h1919.671v823.055H0z"/><path opacity=".1" fill="#636363" d="M.065 225.027v212.667l213.277-106.667z"/><path opacity=".15" fill="#636363" d="M213.342 331.027V118.361L.065 225.027z"/><path opacity=".2" fill="#636363" d="M213.357 331.027V118.361l213.277 106.666z"/><path opacity=".15" fill="#636363" d="M426.634 225.027v212.667L213.357 331.027z"/><path opacity=".11" fill="#636363" d="M426.627 225.027v212.667l213.277-106.667z"/><path opacity=".18" fill="#636363" d="M639.904 331.027V118.361L426.627 225.027z"/><path opacity=".25" fill="#636363" d="M640.027 331.027V118.361l213.277 106.666z"/><path opacity=".2" fill="#636363" d="M853.304 225.027v212.667L640.027 331.027z"/><path opacity=".17" fill="#636363" d="M853.296 225.027v212.667l213.277-106.667z"/><path opacity=".25" fill="#636363" d="M1066.573 331.027V118.361L853.296 225.027z"/><path opacity=".3" fill="#636363" d="M1066.576 331.027V118.361l213.277 106.666z"/><path opacity=".2" fill="#636363" d="M1279.853 225.027v212.667l-213.277-106.667z"/><path opacity=".25" fill="#636363" d="M1279.816 225.027v212.667l213.277-106.667z"/><path opacity=".3" fill="#636363" d="M1493.093 331.027V118.361l-213.277 106.666z"/><path opacity=".2" fill="#636363" d="M1493.107 331.027V118.361l213.277 106.666z"/><path opacity=".15" fill="#636363" d="M1706.384 225.027v212.667l-213.277-106.667z"/><path opacity=".1" fill="#636363" d="M1706.394 225.027v212.667l213.277-106.667z"/><path opacity=".15" fill="#636363" d="M1919.671 331.027V118.361l-213.277 106.666z"/><path opacity=".03" fill="#636363" d="M213.342 543.694V331.027L.065 437.694z"/><path opacity=".05" fill="#636363" d="M213.357 543.694V331.027l213.277 106.667z"/><path opacity=".05" fill="#636363" d="M639.904 543.694V331.027L426.627 437.694z"/><path opacity=".1" fill="#636363" d="M640.027 543.694V331.027l213.277 106.667z"/><path opacity=".07" fill="#636363" d="M1066.573 543.694V331.027L853.296 437.694z"/><path opacity=".12" fill="#636363" d="M1066.576 543.694V331.027l213.277 106.667z"/><path opacity=".05" fill="#636363" d="M1493.093 543.694V331.027l-213.277 106.667z"/><path opacity=".1" fill="#636363" d="M1493.107 543.694V331.027l213.277 106.667z"/><path opacity=".05" fill="#636363" d="M1919.671 543.694V331.027l-213.277 106.667z"/><path opacity=".3" fill="#636363" d="M.065 12.361v212.666l213.277-106.666z"/><path opacity=".25" fill="#636363" d="M426.634 12.361v212.666L213.357 118.361z"/><path opacity=".35" fill="#636363" d="M426.627 12.361v212.666l213.277-106.666zM853.304 12.361v212.666L640.027 118.361z"/><path opacity=".5" fill="#636363" d="M853.296 12.361v212.666l213.277-106.666z"/><path opacity=".35" fill="#636363" d="M1279.853 12.361v212.666l-213.277-106.666z"/><path opacity=".35" fill="#636363" d="M1279.816 12.361v212.666l213.277-106.666z"/><path opacity=".25" fill="#636363" d="M1706.384 12.361v212.666l-213.277-106.666z"/><path opacity=".3" fill="#636363" d="M1706.394 12.361v212.666l213.277-106.666z"/><path opacity=".68" fill="#636363" d="M1919.671 118.361l-213.277-106h213.277z"/><path opacity=".5" fill="#636363" d="M1706.384 12.361l-213.277 106v-106z"/><path opacity=".45" fill="#636363" d="M1493.093 118.361l-213.277-106h213.277z"/><path opacity=".4" fill="#636363" d="M1279.853 12.361l-213.277 106v-106z"/><path opacity=".45" fill="#636363" d="M1066.573 118.361l-213.277-106h213.277z"/><path opacity=".45" fill="#636363" d="M853.304 12.361l-213.277 106v-106z"/><path opacity=".4" fill="#636363" d="M639.904 118.361l-213.277-106h213.277z"/><path opacity=".43" fill="#636363" d="M426.634 12.361l-213.277 106v-106z"/><path opacity=".49" fill="#636363" d="M213.342 118.361L.065 12.361h213.277z"/></svg>