<svg xmlns="http://www.w3.org/2000/svg" viewBox="0 0 1919.736 822.722"><path fill="#00957E" d="M0 0h1919.671v823.055H0z"/><path opacity=".1" fill="#58585A" d="M.065 610.055V397.388l213.277 106.667z"/><path opacity=".15" fill="#58585A" d="M213.342 504.055v212.667L.065 610.055z"/><path opacity=".2" fill="#58585A" d="M213.357 504.055v212.667l213.277-106.667z"/><path opacity=".15" fill="#58585A" d="M426.634 610.055V397.388L213.357 504.055z"/><path opacity=".11" fill="#58585A" d="M426.627 610.055V397.388l213.277 106.667z"/><path opacity=".18" fill="#58585A" d="M639.904 504.055v212.667L426.627 610.055z"/><path opacity=".25" fill="#58585A" d="M640.027 504.055v212.667l213.277-106.667z"/><path opacity=".2" fill="#58585A" d="M853.304 610.055V397.388L640.027 504.055z"/><path opacity=".17" fill="#58585A" d="M853.296 610.055V397.388l213.277 106.667z"/><path opacity=".25" fill="#58585A" d="M1066.573 504.055v212.667L853.296 610.055z"/><path opacity=".3" fill="#58585A" d="M1066.576 504.055v212.667l213.277-106.667z"/><path opacity=".2" fill="#58585A" d="M1279.853 610.055V397.388l-213.277 106.667z"/><path opacity=".25" fill="#58585A" d="M1279.816 610.055V397.388l213.277 106.667z"/><path opacity=".3" fill="#58585A" d="M1493.093 504.055v212.667l-213.277-106.667z"/><path opacity=".2" fill="#58585A" d="M1493.107 504.055v212.667l213.277-106.667z"/><path opacity=".15" fill="#58585A" d="M1706.384 610.055V397.388l-213.277 106.667z"/><path opacity=".1" fill="#58585A" d="M1706.394 610.055V397.388l213.277 106.667z"/><path opacity=".15" fill="#58585A" d="M1919.671 504.055v212.667l-213.277-106.667z"/><path opacity=".03" fill="#58585A" d="M213.342 291.388v212.667L.065 397.388z"/><path opacity=".05" fill="#58585A" d="M213.357 291.388v212.667l213.277-106.667z"/><path opacity=".05" fill="#58585A" d="M639.904 291.388v212.667L426.627 397.388z"/><path opacity=".1" fill="#58585A" d="M640.027 291.388v212.667l213.277-106.667z"/><path opacity=".07" fill="#58585A" d="M1066.573 291.388v212.667L853.296 397.388z"/><path opacity=".12" fill="#58585A" d="M1066.576 291.388v212.667l213.277-106.667z"/><path opacity=".05" fill="#58585A" d="M1493.093 291.388v212.667l-213.277-106.667z"/><path opacity=".1" fill="#58585A" d="M1493.107 291.388v212.667l213.277-106.667z"/><path opacity=".05" fill="#58585A" d="M1919.671 291.388v212.667l-213.277-106.667z"/><path opacity=".3" fill="#58585A" d="M.065 822.722V610.055l213.277 106.667z"/><path opacity=".25" fill="#58585A" d="M426.634 822.722V610.055L213.357 716.722z"/><path opacity=".35" fill="#58585A" d="M426.627 822.722V610.055l213.277 106.667zM853.304 822.722V610.055L640.027 716.722z"/><path opacity=".5" fill="#58585A" d="M853.296 822.722V610.055l213.277 106.667z"/><path opacity=".35" fill="#58585A" d="M1279.853 822.722V610.055l-213.277 106.667z"/><path opacity=".35" fill="#58585A" d="M1279.816 822.722V610.055l213.277 106.667z"/><path opacity=".25" fill="#58585A" d="M1706.384 822.722V610.055l-213.277 106.667z"/><path opacity=".3" fill="#58585A" d="M1706.394 822.722V610.055l213.277 106.667z"/><path opacity=".68" fill="#58585A" d="M1919.671 716.722l-213.277 106h213.277z"/><path opacity=".5" fill="#58585A" d="M1706.384 822.722l-213.277-106v106z"/><path opacity=".45" fill="#58585A" d="M1493.093 716.722l-213.277 106h213.277z"/><path opacity=".4" fill="#58585A" d="M1279.853 822.722l-213.277-106v106z"/><path opacity=".45" fill="#58585A" d="M1066.573 716.722l-213.277 106h213.277z"/><path opacity=".45" fill="#58585A" d="M853.304 822.722l-213.277-106v106z"/><path opacity=".4" fill="#58585A" d="M639.904 716.722l-213.277 106h213.277z"/><path opacity=".43" fill="#58585A" d="M426.634 822.722l-213.277-106v106z"/><path opacity=".49" fill="#58585A" d="M213.342 716.722l-213.277 106h213.277z"/></svg>