<svg xmlns="http://www.w3.org/2000/svg" viewBox="0 0 1920 700"><path fill="#009DE0" d="M0 0h1920v700H0z"/><g fill="#636363"><path opacity=".1" d="M0 212.71v212.711l213.321-106.689z"/><path opacity=".15" d="M213.321 318.732v-212.71L0 212.71z"/><path opacity=".2" d="M213.336 318.732v-212.71L426.657 212.71z"/><path opacity=".15" d="M426.657 212.71v212.711L213.336 318.732z"/><path opacity=".11" d="M426.65 212.71v212.711l213.32-106.689z"/><path opacity=".18" d="M639.97 318.732v-212.71L426.65 212.71z"/><path opacity=".25" d="M640.094 318.732v-212.71l213.32 106.688z"/><path opacity=".2" d="M853.414 212.71v212.711l-213.32-106.689z"/><path opacity=".17" d="M853.407 212.71v212.711l213.32-106.689z"/><path opacity=".25" d="M1066.727 318.732v-212.71L853.407 212.71z"/><path opacity=".3" d="M1066.73 318.732v-212.71l213.321 106.688z"/><path opacity=".2" d="M1280.051 212.71v212.711L1066.73 318.732z"/><path opacity=".25" d="M1280.014 212.71v212.711l213.321-106.689z"/><path opacity=".3" d="M1493.335 318.732v-212.71L1280.014 212.71z"/><path opacity=".2" d="M1493.349 318.732v-212.71L1706.67 212.71z"/><path opacity=".15" d="M1706.67 212.71v212.711l-213.321-106.689z"/><path opacity=".1" d="M1706.679 212.71v212.711L1920 318.732z"/><path opacity=".15" d="M1920 318.732v-212.71L1706.679 212.71z"/><path opacity=".03" d="M213.321 531.443V318.732L0 425.421z"/><path opacity=".05" d="M213.336 531.443V318.732l213.321 106.689z"/><path opacity=".05" d="M639.97 531.443V318.732L426.65 425.421z"/><path opacity=".1" d="M640.094 531.443V318.732l213.32 106.689z"/><path opacity=".07" d="M1066.727 531.443V318.732l-213.32 106.689z"/><path opacity=".12" d="M1066.73 531.443V318.732l213.321 106.689z"/><path opacity=".05" d="M1493.335 531.443V318.732l-213.321 106.689z"/><path opacity=".1" d="M1493.349 531.443V318.732l213.321 106.689z"/><path opacity=".05" d="M1920 531.443V318.732l-213.321 106.689z"/><path opacity=".3" d="M0 0v212.71l213.321-106.688z"/><path opacity=".25" d="M426.657 0v212.71L213.336 106.022z"/><path opacity=".35" d="M426.65 0v212.71l213.32-106.688zM853.414 0v212.71l-213.32-106.688z"/><path opacity=".5" d="M853.407 0v212.71l213.32-106.688z"/><path opacity=".35" d="M1280.051 0v212.71L1066.73 106.022z"/><path opacity=".35" d="M1280.014 0v212.71l213.321-106.688z"/><path opacity=".25" d="M1706.67 0v212.71l-213.321-106.688z"/><path opacity=".3" d="M1706.679 0v212.71L1920 106.022z"/><path opacity=".68" d="M1920 106.022L1706.679 0H1920z"/><path opacity=".5" d="M1706.67 0l-213.321 106.022V0z"/><path opacity=".45" d="M1493.335 106.022L1280.014 0h213.321z"/><path opacity=".4" d="M1280.051 0L1066.73 106.022V0z"/><path opacity=".45" d="M1066.727 106.022L853.407 0h213.32z"/><path opacity=".45" d="M853.414 0l-213.32 106.022V0z"/><path opacity=".4" d="M639.97 106.022L426.65 0h213.32z"/><path opacity=".43" d="M426.657 0L213.336 106.022V0z"/><path opacity=".49" d="M213.321 106.022L0 0h213.321z"/></g></svg>