<svg xmlns="http://www.w3.org/2000/svg" viewBox="0 0 1919.736 1460"><path fill="#00957E" d="M0 0h1919.671v1460H0z"/><path opacity=".1" fill="#58585A" d="M.065 610.055V397.388l213.277 106.667z"/><path opacity=".15" fill="#58585A" d="M213.342 504.055v212.667L.065 610.055z"/><path opacity=".2" fill="#58585A" d="M213.357 504.055v212.667l213.277-106.667z"/><path opacity=".15" fill="#58585A" d="M426.634 610.055V397.388L213.357 504.055z"/><path opacity=".11" fill="#58585A" d="M426.627 610.055V397.388l213.277 106.667z"/><path opacity=".18" fill="#58585A" d="M639.904 504.055v212.667L426.627 610.055z"/><path opacity=".25" fill="#58585A" d="M640.027 504.055v212.667l213.277-106.667z"/><path opacity=".2" fill="#58585A" d="M853.304 610.055V397.388L640.027 504.055z"/><path opacity=".17" fill="#58585A" d="M853.296 610.055V397.388l213.277 106.667z"/><path opacity=".25" fill="#58585A" d="M1066.573 504.055v212.667L853.296 610.055z"/><path opacity=".3" fill="#58585A" d="M1066.576 504.055v212.667l213.277-106.667z"/><path opacity=".2" fill="#58585A" d="M1279.853 610.055V397.388l-213.277 106.667z"/><path opacity=".25" fill="#58585A" d="M1279.816 610.055V397.388l213.277 106.667z"/><path opacity=".3" fill="#58585A" d="M1493.093 504.055v212.667l-213.277-106.667z"/><path opacity=".2" fill="#58585A" d="M1493.107 504.055v212.667l213.277-106.667z"/><path opacity=".15" fill="#58585A" d="M1706.384 610.055V397.388l-213.277 106.667z"/><path opacity=".1" fill="#58585A" d="M1706.394 610.055V397.388l213.277 106.667z"/><path opacity=".15" fill="#58585A" d="M1919.671 504.055v212.667l-213.277-106.667z"/><path opacity=".03" fill="#58585A" d="M213.342 291.388v212.667L.065 397.388z"/><path opacity=".05" fill="#58585A" d="M213.357 291.388v212.667l213.277-106.667z"/><path opacity=".05" fill="#58585A" d="M639.904 291.388v212.667L426.627 397.388z"/><path opacity=".1" fill="#58585A" d="M640.027 291.388v212.667l213.277-106.667z"/><path opacity=".07" fill="#58585A" d="M1066.573 291.388v212.667L853.296 397.388z"/><path opacity=".12" fill="#58585A" d="M1066.576 291.388v212.667l213.277-106.667z"/><path opacity=".05" fill="#58585A" d="M1493.093 291.388v212.667l-213.277-106.667z"/><path opacity=".1" fill="#58585A" d="M1493.107 291.388v212.667l213.277-106.667z"/><path opacity=".05" fill="#58585A" d="M1919.671 291.388v212.667l-213.277-106.667z"/><path opacity=".3" fill="#58585A" d="M.065 822.722V610.055l213.277 106.667z"/><path opacity=".49" fill="#58585A" d="M213.342 716.722v212.666L.065 822.722z"/><path opacity=".43" fill="#58585A" d="M213.357 716.722v212.666l213.277-106.666z"/><path opacity=".25" fill="#58585A" d="M426.634 822.722V610.055L213.357 716.722z"/><path opacity=".35" fill="#58585A" d="M426.627 822.722V610.055l213.277 106.667z"/><path opacity=".4" fill="#58585A" d="M639.904 716.722v212.666L426.627 822.722z"/><path opacity=".45" fill="#58585A" d="M640.027 716.722v212.666l213.277-106.666z"/><path opacity=".35" fill="#58585A" d="M853.304 822.722V610.055L640.027 716.722z"/><path opacity=".5" fill="#58585A" d="M853.296 822.722V610.055l213.277 106.667z"/><path opacity=".45" fill="#58585A" d="M1066.573 716.722v212.666L853.296 822.722z"/><path opacity=".4" fill="#58585A" d="M1066.576 716.722v212.666l213.277-106.666z"/><path opacity=".35" fill="#58585A" d="M1279.853 822.722V610.055l-213.277 106.667z"/><path opacity=".35" fill="#58585A" d="M1279.816 822.722V610.055l213.277 106.667z"/><path opacity=".45" fill="#58585A" d="M1493.093 716.722v212.666l-213.277-106.666z"/><path opacity=".5" fill="#58585A" d="M1493.107 716.722v212.666l213.277-106.666z"/><path opacity=".25" fill="#58585A" d="M1706.384 822.722V610.055l-213.277 106.667z"/><path opacity=".3" fill="#58585A" d="M1706.394 822.722V610.055l213.277 106.667z"/><path opacity=".68" fill="#58585A" d="M1919.671 716.722v212.666l-213.277-106.666z"/><path opacity=".4" fill="#58585A" d="M.065 1035.388V822.722l213.277 106.666z"/><path opacity=".35" fill="#58585A" d="M213.342 929.388v212.667L.065 1035.388z"/><path opacity=".45" fill="#58585A" d="M213.357 929.388v212.667l213.277-106.667z"/><path opacity=".39" fill="#58585A" d="M426.634 1035.388V822.722L213.357 929.388z"/><path opacity=".45" fill="#58585A" d="M426.627 1035.388V822.722l213.277 106.666z"/><path opacity=".35" fill="#58585A" d="M639.904 929.388v212.667l-213.277-106.667z"/><path opacity=".25" fill="#58585A" d="M640.027 929.388v212.667l213.277-106.667z"/><path opacity=".38" fill="#58585A" d="M853.304 1035.388V822.722L640.027 929.388z"/><path opacity=".42" fill="#58585A" d="M853.296 1035.388V822.722l213.277 106.666z"/><path opacity=".35" fill="#58585A" d="M1066.573 929.388v212.667l-213.277-106.667z"/><path opacity=".33" fill="#58585A" d="M1066.576 929.388v212.667l213.277-106.667z"/><path opacity=".45" fill="#58585A" d="M1279.853 1035.388V822.722l-213.277 106.666z"/><path opacity=".5" fill="#58585A" d="M1279.816 1035.388V822.722l213.277 106.666z"/><path opacity=".55" fill="#58585A" d="M1493.093 929.388v212.667l-213.277-106.667z"/><path opacity=".6" fill="#58585A" d="M1493.107 929.388v212.667l213.277-106.667z"/><path opacity=".7" fill="#58585A" d="M1706.384 1035.388V822.722l-213.277 106.666z"/><path opacity=".8" fill="#58585A" d="M1706.394 1035.388V822.722l213.277 106.666z"/><path opacity=".68" fill="#58585A" d="M1919.671 929.388v212.667l-213.277-106.667z"/><path opacity=".25" fill="#58585A" d="M.065 1248.055v-212.667l213.277 106.667z"/><path opacity=".1" fill="#58585A" d="M213.342 1142.055v212.667L.065 1248.055z"/><path opacity=".08" fill="#58585A" d="M213.357 1142.055v212.667l213.277-106.667z"/><path opacity=".25" fill="#58585A" d="M426.634 1248.055v-212.667l-213.277 106.667z"/><path opacity=".23" fill="#58585A" d="M426.627 1248.055v-212.667l213.277 106.667z"/><path opacity=".1" fill="#58585A" d="M639.904 1142.055v212.667l-213.277-106.667z"/><path opacity=".09" fill="#58585A" d="M640.027 1142.055v212.667l213.277-106.667z"/><path opacity=".13" fill="#58585A" d="M853.304 1248.055v-212.667l-213.277 106.667z"/><path opacity=".25" fill="#58585A" d="M853.296 1248.055v-212.667l213.277 106.667z"/><path opacity=".15" fill="#58585A" d="M1066.573 1142.055v212.667l-213.277-106.667z"/><path opacity=".2" fill="#58585A" d="M1066.576 1142.055v212.667l213.277-106.667z"/><path opacity=".3" fill="#58585A" d="M1279.853 1248.055v-212.667l-213.277 106.667z"/><path opacity=".3" fill="#58585A" d="M1279.816 1248.055v-212.667l213.277 106.667z"/><path opacity=".23" fill="#58585A" d="M1493.093 1142.055v212.667l-213.277-106.667z"/><path opacity=".18" fill="#58585A" d="M1493.107 1142.055v212.667l213.277-106.667z"/><path opacity=".3" fill="#58585A" d="M1706.384 1248.055v-212.667l-213.277 106.667z"/><path opacity=".35" fill="#58585A" d="M1706.394 1248.055v-212.667l213.277 106.667z"/><path opacity=".25" fill="#58585A" d="M1919.671 1142.055v212.667l-213.277-106.667z"/><path opacity=".08" fill="#58585A" d="M.065 1460.722v-212.667l213.277 106.667z"/><path opacity=".1" fill="#58585A" d="M426.634 1460.722v-212.667l-213.277 106.667z"/><path opacity=".02" fill="#58585A" d="M426.627 1460.722v-212.667l213.277 106.667z"/><path opacity=".03" fill="#58585A" d="M853.304 1460.722v-212.667l-213.277 106.667z"/><path opacity=".08" fill="#58585A" d="M853.296 1460.722v-212.667l213.277 106.667z"/><path opacity=".05" fill="#58585A" d="M1279.853 1460.722v-212.667l-213.277 106.667z"/><path opacity=".1" fill="#58585A" d="M1279.816 1460.722v-212.667l213.277 106.667z"/><path opacity=".12" fill="#58585A" d="M1706.384 1460.722v-212.667l-213.277 106.667z"/><path opacity=".17" fill="#58585A" d="M1706.394 1460.722v-212.667l213.277 106.667z"/><path opacity=".05" fill="#58585A" d="M1919.671 1461.055v-106.333l-213.277 106 .666.333z"/><path opacity=".15" fill="#58585A" d="M1705.718 1461.055l.666-.333-213.277-106v106.333z"/><path opacity=".08" fill="#58585A" d="M1493.093 1461.055v-106.333l-213.277 106 .667.333z"/><path opacity=".1" fill="#58585A" d="M1279.186 1461.055l.667-.333-213.277-106v106.333z"/><path opacity=".05" fill="#58585A" d="M1066.573 1461.055v-106.333l-213.277 106 .667.333z"/><path opacity=".07" fill="#58585A" d="M852.638 1461.055l.666-.333-213.277-106v106.333z"/><path opacity=".04" fill="#58585A" d="M639.904 1461.055v-106.333l-213.277 106 .667.333z"/><path opacity=".05" fill="#58585A" d="M425.968 1461.055l.666-.333-213.277-106v106.333z"/><path opacity=".03" fill="#58585A" d="M213.342 1461.055v-106.333l-213.277 106 .667.333z"/></svg>