<svg xmlns="http://www.w3.org/2000/svg" viewBox="0 0 1920 700"><path fill="#AD005F" d="M-.013 0H1920v700H-.013z"/><g fill="#262626"><path opacity=".1" d="M0 487.287V274.573l213.324 106.69z"/><path opacity=".15" d="M213.324 381.263v212.714L0 487.287z"/><path opacity=".2" d="M213.339 381.263v212.714l213.324-106.69z"/><path opacity=".15" d="M426.663 487.287V274.573l-213.324 106.69z"/><path opacity=".11" d="M426.656 487.287V274.573l213.323 106.69z"/><path opacity=".18" d="M639.979 381.263v212.714l-213.323-106.69z"/><path opacity=".25" d="M640.103 381.263v212.714l213.324-106.69z"/><path opacity=".2" d="M853.427 487.287V274.573l-213.324 106.69z"/><path opacity=".17" d="M853.419 487.287V274.573l213.323 106.69z"/><path opacity=".25" d="M1066.742 381.263v212.714l-213.323-106.69z"/><path opacity=".3" d="M1066.745 381.263v212.714l213.324-106.69z"/><path opacity=".2" d="M1280.069 487.287V274.573l-213.324 106.69z"/><path opacity=".25" d="M1280.032 487.287V274.573l213.324 106.69z"/><path opacity=".3" d="M1493.356 381.263v212.714l-213.324-106.69z"/><path opacity=".2" d="M1493.37 381.263v212.714l213.324-106.69z"/><path opacity=".15" d="M1706.694 487.287V274.573l-213.324 106.69z"/><path opacity=".1" d="M1706.703 487.287V274.573l213.324 106.69z"/><path opacity=".15" d="M1920.027 381.263v212.714l-213.324-106.69z"/><path opacity=".03" d="M213.324 168.55v212.713L0 274.573z"/><path opacity=".05" d="M213.339 168.55v212.713l213.324-106.69z"/><path opacity=".05" d="M639.979 168.55v212.713l-213.323-106.69z"/><path opacity=".1" d="M640.103 168.55v212.713l213.324-106.69z"/><path opacity=".07" d="M1066.742 168.55v212.713l-213.323-106.69z"/><path opacity=".12" d="M1066.745 168.55v212.713l213.324-106.69z"/><path opacity=".05" d="M1493.356 168.55v212.713l-213.324-106.69z"/><path opacity=".1" d="M1493.37 168.55v212.713l213.324-106.69z"/><path opacity=".05" d="M1920.027 168.55v212.713l-213.324-106.69z"/><path opacity=".3" d="M0 700V487.287l213.324 106.69z"/><path opacity=".25" d="M426.663 700V487.287l-213.324 106.69z"/><path opacity=".35" d="M426.656 700V487.287l213.323 106.69zM853.427 700V487.287l-213.324 106.69z"/><path opacity=".5" d="M853.419 700V487.287l213.323 106.69z"/><path opacity=".35" d="M1280.069 700V487.287l-213.324 106.69z"/><path opacity=".35" d="M1280.032 700V487.287l213.324 106.69z"/><path opacity=".25" d="M1706.694 700V487.287l-213.324 106.69z"/><path opacity=".3" d="M1706.703 700V487.287l213.324 106.69z"/><path opacity=".68" d="M1920.027 593.977L1706.703 700h213.324z"/><path opacity=".5" d="M1706.694 700L1493.37 593.977V700z"/><path opacity=".45" d="M1493.356 593.977L1280.032 700h213.324z"/><path opacity=".4" d="M1280.069 700l-213.324-106.023V700z"/><path opacity=".45" d="M1066.742 593.977L853.419 700h213.323z"/><path opacity=".45" d="M853.427 700L640.103 593.977V700z"/><path opacity=".4" d="M639.979 593.977L426.656 700h213.323z"/><path opacity=".43" d="M426.663 700L213.339 593.977V700z"/><path opacity=".49" d="M213.324 593.977L0 700h213.324z"/></g></svg>