<svg xmlns="http://www.w3.org/2000/svg" viewBox="0 0 1919.736 1706"><linearGradient id="a" gradientUnits="userSpaceOnUse" x1="-26.217" y1="505.755" x2="133.421" y2="346.116"><stop offset="0" stop-color="#00947e"/><stop offset="1" stop-color="#00947e"/></linearGradient><path opacity=".1" fill="url(#a)" d="M.13 532.102V319.436l213.277 106.666z"/><linearGradient id="b" gradientUnits="userSpaceOnUse" x1="80.116" y1="612.088" x2="239.755" y2="452.45"><stop offset="0" stop-color="#00947e"/><stop offset="1" stop-color="#00947e"/></linearGradient><path opacity=".15" fill="url(#b)" d="M213.407 426.102v212.667L.13 532.102z"/><linearGradient id="c" gradientUnits="userSpaceOnUse" x1="186.908" y1="612.255" x2="346.88" y2="452.283"><stop offset="0" stop-color="#00947e"/><stop offset="1" stop-color="#00947e"/></linearGradient><path opacity=".2" fill="url(#c)" d="M213.422 426.102v212.667l213.277-106.667z"/><linearGradient id="d" gradientUnits="userSpaceOnUse" x1="293.242" y1="505.922" x2="453.213" y2="345.95"><stop offset="0" stop-color="#00947e"/><stop offset="1" stop-color="#00947e"/></linearGradient><path opacity=".15" fill="url(#d)" d="M426.699 532.102V319.436L213.422 426.102z"/><linearGradient id="e" gradientUnits="userSpaceOnUse" x1="400.345" y1="505.755" x2="559.983" y2="346.116"><stop offset="0" stop-color="#00947e"/><stop offset="1" stop-color="#00947e"/></linearGradient><path opacity=".11" fill="url(#e)" d="M426.692 532.102V319.436l213.277 106.666z"/><linearGradient id="f" gradientUnits="userSpaceOnUse" x1="506.678" y1="612.088" x2="666.317" y2="452.45"><stop offset="0" stop-color="#00947e"/><stop offset="1" stop-color="#00947e"/></linearGradient><path opacity=".18" fill="url(#f)" d="M639.969 426.102v212.667L426.692 532.102z"/><linearGradient id="g" gradientUnits="userSpaceOnUse" x1="613.578" y1="612.255" x2="773.55" y2="452.283"><stop offset="0" stop-color="#00947e"/><stop offset="1" stop-color="#00947e"/></linearGradient><path opacity=".25" fill="url(#g)" d="M640.093 426.102v212.667l213.276-106.667z"/><linearGradient id="h" gradientUnits="userSpaceOnUse" x1="719.912" y1="505.922" x2="879.884" y2="345.95"><stop offset="0" stop-color="#00947e"/><stop offset="1" stop-color="#00947e"/></linearGradient><path opacity=".2" fill="url(#h)" d="M853.369 532.102V319.436L640.093 426.102z"/><linearGradient id="i" gradientUnits="userSpaceOnUse" x1="827.014" y1="505.755" x2="986.653" y2="346.116"><stop offset="0" stop-color="#00947e"/><stop offset="1" stop-color="#00947e"/></linearGradient><path opacity=".17" fill="url(#i)" d="M853.362 532.102V319.436l213.276 106.666z"/><linearGradient id="j" gradientUnits="userSpaceOnUse" x1="933.347" y1="612.088" x2="1092.986" y2="452.45"><stop offset="0" stop-color="#00947e"/><stop offset="1" stop-color="#00947e"/></linearGradient><path opacity=".25" fill="url(#j)" d="M1066.638 426.102v212.667L853.362 532.102z"/><linearGradient id="k" gradientUnits="userSpaceOnUse" x1="1040.127" y1="612.255" x2="1200.099" y2="452.283"><stop offset="0" stop-color="#00947e"/><stop offset="1" stop-color="#00947e"/></linearGradient><path opacity=".3" fill="url(#k)" d="M1066.641 426.102v212.667l213.277-106.667z"/><linearGradient id="l" gradientUnits="userSpaceOnUse" x1="1146.46" y1="505.922" x2="1306.432" y2="345.95"><stop offset="0" stop-color="#00947e"/><stop offset="1" stop-color="#00947e"/></linearGradient><path opacity=".2" fill="url(#l)" d="M1279.918 532.102V319.436l-213.277 106.666z"/><linearGradient id="m" gradientUnits="userSpaceOnUse" x1="1253.534" y1="505.755" x2="1413.172" y2="346.116"><stop offset="0" stop-color="#00947e"/><stop offset="1" stop-color="#00947e"/></linearGradient><path opacity=".25" fill="url(#m)" d="M1279.881 532.102V319.436l213.277 106.666z"/><linearGradient id="n" gradientUnits="userSpaceOnUse" x1="1359.867" y1="612.088" x2="1519.506" y2="452.45"><stop offset="0" stop-color="#00947e"/><stop offset="1" stop-color="#00947e"/></linearGradient><path opacity=".3" fill="url(#n)" d="M1493.158 426.102v212.667l-213.277-106.667z"/><linearGradient id="o" gradientUnits="userSpaceOnUse" x1="1466.658" y1="612.255" x2="1626.63" y2="452.283"><stop offset="0" stop-color="#00947e"/><stop offset="1" stop-color="#00947e"/></linearGradient><path opacity=".2" fill="url(#o)" d="M1493.172 426.102v212.667l213.277-106.667z"/><linearGradient id="p" gradientUnits="userSpaceOnUse" x1="1572.992" y1="505.922" x2="1732.963" y2="345.95"><stop offset="0" stop-color="#00947e"/><stop offset="1" stop-color="#00947e"/></linearGradient><path opacity=".15" fill="url(#p)" d="M1706.449 532.102V319.436l-213.277 106.666z"/><linearGradient id="q" gradientUnits="userSpaceOnUse" x1="1680.111" y1="505.755" x2="1839.75" y2="346.116"><stop offset="0" stop-color="#00947e"/><stop offset="1" stop-color="#00947e"/></linearGradient><path opacity=".1" fill="url(#q)" d="M1706.459 532.102V319.436l213.277 106.666z"/><linearGradient id="r" gradientUnits="userSpaceOnUse" x1="1786.445" y1="612.088" x2="1946.083" y2="452.45"><stop offset="0" stop-color="#00947e"/><stop offset="1" stop-color="#00947e"/></linearGradient><path opacity=".15" fill="url(#r)" d="M1919.736 426.102v212.667l-213.277-106.667z"/><linearGradient id="s" gradientUnits="userSpaceOnUse" x1="80.116" y1="399.422" x2="239.755" y2="239.783"><stop offset="0" stop-color="#00947e"/><stop offset="1" stop-color="#00947e"/></linearGradient><path opacity=".03" fill="url(#s)" d="M213.407 213.436v212.666L.13 319.436z"/><linearGradient id="t" gradientUnits="userSpaceOnUse" x1="186.908" y1="399.588" x2="346.88" y2="239.617"><stop offset="0" stop-color="#00947e"/><stop offset="1" stop-color="#00947e"/></linearGradient><path opacity=".05" fill="url(#t)" d="M213.422 213.436v212.666l213.277-106.666z"/><linearGradient id="u" gradientUnits="userSpaceOnUse" x1="506.678" y1="399.422" x2="666.317" y2="239.783"><stop offset="0" stop-color="#00947e"/><stop offset="1" stop-color="#00947e"/></linearGradient><path opacity=".05" fill="url(#u)" d="M639.969 213.436v212.666L426.692 319.436z"/><linearGradient id="v" gradientUnits="userSpaceOnUse" x1="613.578" y1="399.588" x2="773.55" y2="239.617"><stop offset="0" stop-color="#00947e"/><stop offset="1" stop-color="#00947e"/></linearGradient><path opacity=".1" fill="url(#v)" d="M640.093 213.436v212.666l213.276-106.666z"/><linearGradient id="w" gradientUnits="userSpaceOnUse" x1="933.347" y1="399.422" x2="1092.986" y2="239.783"><stop offset="0" stop-color="#00947e"/><stop offset="1" stop-color="#00947e"/></linearGradient><path opacity=".07" fill="url(#w)" d="M1066.638 213.436v212.666L853.362 319.436z"/><linearGradient id="x" gradientUnits="userSpaceOnUse" x1="1040.127" y1="399.588" x2="1200.099" y2="239.617"><stop offset="0" stop-color="#00947e"/><stop offset="1" stop-color="#00947e"/></linearGradient><path opacity=".12" fill="url(#x)" d="M1066.641 213.436v212.666l213.277-106.666z"/><linearGradient id="y" gradientUnits="userSpaceOnUse" x1="1359.867" y1="399.422" x2="1519.506" y2="239.783"><stop offset="0" stop-color="#00947e"/><stop offset="1" stop-color="#00947e"/></linearGradient><path opacity=".05" fill="url(#y)" d="M1493.158 213.436v212.666l-213.277-106.666z"/><linearGradient id="z" gradientUnits="userSpaceOnUse" x1="1466.658" y1="399.588" x2="1626.63" y2="239.617"><stop offset="0" stop-color="#00947e"/><stop offset="1" stop-color="#00947e"/></linearGradient><path opacity=".1" fill="url(#z)" d="M1493.172 213.436v212.666l213.277-106.666z"/><linearGradient id="A" gradientUnits="userSpaceOnUse" x1="1786.445" y1="399.422" x2="1946.083" y2="239.783"><stop offset="0" stop-color="#00947e"/><stop offset="1" stop-color="#00947e"/></linearGradient><path opacity=".05" fill="url(#A)" d="M1919.736 213.436v212.666l-213.277-106.666z"/><linearGradient id="B" gradientUnits="userSpaceOnUse" x1="-26.217" y1="718.422" x2="133.421" y2="558.783"><stop offset="0" stop-color="#00947e"/><stop offset="1" stop-color="#00947e"/></linearGradient><path opacity=".3" fill="url(#B)" d="M.13 744.769V532.102l213.277 106.667z"/><linearGradient id="C" gradientUnits="userSpaceOnUse" x1="80.116" y1="824.755" x2="239.755" y2="665.116"><stop offset="0" stop-color="#00947e"/><stop offset="1" stop-color="#00947e"/></linearGradient><path opacity=".49" fill="url(#C)" d="M213.407 638.769v212.667L.13 744.769z"/><linearGradient id="D" gradientUnits="userSpaceOnUse" x1="186.908" y1="824.922" x2="346.88" y2="664.95"><stop offset="0" stop-color="#00947e"/><stop offset="1" stop-color="#00947e"/></linearGradient><path opacity=".43" fill="url(#D)" d="M213.422 638.769v212.667l213.277-106.667z"/><linearGradient id="E" gradientUnits="userSpaceOnUse" x1="293.242" y1="718.588" x2="453.213" y2="558.616"><stop offset="0" stop-color="#00947e"/><stop offset="1" stop-color="#00947e"/></linearGradient><path opacity=".25" fill="url(#E)" d="M426.699 744.769V532.102L213.422 638.769z"/><linearGradient id="F" gradientUnits="userSpaceOnUse" x1="400.345" y1="718.422" x2="559.983" y2="558.783"><stop offset="0" stop-color="#00947e"/><stop offset="1" stop-color="#00947e"/></linearGradient><path opacity=".35" fill="url(#F)" d="M426.692 744.769V532.102l213.277 106.667z"/><linearGradient id="G" gradientUnits="userSpaceOnUse" x1="506.678" y1="824.755" x2="666.317" y2="665.116"><stop offset="0" stop-color="#00947e"/><stop offset="1" stop-color="#00947e"/></linearGradient><path opacity=".4" fill="url(#G)" d="M639.969 638.769v212.667L426.692 744.769z"/><linearGradient id="H" gradientUnits="userSpaceOnUse" x1="613.578" y1="824.922" x2="773.55" y2="664.95"><stop offset="0" stop-color="#00947e"/><stop offset="1" stop-color="#00947e"/></linearGradient><path opacity=".45" fill="url(#H)" d="M640.093 638.769v212.667l213.276-106.667z"/><linearGradient id="I" gradientUnits="userSpaceOnUse" x1="719.912" y1="718.588" x2="879.884" y2="558.616"><stop offset="0" stop-color="#00947e"/><stop offset="1" stop-color="#00947e"/></linearGradient><path opacity=".35" fill="url(#I)" d="M853.369 744.769V532.102L640.093 638.769z"/><linearGradient id="J" gradientUnits="userSpaceOnUse" x1="827.014" y1="718.422" x2="986.653" y2="558.783"><stop offset="0" stop-color="#00947e"/><stop offset="1" stop-color="#00947e"/></linearGradient><path opacity=".5" fill="url(#J)" d="M853.362 744.769V532.102l213.276 106.667z"/><linearGradient id="K" gradientUnits="userSpaceOnUse" x1="933.347" y1="824.755" x2="1092.986" y2="665.116"><stop offset="0" stop-color="#00947e"/><stop offset="1" stop-color="#00947e"/></linearGradient><path opacity=".45" fill="url(#K)" d="M1066.638 638.769v212.667L853.362 744.769z"/><linearGradient id="L" gradientUnits="userSpaceOnUse" x1="1040.127" y1="824.922" x2="1200.099" y2="664.95"><stop offset="0" stop-color="#00947e"/><stop offset="1" stop-color="#00947e"/></linearGradient><path opacity=".4" fill="url(#L)" d="M1066.641 638.769v212.667l213.277-106.667z"/><linearGradient id="M" gradientUnits="userSpaceOnUse" x1="1146.46" y1="718.588" x2="1306.432" y2="558.616"><stop offset="0" stop-color="#00947e"/><stop offset="1" stop-color="#00947e"/></linearGradient><path opacity=".35" fill="url(#M)" d="M1279.918 744.769V532.102l-213.277 106.667z"/><linearGradient id="N" gradientUnits="userSpaceOnUse" x1="1253.534" y1="718.422" x2="1413.172" y2="558.783"><stop offset="0" stop-color="#00947e"/><stop offset="1" stop-color="#00947e"/></linearGradient><path opacity=".35" fill="url(#N)" d="M1279.881 744.769V532.102l213.277 106.667z"/><linearGradient id="O" gradientUnits="userSpaceOnUse" x1="1359.867" y1="824.755" x2="1519.506" y2="665.116"><stop offset="0" stop-color="#00947e"/><stop offset="1" stop-color="#00947e"/></linearGradient><path opacity=".45" fill="url(#O)" d="M1493.158 638.769v212.667l-213.277-106.667z"/><linearGradient id="P" gradientUnits="userSpaceOnUse" x1="1466.658" y1="824.922" x2="1626.63" y2="664.95"><stop offset="0" stop-color="#00947e"/><stop offset="1" stop-color="#00947e"/></linearGradient><path opacity=".5" fill="url(#P)" d="M1493.172 638.769v212.667l213.277-106.667z"/><linearGradient id="Q" gradientUnits="userSpaceOnUse" x1="1572.992" y1="718.588" x2="1732.963" y2="558.616"><stop offset="0" stop-color="#00947e"/><stop offset="1" stop-color="#00947e"/></linearGradient><path opacity=".25" fill="url(#Q)" d="M1706.449 744.769V532.102l-213.277 106.667z"/><linearGradient id="R" gradientUnits="userSpaceOnUse" x1="1680.111" y1="718.422" x2="1839.75" y2="558.783"><stop offset="0" stop-color="#00947e"/><stop offset="1" stop-color="#00947e"/></linearGradient><path opacity=".3" fill="url(#R)" d="M1706.459 744.769V532.102l213.277 106.667z"/><linearGradient id="S" gradientUnits="userSpaceOnUse" x1="1786.445" y1="824.755" x2="1946.083" y2="665.116"><stop offset="0" stop-color="#00947e"/><stop offset="1" stop-color="#00947e"/></linearGradient><path opacity=".68" fill="url(#S)" d="M1919.736 638.769v212.667l-213.277-106.667z"/><linearGradient id="T" gradientUnits="userSpaceOnUse" x1="-26.217" y1="931.088" x2="133.421" y2="771.45"><stop offset="0" stop-color="#00947e"/><stop offset="1" stop-color="#00947e"/></linearGradient><path opacity=".4" fill="url(#T)" d="M.13 957.436V744.769l213.277 106.667z"/><linearGradient id="U" gradientUnits="userSpaceOnUse" x1="80.116" y1="1037.422" x2="239.755" y2="877.783"><stop offset="0" stop-color="#00947e"/><stop offset="1" stop-color="#00947e"/></linearGradient><path opacity=".35" fill="url(#U)" d="M213.407 851.436v212.666L.13 957.436z"/><linearGradient id="V" gradientUnits="userSpaceOnUse" x1="186.908" y1="1037.588" x2="346.88" y2="877.616"><stop offset="0" stop-color="#00947e"/><stop offset="1" stop-color="#00947e"/></linearGradient><path opacity=".45" fill="url(#V)" d="M213.422 851.436v212.666l213.277-106.666z"/><linearGradient id="W" gradientUnits="userSpaceOnUse" x1="293.242" y1="931.255" x2="453.213" y2="771.283"><stop offset="0" stop-color="#00947e"/><stop offset="1" stop-color="#00947e"/></linearGradient><path opacity=".39" fill="url(#W)" d="M426.699 957.436V744.769L213.422 851.436z"/><linearGradient id="X" gradientUnits="userSpaceOnUse" x1="400.345" y1="931.088" x2="559.983" y2="771.45"><stop offset="0" stop-color="#00947e"/><stop offset="1" stop-color="#00947e"/></linearGradient><path opacity=".45" fill="url(#X)" d="M426.692 957.436V744.769l213.277 106.667z"/><linearGradient id="Y" gradientUnits="userSpaceOnUse" x1="506.678" y1="1037.422" x2="666.317" y2="877.783"><stop offset="0" stop-color="#00947e"/><stop offset="1" stop-color="#00947e"/></linearGradient><path opacity=".35" fill="url(#Y)" d="M639.969 851.436v212.666L426.692 957.436z"/><linearGradient id="Z" gradientUnits="userSpaceOnUse" x1="613.578" y1="1037.588" x2="773.55" y2="877.616"><stop offset="0" stop-color="#00947e"/><stop offset="1" stop-color="#00947e"/></linearGradient><path opacity=".25" fill="url(#Z)" d="M640.093 851.436v212.666l213.276-106.666z"/><linearGradient id="aa" gradientUnits="userSpaceOnUse" x1="719.912" y1="931.255" x2="879.884" y2="771.283"><stop offset="0" stop-color="#00947e"/><stop offset="1" stop-color="#00947e"/></linearGradient><path opacity=".38" fill="url(#aa)" d="M853.369 957.436V744.769L640.093 851.436z"/><linearGradient id="ab" gradientUnits="userSpaceOnUse" x1="827.014" y1="931.088" x2="986.653" y2="771.45"><stop offset="0" stop-color="#00947e"/><stop offset="1" stop-color="#00947e"/></linearGradient><path opacity=".42" fill="url(#ab)" d="M853.362 957.436V744.769l213.276 106.667z"/><linearGradient id="ac" gradientUnits="userSpaceOnUse" x1="933.347" y1="1037.422" x2="1092.986" y2="877.783"><stop offset="0" stop-color="#00947e"/><stop offset="1" stop-color="#00947e"/></linearGradient><path opacity=".35" fill="url(#ac)" d="M1066.638 851.436v212.666L853.362 957.436z"/><linearGradient id="ad" gradientUnits="userSpaceOnUse" x1="1040.127" y1="1037.588" x2="1200.099" y2="877.616"><stop offset="0" stop-color="#00947e"/><stop offset="1" stop-color="#00947e"/></linearGradient><path opacity=".33" fill="url(#ad)" d="M1066.641 851.436v212.666l213.277-106.666z"/><linearGradient id="ae" gradientUnits="userSpaceOnUse" x1="1146.46" y1="931.255" x2="1306.432" y2="771.283"><stop offset="0" stop-color="#00947e"/><stop offset="1" stop-color="#00947e"/></linearGradient><path opacity=".45" fill="url(#ae)" d="M1279.918 957.436V744.769l-213.277 106.667z"/><linearGradient id="af" gradientUnits="userSpaceOnUse" x1="1253.534" y1="931.088" x2="1413.172" y2="771.45"><stop offset="0" stop-color="#00947e"/><stop offset="1" stop-color="#00947e"/></linearGradient><path opacity=".5" fill="url(#af)" d="M1279.881 957.436V744.769l213.277 106.667z"/><linearGradient id="ag" gradientUnits="userSpaceOnUse" x1="1359.867" y1="1037.422" x2="1519.506" y2="877.783"><stop offset="0" stop-color="#00947e"/><stop offset="1" stop-color="#00947e"/></linearGradient><path opacity=".55" fill="url(#ag)" d="M1493.158 851.436v212.666l-213.277-106.666z"/><linearGradient id="ah" gradientUnits="userSpaceOnUse" x1="1466.658" y1="1037.588" x2="1626.63" y2="877.616"><stop offset="0" stop-color="#00947e"/><stop offset="1" stop-color="#00947e"/></linearGradient><path opacity=".6" fill="url(#ah)" d="M1493.172 851.436v212.666l213.277-106.666z"/><linearGradient id="ai" gradientUnits="userSpaceOnUse" x1="1572.992" y1="931.255" x2="1732.963" y2="771.283"><stop offset="0" stop-color="#00947e"/><stop offset="1" stop-color="#00947e"/></linearGradient><path opacity=".7" fill="url(#ai)" d="M1706.449 957.436V744.769l-213.277 106.667z"/><linearGradient id="aj" gradientUnits="userSpaceOnUse" x1="1680.111" y1="931.088" x2="1839.75" y2="771.45"><stop offset="0" stop-color="#00947e"/><stop offset="1" stop-color="#00947e"/></linearGradient><path opacity=".8" fill="url(#aj)" d="M1706.459 957.436V744.769l213.277 106.667z"/><linearGradient id="ak" gradientUnits="userSpaceOnUse" x1="1786.445" y1="1037.422" x2="1946.083" y2="877.783"><stop offset="0" stop-color="#00947e"/><stop offset="1" stop-color="#00947e"/></linearGradient><path opacity=".68" fill="url(#ak)" d="M1919.736 851.436v212.666l-213.277-106.666z"/><linearGradient id="al" gradientUnits="userSpaceOnUse" x1="-26.217" y1="1143.755" x2="133.421" y2="984.116"><stop offset="0" stop-color="#00947e"/><stop offset="1" stop-color="#00947e"/></linearGradient><path opacity=".25" fill="url(#al)" d="M.13 1170.102V957.436l213.277 106.666z"/><linearGradient id="am" gradientUnits="userSpaceOnUse" x1="80.116" y1="1250.088" x2="239.755" y2="1090.45"><stop offset="0" stop-color="#00947e"/><stop offset="1" stop-color="#00947e"/></linearGradient><path opacity=".1" fill="url(#am)" d="M213.407 1064.102v212.667L.13 1170.102z"/><linearGradient id="an" gradientUnits="userSpaceOnUse" x1="186.908" y1="1250.255" x2="346.88" y2="1090.283"><stop offset="0" stop-color="#00947e"/><stop offset="1" stop-color="#00947e"/></linearGradient><path opacity=".08" fill="url(#an)" d="M213.422 1064.102v212.667l213.277-106.667z"/><linearGradient id="ao" gradientUnits="userSpaceOnUse" x1="293.242" y1="1143.922" x2="453.213" y2="983.95"><stop offset="0" stop-color="#00947e"/><stop offset="1" stop-color="#00947e"/></linearGradient><path opacity=".25" fill="url(#ao)" d="M426.699 1170.102V957.436l-213.277 106.666z"/><linearGradient id="ap" gradientUnits="userSpaceOnUse" x1="400.345" y1="1143.755" x2="559.983" y2="984.116"><stop offset="0" stop-color="#00947e"/><stop offset="1" stop-color="#00947e"/></linearGradient><path opacity=".23" fill="url(#ap)" d="M426.692 1170.102V957.436l213.277 106.666z"/><linearGradient id="aq" gradientUnits="userSpaceOnUse" x1="506.678" y1="1250.088" x2="666.317" y2="1090.45"><stop offset="0" stop-color="#00947e"/><stop offset="1" stop-color="#00947e"/></linearGradient><path opacity=".1" fill="url(#aq)" d="M639.969 1064.102v212.667l-213.277-106.667z"/><linearGradient id="ar" gradientUnits="userSpaceOnUse" x1="613.578" y1="1250.255" x2="773.55" y2="1090.283"><stop offset="0" stop-color="#00947e"/><stop offset="1" stop-color="#00947e"/></linearGradient><path opacity=".09" fill="url(#ar)" d="M640.093 1064.102v212.667l213.276-106.667z"/><linearGradient id="as" gradientUnits="userSpaceOnUse" x1="719.912" y1="1143.922" x2="879.884" y2="983.95"><stop offset="0" stop-color="#00947e"/><stop offset="1" stop-color="#00947e"/></linearGradient><path opacity=".13" fill="url(#as)" d="M853.369 1170.102V957.436l-213.276 106.666z"/><linearGradient id="at" gradientUnits="userSpaceOnUse" x1="827.014" y1="1143.755" x2="986.653" y2="984.116"><stop offset="0" stop-color="#00947e"/><stop offset="1" stop-color="#00947e"/></linearGradient><path opacity=".25" fill="url(#at)" d="M853.362 1170.102V957.436l213.276 106.666z"/><linearGradient id="au" gradientUnits="userSpaceOnUse" x1="933.347" y1="1250.088" x2="1092.986" y2="1090.45"><stop offset="0" stop-color="#00947e"/><stop offset="1" stop-color="#00947e"/></linearGradient><path opacity=".15" fill="url(#au)" d="M1066.638 1064.102v212.667l-213.276-106.667z"/><linearGradient id="av" gradientUnits="userSpaceOnUse" x1="1040.127" y1="1250.255" x2="1200.099" y2="1090.283"><stop offset="0" stop-color="#00947e"/><stop offset="1" stop-color="#00947e"/></linearGradient><path opacity=".2" fill="url(#av)" d="M1066.641 1064.102v212.667l213.277-106.667z"/><linearGradient id="aw" gradientUnits="userSpaceOnUse" x1="1146.46" y1="1143.922" x2="1306.432" y2="983.95"><stop offset="0" stop-color="#00947e"/><stop offset="1" stop-color="#00947e"/></linearGradient><path opacity=".3" fill="url(#aw)" d="M1279.918 1170.102V957.436l-213.277 106.666z"/><linearGradient id="ax" gradientUnits="userSpaceOnUse" x1="1253.534" y1="1143.755" x2="1413.172" y2="984.116"><stop offset="0" stop-color="#00947e"/><stop offset="1" stop-color="#00947e"/></linearGradient><path opacity=".3" fill="url(#ax)" d="M1279.881 1170.102V957.436l213.277 106.666z"/><linearGradient id="ay" gradientUnits="userSpaceOnUse" x1="1359.867" y1="1250.088" x2="1519.506" y2="1090.45"><stop offset="0" stop-color="#00947e"/><stop offset="1" stop-color="#00947e"/></linearGradient><path opacity=".23" fill="url(#ay)" d="M1493.158 1064.102v212.667l-213.277-106.667z"/><linearGradient id="az" gradientUnits="userSpaceOnUse" x1="1466.658" y1="1250.255" x2="1626.63" y2="1090.283"><stop offset="0" stop-color="#00947e"/><stop offset="1" stop-color="#00947e"/></linearGradient><path opacity=".18" fill="url(#az)" d="M1493.172 1064.102v212.667l213.277-106.667z"/><linearGradient id="aA" gradientUnits="userSpaceOnUse" x1="1572.992" y1="1143.922" x2="1732.963" y2="983.95"><stop offset="0" stop-color="#00947e"/><stop offset="1" stop-color="#00947e"/></linearGradient><path opacity=".3" fill="url(#aA)" d="M1706.449 1170.102V957.436l-213.277 106.666z"/><linearGradient id="aB" gradientUnits="userSpaceOnUse" x1="1680.111" y1="1143.755" x2="1839.75" y2="984.116"><stop offset="0" stop-color="#00947e"/><stop offset="1" stop-color="#00947e"/></linearGradient><path opacity=".35" fill="url(#aB)" d="M1706.459 1170.102V957.436l213.277 106.666z"/><linearGradient id="aC" gradientUnits="userSpaceOnUse" x1="1786.445" y1="1250.088" x2="1946.083" y2="1090.45"><stop offset="0" stop-color="#00947e"/><stop offset="1" stop-color="#00947e"/></linearGradient><path opacity=".25" fill="url(#aC)" d="M1919.736 1064.102v212.667l-213.277-106.667z"/><linearGradient id="aD" gradientUnits="userSpaceOnUse" x1="-26.217" y1="1356.422" x2="133.421" y2="1196.783"><stop offset="0" stop-color="#00947e"/><stop offset="1" stop-color="#00947e"/></linearGradient><path opacity=".08" fill="url(#aD)" d="M.13 1382.769v-212.667l213.277 106.667z"/><linearGradient id="aE" gradientUnits="userSpaceOnUse" x1="80.116" y1="1462.755" x2="239.755" y2="1303.117"><stop offset="0" stop-color="#00947e"/><stop offset="1" stop-color="#00947e"/></linearGradient><path opacity=".03" fill="url(#aE)" d="M213.407 1276.769v212.667L.13 1382.769z"/><linearGradient id="aF" gradientUnits="userSpaceOnUse" x1="186.908" y1="1462.922" x2="346.88" y2="1302.95"><stop offset="0" stop-color="#00947e"/><stop offset="1" stop-color="#00947e"/></linearGradient><path opacity=".05" fill="url(#aF)" d="M213.422 1276.769v212.667l213.277-106.667z"/><linearGradient id="aG" gradientUnits="userSpaceOnUse" x1="293.242" y1="1356.588" x2="453.213" y2="1196.617"><stop offset="0" stop-color="#00947e"/><stop offset="1" stop-color="#00947e"/></linearGradient><path opacity=".1" fill="url(#aG)" d="M426.699 1382.769v-212.667l-213.277 106.667z"/><linearGradient id="aH" gradientUnits="userSpaceOnUse" x1="400.345" y1="1356.422" x2="559.983" y2="1196.783"><stop offset="0" stop-color="#00947e"/><stop offset="1" stop-color="#00947e"/></linearGradient><path opacity=".02" fill="url(#aH)" d="M426.692 1382.769v-212.667l213.277 106.667z"/><linearGradient id="aI" gradientUnits="userSpaceOnUse" x1="506.678" y1="1462.755" x2="666.317" y2="1303.117"><stop offset="0" stop-color="#00947e"/><stop offset="1" stop-color="#00947e"/></linearGradient><path opacity=".04" fill="url(#aI)" d="M639.969 1276.769v212.667l-213.277-106.667z"/><linearGradient id="aJ" gradientUnits="userSpaceOnUse" x1="613.578" y1="1462.922" x2="773.55" y2="1302.95"><stop offset="0" stop-color="#00947e"/><stop offset="1" stop-color="#00947e"/></linearGradient><path opacity=".07" fill="url(#aJ)" d="M640.093 1276.769v212.667l213.276-106.667z"/><linearGradient id="aK" gradientUnits="userSpaceOnUse" x1="719.912" y1="1356.588" x2="879.884" y2="1196.617"><stop offset="0" stop-color="#00947e"/><stop offset="1" stop-color="#00947e"/></linearGradient><path opacity=".03" fill="url(#aK)" d="M853.369 1382.769v-212.667l-213.276 106.667z"/><linearGradient id="aL" gradientUnits="userSpaceOnUse" x1="827.014" y1="1356.422" x2="986.653" y2="1196.783"><stop offset="0" stop-color="#00947e"/><stop offset="1" stop-color="#00947e"/></linearGradient><path opacity=".08" fill="url(#aL)" d="M853.362 1382.769v-212.667l213.276 106.667z"/><linearGradient id="aM" gradientUnits="userSpaceOnUse" x1="933.347" y1="1462.755" x2="1092.986" y2="1303.117"><stop offset="0" stop-color="#00947e"/><stop offset="1" stop-color="#00947e"/></linearGradient><path opacity=".05" fill="url(#aM)" d="M1066.638 1276.769v212.667l-213.276-106.667z"/><linearGradient id="aN" gradientUnits="userSpaceOnUse" x1="1040.127" y1="1462.922" x2="1200.099" y2="1302.95"><stop offset="0" stop-color="#00947e"/><stop offset="1" stop-color="#00947e"/></linearGradient><path opacity=".1" fill="url(#aN)" d="M1066.641 1276.769v212.667l213.277-106.667z"/><linearGradient id="aO" gradientUnits="userSpaceOnUse" x1="1146.46" y1="1356.588" x2="1306.432" y2="1196.617"><stop offset="0" stop-color="#00947e"/><stop offset="1" stop-color="#00947e"/></linearGradient><path opacity=".05" fill="url(#aO)" d="M1279.918 1382.769v-212.667l-213.277 106.667z"/><linearGradient id="aP" gradientUnits="userSpaceOnUse" x1="1253.534" y1="1356.422" x2="1413.172" y2="1196.783"><stop offset="0" stop-color="#00947e"/><stop offset="1" stop-color="#00947e"/></linearGradient><path opacity=".1" fill="url(#aP)" d="M1279.881 1382.769v-212.667l213.277 106.667z"/><linearGradient id="aQ" gradientUnits="userSpaceOnUse" x1="1359.867" y1="1462.755" x2="1519.506" y2="1303.117"><stop offset="0" stop-color="#00947e"/><stop offset="1" stop-color="#00947e"/></linearGradient><path opacity=".08" fill="url(#aQ)" d="M1493.158 1276.769v212.667l-213.277-106.667z"/><linearGradient id="aR" gradientUnits="userSpaceOnUse" x1="1466.658" y1="1462.922" x2="1626.63" y2="1302.95"><stop offset="0" stop-color="#00947e"/><stop offset="1" stop-color="#00947e"/></linearGradient><path opacity=".15" fill="url(#aR)" d="M1493.172 1276.769v212.667l213.277-106.667z"/><linearGradient id="aS" gradientUnits="userSpaceOnUse" x1="1572.992" y1="1356.588" x2="1732.963" y2="1196.617"><stop offset="0" stop-color="#00947e"/><stop offset="1" stop-color="#00947e"/></linearGradient><path opacity=".12" fill="url(#aS)" d="M1706.449 1382.769v-212.667l-213.277 106.667z"/><linearGradient id="aT" gradientUnits="userSpaceOnUse" x1="1680.111" y1="1356.422" x2="1839.75" y2="1196.783"><stop offset="0" stop-color="#00947e"/><stop offset="1" stop-color="#00947e"/></linearGradient><path opacity=".17" fill="url(#aT)" d="M1706.459 1382.769v-212.667l213.277 106.667z"/><linearGradient id="aU" gradientUnits="userSpaceOnUse" x1="1786.445" y1="1462.755" x2="1946.083" y2="1303.117"><stop offset="0" stop-color="#00947e"/><stop offset="1" stop-color="#00947e"/></linearGradient><path opacity=".05" fill="url(#aU)" d="M1919.736 1276.769v212.667l-213.277-106.667z"/></svg>