<svg xmlns="http://www.w3.org/2000/svg" viewBox="0 0 1920 700"><path fill="#EA690B" d="M-.013 0H1920v700H-.013z"/><g fill="#E20303"><path opacity=".1" d="M1919.993 487.29V274.579l-213.321 106.689z"/><path opacity=".15" d="M1706.672 381.268v212.71l213.321-106.688z"/><path opacity=".2" d="M1706.657 381.268v212.71l-213.32-106.688z"/><path opacity=".15" d="M1493.337 487.29V274.579l213.32 106.689z"/><path opacity=".11" d="M1493.344 487.29V274.579l-213.321 106.689z"/><path opacity=".3" d="M1280.023 381.268v212.71l213.321-106.688z"/><path opacity=".25" d="M1279.9 381.268v212.71L1066.579 487.29z"/><path opacity=".2" d="M1066.579 487.29V274.579L1279.9 381.268z"/><path opacity=".17" d="M1066.587 487.29V274.579L853.266 381.268z"/><path opacity=".25" d="M853.266 381.268v212.71l213.321-106.688z"/><path opacity=".3" d="M853.263 381.268v212.71L639.943 487.29z"/><path opacity=".2" d="M639.943 487.29V274.579l213.32 106.689z"/><path opacity=".25" d="M639.979 487.29V274.579l-213.32 106.689z"/><path opacity=".3" d="M426.659 381.268v212.71l213.32-106.688z"/><path opacity=".2" d="M426.644 381.268v212.71L213.324 487.29z"/><path opacity=".15" d="M213.324 487.29V274.579l213.32 106.689z"/><path opacity=".1" d="M213.314 487.29V274.579L-.007 381.268z"/><path opacity=".15" d="M-.007 381.268v212.71L213.314 487.29z"/><path opacity=".03" d="M1706.672 168.557v212.711l213.321-106.689z"/><path opacity=".05" d="M1706.657 168.557v212.711l-213.32-106.689z"/><path opacity=".05" d="M1280.023 168.557v212.711l213.321-106.689z"/><path opacity=".1" d="M1279.9 168.557v212.711l-213.321-106.689z"/><path opacity=".07" d="M853.266 168.557v212.711l213.321-106.689z"/><path opacity=".12" d="M853.263 168.557v212.711l-213.32-106.689z"/><path opacity=".05" d="M426.659 168.557v212.711l213.32-106.689z"/><path opacity=".1" d="M426.644 168.557v212.711l-213.32-106.689z"/><path opacity=".05" d="M-.007 168.557v212.711l213.321-106.689z"/><path opacity=".3" d="M1919.993 700V487.29l-213.321 106.688z"/><path opacity=".4" d="M1493.337 700V487.29l213.32 106.688z"/><path opacity=".6" d="M1493.344 700V487.29l-213.321 106.688z"/><path opacity=".5" d="M1066.579 700V487.29L1279.9 593.978z"/><path opacity=".7" d="M1066.587 700V487.29L853.266 593.978z"/><path opacity=".5" d="M639.943 700V487.29l213.32 106.688z"/><path opacity=".5" d="M639.979 700V487.29l-213.32 106.688zM213.324 700V487.29l213.32 106.688z"/><path opacity=".3" d="M213.314 700V487.29L-.007 593.978z"/><path opacity=".9" d="M-.007 593.978L213.314 700H-.007z"/><path opacity=".8" d="M213.324 700l213.32-106.022V700z"/><path opacity=".7" d="M426.658 593.978L639.979 700H426.658z"/><path opacity=".7" d="M639.943 700l213.32-106.022V700z"/><path opacity=".6" d="M853.266 593.978L1066.587 700H853.266z"/><path opacity=".7" d="M1066.579 700L1279.9 593.978V700z"/><path opacity=".5" d="M1280.023 593.978L1493.344 700h-213.321z"/><path opacity=".7" d="M1493.337 700l213.32-106.022V700z"/><path opacity=".6" d="M1706.672 593.978L1919.993 700h-213.321z"/></g></svg>