<svg xmlns="http://www.w3.org/2000/svg" viewBox="0 0 1919.736 1460.013"><path fill="#82CFEF" d="M0 0h1919.736v1460.031H0z"/><g fill="#262626"><path opacity=".1" d="M0 609.298V396.617l213.291 106.674z"/><path opacity=".15" d="M213.291 503.291v212.681L0 609.298z"/><path opacity=".2" d="M213.306 503.291v212.681l213.292-106.674z"/><path opacity=".15" d="M426.598 609.298V396.617L213.306 503.291z"/><path opacity=".11" d="M426.591 609.298V396.617l213.291 106.674z"/><path opacity=".18" d="M639.882 503.291v212.681L426.591 609.298z"/><path opacity=".25" d="M640.006 503.291v212.681l213.291-106.674z"/><path opacity=".2" d="M853.297 609.298V396.617L640.006 503.291z"/><path opacity=".17" d="M853.289 609.298V396.617l213.292 106.674z"/><path opacity=".25" d="M1066.581 503.291v212.681L853.289 609.298z"/><path opacity=".3" d="M1066.583 503.291v212.681l213.292-106.674z"/><path opacity=".2" d="M1279.875 609.298V396.617l-213.292 106.674z"/><path opacity=".25" d="M1279.838 609.298V396.617l213.291 106.674z"/><path opacity=".3" d="M1493.129 503.291v212.681l-213.291-106.674z"/><path opacity=".2" d="M1493.143 503.291v212.681l213.292-106.674z"/><path opacity=".15" d="M1706.435 609.298V396.617l-213.292 106.674z"/><path opacity=".1" d="M1706.444 609.298V396.617l213.292 106.674z"/><path opacity=".15" d="M1919.736 503.291v212.681l-213.292-106.674z"/><path opacity=".03" d="M213.291 290.61v212.681L0 396.617z"/><path opacity=".05" d="M213.306 290.61v212.681l213.292-106.674z"/><path opacity=".05" d="M639.882 290.61v212.681L426.591 396.617z"/><path opacity=".1" d="M640.006 290.61v212.681l213.291-106.674z"/><path opacity=".07" d="M1066.581 290.61v212.681L853.289 396.617z"/><path opacity=".12" d="M1066.583 290.61v212.681l213.292-106.674z"/><path opacity=".05" d="M1493.129 290.61v212.681l-213.291-106.674z"/><path opacity=".1" d="M1493.143 290.61v212.681l213.292-106.674z"/><path opacity=".05" d="M1919.736 290.61v212.681l-213.292-106.674z"/><path opacity=".3" d="M0 821.979V609.298l213.291 106.674z"/><path opacity=".49" d="M213.291 715.972v212.681L0 821.979z"/><path opacity=".43" d="M213.306 715.972v212.681l213.292-106.674z"/><path opacity=".25" d="M426.598 821.979V609.298L213.306 715.972z"/><path opacity=".35" d="M426.591 821.979V609.298l213.291 106.674z"/><path opacity=".4" d="M639.882 715.972v212.681L426.591 821.979z"/><path opacity=".45" d="M640.006 715.972v212.681l213.291-106.674z"/><path opacity=".35" d="M853.297 821.979V609.298L640.006 715.972z"/><path opacity=".5" d="M853.289 821.979V609.298l213.292 106.674z"/><path opacity=".45" d="M1066.581 715.972v212.681L853.289 821.979z"/><path opacity=".4" d="M1066.583 715.972v212.681l213.292-106.674z"/><path opacity=".35" d="M1279.875 821.979V609.298l-213.292 106.674z"/><path opacity=".35" d="M1279.838 821.979V609.298l213.291 106.674z"/><path opacity=".45" d="M1493.129 715.972v212.681l-213.291-106.674z"/><path opacity=".5" d="M1493.143 715.972v212.681l213.292-106.674z"/><path opacity=".25" d="M1706.435 821.979V609.298l-213.292 106.674z"/><path opacity=".3" d="M1706.444 821.979V609.298l213.292 106.674z"/><path opacity=".68" d="M1919.736 715.972v212.681l-213.292-106.674z"/><path opacity=".4" d="M0 1034.66V821.979l213.291 106.674z"/><path opacity=".35" d="M213.291 928.653v212.681L0 1034.66z"/><path opacity=".45" d="M213.306 928.653v212.681l213.292-106.674z"/><path opacity=".39" d="M426.598 1034.66V821.979L213.306 928.653z"/><path opacity=".45" d="M426.591 1034.66V821.979l213.291 106.674z"/><path opacity=".35" d="M639.882 928.653v212.681L426.591 1034.66z"/><path opacity=".25" d="M640.006 928.653v212.681l213.291-106.674z"/><path opacity=".38" d="M853.297 1034.66V821.979L640.006 928.653z"/><path opacity=".42" d="M853.289 1034.66V821.979l213.292 106.674z"/><path opacity=".35" d="M1066.581 928.653v212.681L853.289 1034.66z"/><path opacity=".33" d="M1066.583 928.653v212.681l213.292-106.674z"/><path opacity=".45" d="M1279.875 1034.66V821.979l-213.292 106.674z"/><path opacity=".5" d="M1279.838 1034.66V821.979l213.291 106.674z"/><path opacity=".55" d="M1493.129 928.653v212.681l-213.291-106.674z"/><path opacity=".6" d="M1493.143 928.653v212.681l213.292-106.674z"/><path opacity=".7" d="M1706.435 1034.66V821.979l-213.292 106.674z"/><path opacity=".8" d="M1706.444 1034.66V821.979l213.292 106.674z"/><path opacity=".68" d="M1919.736 928.653v212.681l-213.292-106.674z"/><path opacity=".25" d="M0 1247.341V1034.66l213.291 106.674z"/><path opacity=".1" d="M213.291 1141.334v212.681L0 1247.341z"/><path opacity=".08" d="M213.306 1141.334v212.681l213.292-106.674z"/><path opacity=".25" d="M426.598 1247.341V1034.66l-213.292 106.674z"/><path opacity=".23" d="M426.591 1247.341V1034.66l213.291 106.674z"/><path opacity=".1" d="M639.882 1141.334v212.681l-213.291-106.674z"/><path opacity=".09" d="M640.006 1141.334v212.681l213.291-106.674z"/><path opacity=".13" d="M853.297 1247.341V1034.66l-213.291 106.674z"/><path opacity=".25" d="M853.289 1247.341V1034.66l213.292 106.674z"/><path opacity=".15" d="M1066.581 1141.334v212.681l-213.292-106.674z"/><path opacity=".2" d="M1066.583 1141.334v212.681l213.292-106.674z"/><path opacity=".3" d="M1279.875 1247.341V1034.66l-213.292 106.674z"/><path opacity=".3" d="M1279.838 1247.341V1034.66l213.291 106.674z"/><path opacity=".23" d="M1493.129 1141.334v212.681l-213.291-106.674z"/><path opacity=".18" d="M1493.143 1141.334v212.681l213.292-106.674z"/><path opacity=".3" d="M1706.435 1247.341V1034.66l-213.292 106.674z"/><path opacity=".35" d="M1706.444 1247.341V1034.66l213.292 106.674z"/><path opacity=".25" d="M1919.736 1141.334v212.681l-213.292-106.674z"/><path opacity=".08" d="M0 1460.023v-212.682l213.291 106.674z"/><path opacity=".1" d="M426.598 1460.023v-212.682l-213.292 106.674z"/><path opacity=".02" d="M426.591 1460.023v-212.682l213.291 106.674z"/><path opacity=".03" d="M853.297 1460.023v-212.682l-213.291 106.674z"/><path opacity=".08" d="M853.289 1460.023v-212.682l213.292 106.674z"/><path opacity=".05" d="M1279.875 1460.023v-212.682l-213.292 106.674z"/><path opacity=".1" d="M1279.838 1460.023v-212.682l213.291 106.674z"/><path opacity=".12" d="M1706.435 1460.023v-212.682l-213.292 106.674z"/><path opacity=".17" d="M1706.444 1460.023v-212.682l213.292 106.674z"/><path opacity=".05" d="M1919.736 1460.356v-106.341l-213.292 106.007.667.334z"/><path opacity=".15" d="M1705.768 1460.356l.667-.334-213.292-106.007v106.341z"/><path opacity=".08" d="M1493.129 1460.356v-106.341l-213.291 106.007.666.334z"/><path opacity=".1" d="M1279.208 1460.356l.667-.334-213.292-106.007v106.341z"/><path opacity=".05" d="M1066.58 1460.356v-106.341l-213.291 106.007.667.334z"/><path opacity=".07" d="M852.631 1460.356l.666-.334-213.291-106.007v106.341z"/><path opacity=".04" d="M639.882 1460.356v-106.341l-213.291 106.007.666.334z"/><path opacity=".05" d="M425.931 1460.356l.667-.334-213.292-106.007v106.341z"/><path opacity=".03" d="M213.291 1460.356v-106.341L0 1460.022l.667.334z"/></g></svg>