<svg xmlns="http://www.w3.org/2000/svg" viewBox="0 0 1920 1707"><path opacity=".1" fill="#009DE0" d="M0 532.537V319.826l213.321 106.689z"/><path opacity=".15" fill="#009DE0" d="M213.321 426.515v212.71L0 532.537z"/><path opacity=".2" fill="#009DE0" d="M213.336 426.515v212.71l213.321-106.688z"/><path opacity=".15" fill="#009DE0" d="M426.657 532.537V319.826L213.336 426.515z"/><path opacity=".11" fill="#009DE0" d="M426.65 532.537V319.826l213.32 106.689z"/><path opacity=".18" fill="#009DE0" d="M639.97 426.515v212.71L426.65 532.537z"/><path opacity=".25" fill="#009DE0" d="M640.094 426.515v212.71l213.32-106.688z"/><path opacity=".2" fill="#009DE0" d="M853.414 532.537V319.826l-213.32 106.689z"/><path opacity=".17" fill="#009DE0" d="M853.407 532.537V319.826l213.32 106.689z"/><path opacity=".25" fill="#009DE0" d="M1066.727 426.515v212.71l-213.32-106.688z"/><path opacity=".3" fill="#009DE0" d="M1066.73 426.515v212.71l213.321-106.688z"/><path opacity=".2" fill="#009DE0" d="M1280.051 532.537V319.826L1066.73 426.515z"/><path opacity=".25" fill="#009DE0" d="M1280.014 532.537V319.826l213.321 106.689z"/><path opacity=".3" fill="#009DE0" d="M1493.335 426.515v212.71l-213.321-106.688z"/><path opacity=".2" fill="#009DE0" d="M1493.349 426.515v212.71l213.321-106.688z"/><path opacity=".15" fill="#009DE0" d="M1706.67 532.537V319.826l-213.321 106.689z"/><path opacity=".1" fill="#009DE0" d="M1706.679 532.537V319.826L1920 426.515z"/><path opacity=".15" fill="#009DE0" d="M1920 426.515v212.71l-213.321-106.688z"/><g opacity=".5" fill="#009DE0"><path opacity=".03" d="M213.321 213.805v212.71L0 319.826z"/><path opacity=".05" d="M213.336 213.805v212.71l213.321-106.689z"/><path opacity=".05" d="M639.97 213.805v212.71L426.65 319.826z"/><path opacity=".1" d="M640.094 213.805v212.71l213.32-106.689z"/><path opacity=".07" d="M1066.727 213.805v212.71l-213.32-106.689z"/><path opacity=".12" d="M1066.73 213.805v212.71l213.321-106.689z"/><path opacity=".05" d="M1493.335 213.805v212.71l-213.321-106.689z"/><path opacity=".1" d="M1493.349 213.805v212.71l213.321-106.689z"/><path opacity=".05" d="M1920 213.805v212.71l-213.321-106.689z"/></g><path opacity=".3" fill="#009DE0" d="M0 745.247v-212.71l213.321 106.688z"/><path opacity=".49" fill="#009DE0" d="M213.321 639.225v212.711L0 745.247z"/><path opacity=".43" fill="#009DE0" d="M213.336 639.225v212.711l213.321-106.689z"/><path opacity=".25" fill="#009DE0" d="M426.657 745.247v-212.71L213.336 639.225z"/><path opacity=".35" fill="#009DE0" d="M426.65 745.247v-212.71l213.32 106.688z"/><path opacity=".4" fill="#009DE0" d="M639.97 639.225v212.711L426.65 745.247z"/><path opacity=".45" fill="#009DE0" d="M640.094 639.225v212.711l213.32-106.689z"/><path opacity=".35" fill="#009DE0" d="M853.414 745.247v-212.71l-213.32 106.688z"/><path opacity=".5" fill="#009DE0" d="M853.407 745.247v-212.71l213.32 106.688z"/><path opacity=".45" fill="#009DE0" d="M1066.727 639.225v212.711l-213.32-106.689z"/><path opacity=".4" fill="#009DE0" d="M1066.73 639.225v212.711l213.321-106.689z"/><path opacity=".35" fill="#009DE0" d="M1280.051 745.247v-212.71L1066.73 639.225z"/><path opacity=".35" fill="#009DE0" d="M1280.014 745.247v-212.71l213.321 106.688z"/><path opacity=".45" fill="#009DE0" d="M1493.335 639.225v212.711l-213.321-106.689z"/><path opacity=".5" fill="#009DE0" d="M1493.349 639.225v212.711l213.321-106.689z"/><path opacity=".25" fill="#009DE0" d="M1706.67 745.247v-212.71l-213.321 106.688z"/><path opacity=".3" fill="#009DE0" d="M1706.679 745.247v-212.71L1920 639.225z"/><path opacity=".68" fill="#009DE0" d="M1920 639.225v212.711l-213.321-106.689z"/><path opacity=".4" fill="#009DE0" d="M0 957.958V745.247l213.321 106.689z"/><path opacity=".35" fill="#009DE0" d="M213.321 851.936v212.71L0 957.958z"/><path opacity=".45" fill="#009DE0" d="M213.336 851.936v212.71l213.321-106.688z"/><path opacity=".39" fill="#009DE0" d="M426.657 957.958V745.247L213.336 851.936z"/><path opacity=".45" fill="#009DE0" d="M426.65 957.958V745.247l213.32 106.689z"/><path opacity=".35" fill="#009DE0" d="M639.97 851.936v212.71L426.65 957.958z"/><path opacity=".25" fill="#009DE0" d="M640.094 851.936v212.71l213.32-106.688z"/><path opacity=".38" fill="#009DE0" d="M853.414 957.958V745.247l-213.32 106.689z"/><path opacity=".42" fill="#009DE0" d="M853.407 957.958V745.247l213.32 106.689z"/><path opacity=".35" fill="#009DE0" d="M1066.727 851.936v212.71l-213.32-106.688z"/><path opacity=".33" fill="#009DE0" d="M1066.73 851.936v212.71l213.321-106.688z"/><path opacity=".45" fill="#009DE0" d="M1280.051 957.958V745.247L1066.73 851.936z"/><path opacity=".5" fill="#009DE0" d="M1280.014 957.958V745.247l213.321 106.689z"/><path opacity=".55" fill="#009DE0" d="M1493.335 851.936v212.71l-213.321-106.688z"/><path opacity=".6" fill="#009DE0" d="M1493.349 851.936v212.71l213.321-106.688z"/><path opacity=".7" fill="#009DE0" d="M1706.67 957.958V745.247l-213.321 106.689z"/><path opacity=".8" fill="#009DE0" d="M1706.679 957.958V745.247L1920 851.936z"/><path opacity=".68" fill="#009DE0" d="M1920 851.936v212.71l-213.321-106.688z"/><path opacity=".25" fill="#009DE0" d="M0 1170.668v-212.71l213.321 106.688z"/><path opacity=".1" fill="#009DE0" d="M213.321 1064.646v212.711L0 1170.668z"/><path opacity=".08" fill="#009DE0" d="M213.336 1064.646v212.711l213.321-106.689z"/><path opacity=".25" fill="#009DE0" d="M426.657 1170.668v-212.71l-213.321 106.688z"/><path opacity=".23" fill="#009DE0" d="M426.65 1170.668v-212.71l213.32 106.688z"/><path opacity=".1" fill="#009DE0" d="M639.97 1064.646v212.711l-213.32-106.689z"/><path opacity=".09" fill="#009DE0" d="M640.094 1064.646v212.711l213.32-106.689z"/><path opacity=".13" fill="#009DE0" d="M853.414 1170.668v-212.71l-213.32 106.688z"/><path opacity=".25" fill="#009DE0" d="M853.407 1170.668v-212.71l213.32 106.688z"/><path opacity=".15" fill="#009DE0" d="M1066.727 1064.646v212.711l-213.32-106.689z"/><path opacity=".2" fill="#009DE0" d="M1066.73 1064.646v212.711l213.321-106.689z"/><path opacity=".3" fill="#009DE0" d="M1280.051 1170.668v-212.71l-213.321 106.688z"/><path opacity=".3" fill="#009DE0" d="M1280.014 1170.668v-212.71l213.321 106.688z"/><path opacity=".23" fill="#009DE0" d="M1493.335 1064.646v212.711l-213.321-106.689z"/><path opacity=".18" fill="#009DE0" d="M1493.349 1064.646v212.711l213.321-106.689z"/><path opacity=".3" fill="#009DE0" d="M1706.67 1170.668v-212.71l-213.321 106.688z"/><path opacity=".35" fill="#009DE0" d="M1706.679 1170.668v-212.71L1920 1064.646z"/><path opacity=".25" fill="#009DE0" d="M1920 1064.646v212.711l-213.321-106.689z"/><path opacity=".08" fill="#009DE0" d="M0 1383.378v-212.71l213.321 106.689z"/><path opacity=".1" fill="#009DE0" d="M426.657 1383.378v-212.71l-213.321 106.689z"/><path opacity=".02" fill="#009DE0" d="M426.65 1383.378v-212.71l213.32 106.689z"/><path opacity=".03" fill="#009DE0" d="M853.414 1383.378v-212.71l-213.32 106.689z"/><path opacity=".08" fill="#009DE0" d="M853.407 1383.378v-212.71l213.32 106.689z"/><path opacity=".05" fill="#009DE0" d="M1280.051 1383.378v-212.71l-213.321 106.689z"/><path opacity=".1" fill="#009DE0" d="M1280.014 1383.378v-212.71l213.321 106.689z"/><path opacity=".12" fill="#009DE0" d="M1706.67 1383.378v-212.71l-213.321 106.689z"/><path opacity=".17" fill="#009DE0" d="M1706.679 1383.378v-212.71L1920 1277.357z"/><g opacity=".5" fill="#009DE0"><path opacity=".03" d="M213.321 1277.357v212.71L0 1383.378z"/><path opacity=".05" d="M213.336 1277.357v212.71l213.321-106.689z"/><path opacity=".04" d="M639.97 1277.357v212.71l-213.32-106.689z"/><path opacity=".07" d="M640.094 1277.357v212.71l213.32-106.689z"/><path opacity=".05" d="M1066.727 1277.357v212.71l-213.32-106.689z"/><path opacity=".1" d="M1066.73 1277.357v212.71l213.321-106.689z"/><path opacity=".08" d="M1493.335 1277.357v212.71l-213.321-106.689z"/><path opacity=".15" d="M1493.349 1277.357v212.71l213.321-106.689z"/><path opacity=".05" d="M1920 1277.357v212.71l-213.321-106.689z"/></g></svg>