<svg xmlns="http://www.w3.org/2000/svg" viewBox="0 0 640.66 127.419"><style>.st0{fill:#fff}</style><path class="st0" d="M264.336 11.565l-46.362 115.678h-7.11l46.515-115.678zM119.124 14.64h78.978v25.134h-39.588v15.935h37.52v25.059h-37.52v17.854h40.426v25.91h-79.816zM73.922 58.886l14.781-36.723c6.466.247 11.869 2.327 21.771 8.34V21.17c-8.025-4.663-15.889-6.917-23.904-6.917-16.333 0-29.64 12.871-29.64 29.123 0 8.806 2.913 14.656 7.315 18.922l-18.21 45.136L8.272 14.597H0l44.788 110.857h2.34l23.514-58.418c14.544 8.455 35.444 9.726 35.444 30.078 0 12.391-9.536 21.881-21.785 21.881-8.015 0-14.518-2.895-26.012-11.744v9.977c9.073 6.436 17.997 9.652 26.466 9.652 16.787 0 29.955-13.193 29.955-30.086 0-28.371-26.754-28.196-40.788-37.908M65.55 43.053c0-9.404 5.861-16.981 14.431-19.759l-11.93 29.568c-1.581-2.627-2.501-5.813-2.501-9.809M67.486 0h38.127v7.768H67.486zM286.126 14.681c3.175 0 5.645 0 7.879 2.296 1.176 1.188 2.078 2.891 2.078 5.346 0 1.346-.236 3.524-2.235 5.464-1.685 1.624-3.802 2.178-7.958 2.178h-2.822v11.721h-3.841V14.681h6.899zm-3.058 3.405v8.434h3.058c1.528 0 3.096 0 4.234-.713 1.058-.633 1.763-1.861 1.763-3.563 0-.95-.235-2.138-1.176-3.01-1.176-1.148-2.234-1.148-4.978-1.148h-2.901zM306.036 14.68c1.254 0 2.901.119 4.586.871 2.862 1.228 4.195 3.92 4.195 6.653 0 3.128-1.568 5.504-4.469 6.652 2.43 1.623 3.92 4.118 5.958 7.444 1.137 1.861 1.804 2.772 3.646 5.385h-4.547c-.902-1.306-4.626-7.206-5.488-8.355-2.627-3.405-3.92-3.405-5.762-3.405h-1.02v11.76h-3.802V14.68h6.703zm-2.901 3.287v8.513h1.49c.588 0 2.665 0 3.724-.396 1.803-.713 2.548-2.415 2.548-3.88 0-1.545-.784-3.009-2.039-3.604-.98-.475-2.234-.633-4.547-.633h-1.176z"/><path class="st0" d="M345.898 41.685h-3.921l-3.567-7.959h-11.367l-3.371 7.959h-3.92l11.484-27.163h2.705l11.957 27.163zm-9.057-11.443l-4.313-9.78-3.998 9.78h8.311zM370.51 39.825c-2.039.911-5.331 2.217-9.8 2.217-10.35 0-14.622-7.484-14.622-13.621 0-7.127 5.293-14.096 14.465-14.096 3.763 0 6.546 1.069 9.408 2.296v3.96c-4.391-2.574-7.997-2.812-9.486-2.812-5.331 0-10.389 4.039-10.389 10.414 0 5.979 4.273 10.454 10.741 10.454 1.96 0 3.293-.356 5.841-1.188v-5.623h-5.136v-3.405h8.978v11.404zM398.296 30.004c0 2.614 0 6.375-3.019 9.107-2.391 2.139-5.37 2.931-8.428 2.931-3.764 0-7.918-1.307-10.035-4.712-1.489-2.376-1.489-5.504-1.489-7.326V14.68h3.841v15.324c0 3.564.314 4.95 1.686 6.335 1.138 1.188 2.901 2.258 5.998 2.258 4.312 0 6.193-2.258 6.899-3.564.51-.95.744-2.376.744-5.029V14.68h3.803v15.324zM418.597 18.125h-11.329v8.236h10.938v3.446h-10.938v8.395h11.682v3.484h-15.523V14.681h15.17zM456.771 30.004c0 2.614 0 6.375-3.019 9.107-2.391 2.139-5.37 2.931-8.428 2.931-3.764 0-7.918-1.307-10.035-4.712-1.489-2.376-1.489-5.504-1.489-7.326V14.68h3.841v15.324c0 3.564.313 4.95 1.686 6.335 1.137 1.188 2.901 2.258 5.998 2.258 4.312 0 6.193-2.258 6.899-3.564.51-.95.744-2.376.744-5.029V14.68h3.803v15.324zM486.793 41.686H483.5l-17.875-20.789v20.789h-3.606V14.681h3.097l18.031 20.946V14.681h3.646zM492.353 14.68h3.842v27.005h-3.842zM511.363 41.844h-.863l-11.523-27.163h3.842l8.035 18.967 7.996-18.967h3.803zM540.563 18.125h-11.329v8.236h10.937v3.446h-10.937v8.395h11.682v3.484h-15.523V14.681h15.17zM552.436 14.68c1.255 0 2.9.119 4.587.871 2.861 1.228 4.194 3.92 4.194 6.653 0 3.128-1.568 5.504-4.47 6.652 2.431 1.623 3.921 4.118 5.959 7.444 1.137 1.861 1.803 2.772 3.646 5.385h-4.547c-.902-1.306-4.626-7.206-5.488-8.355-2.626-3.405-3.919-3.405-5.763-3.405h-1.019v11.76h-3.803V14.68h6.704zm-2.9 3.287v8.513h1.489c.588 0 2.666 0 3.724-.396 1.804-.713 2.548-2.415 2.548-3.88 0-1.545-.783-3.009-2.038-3.604-.979-.475-2.234-.633-4.547-.633h-1.176zM581.792 20.62c-2.273-2.217-4.469-2.812-6.271-2.812-2.627 0-4.234 1.426-4.234 3.129 0 2.296 1.567 3.247 6.664 6.256 1.137.673 2.432 1.624 3.449 3.01.824 1.068 1.451 2.534 1.451 4.474 0 4.236-3.019 7.365-7.762 7.365-2.626 0-5.135-.911-7.213-2.495v-4.91c.784.99 3.177 3.96 7.213 3.96 1.999 0 4.155-1.267 4.155-3.564 0-2.257-2.273-3.92-3.528-4.672-4.234-2.574-5.448-3.326-6.624-4.831-.823-1.069-1.333-2.336-1.333-4.039 0-4.078 3.057-7.167 7.879-7.167 2.195 0 4.312.673 6.154 1.901v4.395zM586.885 14.68h3.841v27.005h-3.841zM616.518 18.086h-9.33v23.6h-3.842v-23.6h-9.173v-3.405h22.345zM630.781 27.391v14.294h-3.92V27.391l-9.878-12.71h4.626l7.173 9.305 7.252-9.305h4.626zM306.98 69.325c0 7.763-5.879 13.899-14.621 13.899-8.389 0-14.112-6.257-14.112-13.78 0-7.167 5.174-13.938 14.308-13.938 8.898 0 14.425 6.573 14.425 13.819m-24.774.119c0 6.138 4.782 10.176 10.388 10.176 2.862 0 5.958-1.188 7.801-3.207 1.686-1.86 2.665-4.791 2.665-7.126 0-4.475-3.371-10.137-10.349-10.137-7.486-.001-10.505 5.78-10.505 10.294M325.79 59.347h-10.427v7.484h10.427v3.484h-10.427v12.552h-3.842V55.863h14.269zM355.537 59.307h-11.329v8.236h10.937v3.445h-10.937v8.394h11.681v3.485h-15.522V55.862h15.17zM383.365 61.881c-2.823-1.624-5.998-2.692-9.252-2.692-6.468 0-10.584 4.83-10.584 10.255 0 5.029 3.528 10.176 10.623 10.176 3.371 0 6.664-1.147 9.486-3.009v4.237c-3.097 1.702-6.311 2.376-9.722 2.376-9.917 0-14.386-7.524-14.386-13.82 0-7.443 5.997-13.898 14.465-13.898 4.115 0 7.644 1.465 9.369 2.217v4.158zM415.698 69.325c0 7.763-5.879 13.899-14.62 13.899-8.389 0-14.112-6.257-14.112-13.78 0-7.167 5.175-13.938 14.309-13.938 8.897 0 14.423 6.573 14.423 13.819m-24.773.119c0 6.138 4.782 10.176 10.388 10.176 2.861 0 5.958-1.188 7.801-3.207 1.686-1.86 2.665-4.791 2.665-7.126 0-4.475-3.371-10.137-10.348-10.137-7.487-.001-10.506 5.78-10.506 10.294M445.093 82.867H441.8l-17.875-20.788v20.788h-3.606V55.863h3.097l18.031 20.946V55.863h3.646zM478.171 69.325c0 7.763-5.88 13.899-14.621 13.899-8.389 0-14.112-6.257-14.112-13.78 0-7.167 5.175-13.938 14.309-13.938 8.898 0 14.424 6.573 14.424 13.819m-24.773.119c0 6.138 4.782 10.176 10.388 10.176 2.862 0 5.958-1.188 7.801-3.207 1.687-1.86 2.666-4.791 2.666-7.126 0-4.475-3.371-10.137-10.35-10.137-7.487-.001-10.505 5.78-10.505 10.294M507.528 82.867h-3.842V61.842l-8.232 10.452h-.705l-8.311-10.452v21.025h-3.842V55.863h3.607l8.899 11.087 8.858-11.087h3.568zM513.127 55.863h3.841v27.003h-3.841zM545.464 61.881c-2.822-1.624-5.997-2.692-9.251-2.692-6.468 0-10.584 4.83-10.584 10.255 0 5.029 3.528 10.176 10.623 10.176 3.371 0 6.664-1.147 9.487-3.009v4.237c-3.098 1.702-6.312 2.376-9.723 2.376-9.917 0-14.386-7.524-14.386-13.82 0-7.443 5.997-13.898 14.465-13.898 4.115 0 7.644 1.465 9.368 2.217v4.158zM563.335 61.802c-2.274-2.217-4.47-2.812-6.272-2.812-2.627 0-4.234 1.426-4.234 3.129 0 2.296 1.568 3.247 6.664 6.256 1.137.673 2.431 1.624 3.451 3.01.822 1.067 1.449 2.533 1.449 4.473 0 4.237-3.019 7.366-7.762 7.366-2.625 0-5.135-.911-7.213-2.495v-4.91c.784.99 3.176 3.96 7.213 3.96 2 0 4.155-1.268 4.155-3.563 0-2.258-2.273-3.921-3.528-4.673-4.234-2.574-5.448-3.326-6.624-4.831-.823-1.069-1.332-2.336-1.332-4.039 0-4.078 3.056-7.167 7.878-7.167 2.195 0 4.312.673 6.155 1.901v4.395zM302.629 124.048h-3.92l-3.567-7.959h-11.368l-3.371 7.959h-3.92l11.485-27.163h2.705l11.956 27.163zm-9.055-11.443l-4.312-9.78-3.999 9.78h8.311zM330.26 124.048h-3.292l-17.875-20.788v20.788h-3.607V97.043h3.097l18.031 20.947V97.043h3.646zM344.836 97.043c2.509 0 6.861 0 10.427 2.771 2.98 2.297 5.136 6.099 5.136 10.731 0 6.85-4.782 10.453-6.429 11.482-3.254 2.02-6.938 2.02-9.683 2.02h-8.467V97.043h9.016zm-5.213 3.446v20.075h4.939c1.999 0 5.136-.158 7.409-1.544 2.704-1.703 4.469-4.989 4.469-8.672 0-3.287-1.49-7.048-5.566-8.87-2.195-.989-3.999-.989-6.429-.989h-4.822zM382.696 97.043c1.921 0 3.214.119 4.469.594 2.548.95 4.508 3.089 4.508 6.415 0 2.297-1.02 4.396-4.077 5.702 3.92.752 6.39 3.484 6.39 6.929 0 4.396-3.606 6.257-5.212 6.811-1.569.555-2.824.555-5.686.555h-7.408V97.043h7.016zm-3.215 3.446v8.117h2.548c.981 0 2.666-.079 3.606-.634.746-.396 2.078-1.465 2.078-3.604 0-1.505-.706-2.812-1.882-3.365-1.098-.515-2.666-.515-3.803-.515h-2.547zm0 11.601v8.513h3.803c1.098 0 2.979 0 3.96-.396 1.959-.752 2.782-2.455 2.782-3.881 0-1.148-.549-2.851-2.548-3.682-1.019-.437-2.313-.555-4.391-.555h-3.606zM419.932 112.368c0 2.613 0 6.375-3.018 9.106-2.392 2.139-5.371 2.931-8.429 2.931-3.764 0-7.917-1.307-10.035-4.712-1.489-2.376-1.489-5.504-1.489-7.325V97.043h3.841v15.324c0 3.563.313 4.949 1.686 6.335 1.137 1.188 2.901 2.257 5.998 2.257 4.312 0 6.193-2.257 6.899-3.563.509-.95.744-2.376.744-5.028V97.043h3.803v15.325zM437.762 102.983c-2.272-2.218-4.469-2.812-6.271-2.812-2.626 0-4.234 1.426-4.234 3.128 0 2.297 1.567 3.247 6.664 6.257 1.137.673 2.432 1.623 3.45 3.009.823 1.069 1.45 2.534 1.45 4.475 0 4.237-3.019 7.365-7.762 7.365-2.626 0-5.135-.911-7.213-2.495V117c.785.989 3.177 3.959 7.213 3.959 1.999 0 4.155-1.267 4.155-3.563 0-2.257-2.273-3.92-3.528-4.672-4.234-2.574-5.448-3.326-6.624-4.831-.822-1.069-1.333-2.336-1.333-4.039 0-4.078 3.058-7.167 7.879-7.167 2.195 0 4.312.673 6.154 1.899v4.397zM442.856 97.043h3.84v27.005h-3.84zM477.31 124.048h-3.293l-17.875-20.788v20.788h-3.606V97.043h3.096l18.032 20.947V97.043h3.646zM498.001 100.489h-11.329v8.235h10.938v3.445h-10.938v8.395h11.682v3.484h-15.522V97.043h15.169zM515.754 102.983c-2.273-2.218-4.469-2.812-6.271-2.812-2.627 0-4.234 1.426-4.234 3.128 0 2.297 1.567 3.247 6.664 6.257 1.137.673 2.431 1.623 3.45 3.009.823 1.069 1.45 2.534 1.45 4.475 0 4.237-3.019 7.365-7.761 7.365-2.627 0-5.136-.911-7.214-2.495V117c.784.989 3.176 3.959 7.214 3.959 1.998 0 4.154-1.267 4.154-3.563 0-2.257-2.273-3.92-3.528-4.672-4.234-2.574-5.447-3.326-6.624-4.831-.823-1.069-1.333-2.336-1.333-4.039 0-4.078 3.058-7.167 7.879-7.167 2.195 0 4.312.673 6.154 1.899v4.397zM533.509 102.983c-2.273-2.218-4.469-2.812-6.271-2.812-2.627 0-4.234 1.426-4.234 3.128 0 2.297 1.567 3.247 6.664 6.257 1.137.673 2.431 1.623 3.45 3.009.823 1.069 1.451 2.534 1.451 4.475 0 4.237-3.02 7.365-7.763 7.365-2.626 0-5.135-.911-7.213-2.495V117c.784.989 3.176 3.959 7.213 3.959 1.999 0 4.155-1.267 4.155-3.563 0-2.257-2.273-3.92-3.528-4.672-4.233-2.574-5.448-3.326-6.624-4.831-.823-1.069-1.333-2.336-1.333-4.039 0-4.078 3.058-7.167 7.88-7.167 2.194 0 4.312.673 6.153 1.899v4.397zM264.501 11.742l-46.362 115.677h-7.11l46.515-115.677zM119.289 14.817h78.978v25.134h-39.588v15.936h37.52v25.059h-37.52v17.852h40.426v25.911h-79.816zM74.087 59.063L88.868 22.34c6.466.247 11.869 2.327 21.771 8.34v-9.333c-8.025-4.663-15.889-6.917-23.904-6.917-16.333 0-29.64 12.871-29.64 29.123 0 8.806 2.913 14.656 7.315 18.922L46.2 107.611 8.437 14.774H.165L44.953 125.63h2.34l23.514-58.417c14.544 8.456 35.444 9.724 35.444 30.08 0 12.389-9.536 21.88-21.785 21.88-8.015 0-14.518-2.896-26.012-11.744v9.977c9.073 6.435 17.997 9.652 26.466 9.652 16.787 0 29.955-13.193 29.955-30.087 0-28.372-26.754-28.195-40.788-37.908M65.715 43.23c0-9.404 5.861-16.981 14.431-19.759L68.216 53.04c-1.581-2.628-2.501-5.814-2.501-9.81M67.651.178h38.127v7.768H67.651z"/></svg>