<svg xmlns="http://www.w3.org/2000/svg" viewBox="0 0 317.48 317.481"><style>.st0{fill:#fff}</style><path class="st0" d="M85.86 296.533l-1.799-.98 1.128-21.167 4.497 2.451-.775 11.839 9.307-7.192 4.448 2.424zM131.104 292.831c1.191.255 2.625.563 3.869 1.625 1.388 1.176 2.255 3.203 1.8 5.313a5.631 5.631 0 01-3.665 4.138c-1.592.563-3.027.254-4.542-.072l-2.732-.588-1.595 7.414-4.654-1.003 3.971-18.452 7.548 1.625zm-3.628 2.785l-.915 4.248 1.516.326c1.488.32 3.463.745 3.929-1.419.448-2.084-1.581-2.521-2.907-2.806l-1.623-.349zM153.992 295.602c1.715.061 3.43.122 4.917 1.116.973.699 2.383 2.301 2.304 4.541-.113 3.151-2.586 4.172-3.402 4.531 1.332.712 2.204 2.653 2.584 3.637.487 1.096 1.227 2.895 1.685 3.992l.589 1.378-5.172-.186c-.386-.845-1.885-4.636-2.245-5.396-1.188-2.425-2.128-2.458-3.455-2.505l-.692-.025-.273 7.688-4.758-.169.672-18.861 7.246.259zm-2.611 3.341l-.154 4.313 1.964.071c1.219-.013 1.523-.003 2.03-.261.705-.335 1.061-1.014 1.089-1.789.077-2.157-2.025-2.23-2.551-2.251l-2.378-.083zM192.937 311.232l-5.009.751-2.087-3.465-8.349 1.252-.842 3.904-4.927.738 4.728-19.795 5.394-.808 11.092 17.423zm-13.047-12.54l-1.653 7.637 5.747-.861-4.094-6.776zM208.136 302.932l9.712-3.415 1.174 3.341-17.283 6.076 4.706-17.905-9.111 3.203-1.174-3.342 16.604-5.837zM241.858 290.922l-12.115 6.852-9.291-16.427 11.947-6.758 1.731 3.06-7.805 4.413 1.88 3.325 7.442-4.211 1.745 3.084-7.444 4.209 2.236 3.951 7.971-4.509zM50.647 241.794l1.257 1.616-9.482 18.943-3.142-4.039 5.435-10.539-11.398 2.875-3.107-3.995zM27.282 220.678l7.934-3.867 2.073 4.255-7.935 3.866-5.768 11.09-2.484-5.099 3.503-6.324-7.14-1.138-2.473-5.072zM12.197 192.001c-.278 1.421-.819 4.001-.197 6.325.716 2.673 2.047 2.402 2.234 2.352 1.095-.293 1.257-2.255 1.492-5.125.212-2.521.872-5.618 4.4-6.563 4.222-1.13 6.579 2.964 7.309 5.691.823 3.072.159 6.372-.039 6.912l-3.929 1.052c.567-1.841 1.292-4.27.576-6.941-.158-.589-.757-2.719-2.387-2.282-1.203.321-1.297 1.465-1.482 4.091-.207 2.862-.602 6.521-4.451 7.55-2.779.744-5.807-.936-7.031-5.506-.387-1.443-.713-3.304-.236-6.553l3.741-1.003zM22.934 166.374c.28 6.523-4.265 10.955-9.185 11.166-4.395.19-9.859-3.231-10.168-10.417-.286-6.662 4.318-11.015 9.238-11.226 4.368-.188 9.799 3.151 10.115 10.477m-15.345.604c.146 3.372 2.3 5.827 6.032 5.667 4.506-.193 5.59-3.951 5.493-6.19-.129-3.013-2.245-5.858-5.977-5.698-3.51.151-5.705 2.543-5.548 6.221M14.864 132.574l11.273-6.553-.988 5.808-9.985 5.903 8.726 1.487-.794 4.661L4.5 140.715l.793-4.663 8.426 1.435-7.418-7.351.868-5.1zM13.598 100.663l-1.049 2.591-3.633-4.963 1.993-4.925 2.689 7.297zm22.828-2.642l-1.9 4.693-4.043.036-3.166 7.823 2.934 2.709-1.869 4.617-14.639-14.132 2.045-5.054 20.638-.692zm-17.427 4.857l5.734 5.305 2.179-5.387-7.913.082zM32.107 59.221l1.662-1.964 4.27-.591-.159-4.267 1.627-1.922 1.535 5.468-3.253 3.844-5.682-.568zm16.317-2.105c-1.326.582-3.753 1.609-5.308 3.446-1.788 2.114-.807 3.053-.658 3.178.865.732 2.57-.253 5.061-1.699 2.193-1.262 5.114-2.487 7.903-.127 3.337 2.824 1.317 7.097-.506 9.25-2.056 2.43-5.145 3.767-5.702 3.911l-3.105-2.627c1.836-.584 4.244-1.374 6.031-3.487.394-.465 1.803-2.173.514-3.263-.951-.804-1.943-.23-4.207 1.117-2.47 1.461-5.701 3.224-8.743.65-2.197-1.86-2.542-5.307.514-8.919.966-1.141 2.308-2.471 5.249-3.931l2.957 2.501zM69.291 43.215l12.772 2.627-4.608 3.67-11.378-2.252 5.514 6.924-3.699 2.947-11.754-14.756 3.699-2.948 5.326 6.686-.631-10.425 4.047-3.223zM98.593 36.906c-5.853 2.896-11.746.532-13.93-3.884-1.951-3.943-1.033-10.324 5.415-13.514 5.978-2.958 11.821-.508 14.005 3.908 1.938 3.918 1.084 10.239-5.49 13.49m-6.76-13.79c-3.026 1.498-4.399 4.461-2.744 7.809 2.001 4.044 5.876 3.515 7.885 2.522 2.704-1.338 4.45-4.425 2.793-7.773-1.558-3.15-4.635-4.19-7.934-2.558M133.307 24.75l-13.95 3.509-4.603-18.295 4.615-1.162 3.746 14.889 9.336-2.349zM163.834 22.214l-5.059.217-1.708-3.666-8.431.363-1.249 3.792-4.976.214 6.791-19.179 5.446-.234 9.186 18.493zM152.189 8.369l-2.451 7.416 5.805-.249-3.354-7.167zM207.897 31.326l-13.244-4.271 5.789-17.958 13.061 4.211-1.078 3.343-8.531-2.75-1.172 3.633 8.137 2.625-1.087 3.371-8.136-2.625-1.393 4.319 8.717 2.81zM232.503 32.221l2.368 12.827-5.135-2.89-2.191-11.395-4.344 7.716-4.122-2.321 9.256-16.443 4.123 2.32-4.193 7.45 9.424-4.505 4.51 2.537zM249.381 57.003c-4.888-4.329-4.919-10.677-1.654-14.363 2.917-3.293 9.172-4.848 14.557-.078 4.99 4.421 4.923 10.755 1.658 14.441-2.9 3.272-9.074 4.861-14.561 0m10.222-11.457c-2.526-2.237-5.788-2.393-8.265.403-2.99 3.375-1.041 6.765.636 8.251 2.258 1.999 5.773 2.452 8.25-.342 2.329-2.63 2.132-5.872-.621-8.312M276.346 88.427l-2.261-3.214 3.55-15.248-9.55 6.716-2.69-3.824 15.433-10.856 2.468 3.508-3.288 14.659 9.097-6.399 2.675 3.803zM285.791 108.754c-2.407-6.07.431-11.749 5.009-13.564 4.089-1.622 10.374-.185 13.025 6.501 2.458 6.2-.462 11.822-5.039 13.637-4.063 1.612-10.293.242-12.995-6.574m14.295-5.609c-1.244-3.138-4.086-4.749-7.558-3.372-4.193 1.663-3.983 5.568-3.157 7.65 1.11 2.804 4.045 4.796 7.518 3.419 3.265-1.295 4.553-4.277 3.197-7.697M295.739 150.278l-.654-4.711 11.426-1.587-6.725-4.176-.095-.685 5.331-5.85-11.423 1.585-.654-4.712 18.684-2.593.574 4.137-6.274 6.903 7.927 5.014.568 4.082zM314.45 163.98l-.216 4.753-18.846-.856.216-4.754zM292.09 197.828c-.832-3.019-.751-5.297-.229-7.646 1.592-7.159 7.058-9.687 11.784-8.636 4.646 1.033 8.698 5.762 7.035 13.243-.745 3.349-2.314 5.437-3.092 6.257l-4.241-.942c.736-.63 2.689-2.662 3.398-5.85.853-3.835-.732-7.164-4.108-7.915-3.62-.805-6.33 1.825-7.099 5.283-.385 1.729-.258 3.457.183 5.171l.609 1.978-4.24-.943zM291.465 222.163l-12.594 3.393 2.468-5.351 11.18-3.102-8.04-3.708 1.981-4.296 17.136 7.902-1.982 4.296-7.763-3.58 5.249 9.033-2.166 4.699zM261.652 249.925l3.051-4.04 3.914 1.014 5.085-6.733-2.131-3.377 3.002-3.973 10.472 17.441-3.284 4.349-20.109-4.681zm18.088-.173l-4.161-6.609-3.501 4.636 7.662 1.973zm4.642 3.54l1.684-2.23 2.223 5.735-3.201 4.238-.706-7.743zM168.651 110.602h70.293v22.37H203.71v14.184h33.394v22.303H203.71v15.889h35.98v23.062h-71.039zM128.421 149.982l13.156-32.683c5.754.219 10.564 2.069 19.377 7.422v-8.307c-7.143-4.15-14.144-6.156-21.276-6.156-14.537 0-26.38 11.456-26.38 25.92 0 7.837 2.593 13.044 6.51 16.841l-16.207 40.171-33.611-82.626h-7.362l39.863 98.666h2.083l20.928-51.992c12.945 7.523 31.546 8.652 31.546 26.77 0 11.027-8.488 19.475-19.39 19.475-7.133 0-12.92-2.577-23.151-10.453v8.881c8.076 5.725 16.018 8.59 23.555 8.59 14.941 0 26.66-11.742 26.66-26.777 0-25.253-23.812-25.097-36.301-33.742m-7.451-14.091c0-8.37 5.217-15.114 12.843-17.586l-10.617 26.317c-1.407-2.339-2.226-5.174-2.226-8.731M122.691 97.573h33.936v6.914h-33.936z"/></svg>