<svg xmlns="http://www.w3.org/2000/svg" viewBox="0 0 725.309 127.16"><style>.st0{fill:#4b4b4d}</style><path class="st0" d="M264.165 11.556L217.832 127.16h-7.103l46.483-115.604z"/><path fill="#5bc5f2" d="M119.045 14.628h78.928v25.119H158.41v15.925h37.496v25.043H158.41v17.843h40.4v25.893h-79.765z"/><path class="st0" d="M73.873 58.845l14.773-36.697c6.461.246 11.861 2.323 21.756 8.335v-9.329c-8.019-4.658-15.88-6.912-23.888-6.912-16.323 0-29.622 12.863-29.622 29.104 0 8.801 2.912 14.646 7.31 18.91l-18.197 45.107-37.74-92.777H0l44.758 110.783h2.339l23.498-58.378c14.536 8.449 35.422 9.716 35.422 30.061 0 12.381-9.531 21.865-21.772 21.865-8.009 0-14.507-2.894-25.994-11.736v9.969c9.067 6.431 17.985 9.648 26.447 9.648 16.777 0 29.936-13.186 29.936-30.069 0-28.352-26.737-28.176-40.761-37.884m-8.366-15.822c0-9.398 5.858-16.97 14.421-19.745L68.007 52.827c-1.58-2.627-2.5-5.81-2.5-9.804M67.441 0h38.103v7.764H67.441zM302.211 41.463h-3.325l-18.05-20.782v20.782h-3.642V14.466h3.127l18.209 20.939V14.466h3.681zM331.228 41.463h-3.959l-3.602-7.958h-11.479l-3.404 7.958h-3.958l11.597-27.156h2.732l12.073 27.156zm-9.145-11.441l-4.354-9.777-4.038 9.777h8.392zm1.624-23.354l-6.492 5.937h-2.058l2.89-5.937h5.66zM340.887 14.467c1.267 0 2.93.118 4.632.87 2.889 1.227 4.235 3.919 4.235 6.649 0 3.129-1.583 5.503-4.512 6.651 2.454 1.624 3.958 4.118 6.016 7.441 1.149 1.861 1.822 2.771 3.682 5.385h-4.592c-.91-1.307-4.671-7.205-5.542-8.353-2.652-3.403-3.958-3.403-5.818-3.403h-1.03v11.756h-3.839V14.467h6.768zm-2.929 3.284v8.512h1.504c.594 0 2.692 0 3.761-.397 1.821-.711 2.573-2.413 2.573-3.88 0-1.542-.792-3.006-2.059-3.6-.989-.476-2.256-.635-4.591-.635h-1.188zM383.164 27.925c0 7.758-5.938 13.893-14.765 13.893-8.471 0-14.25-6.253-14.25-13.775 0-7.166 5.225-13.935 14.447-13.935 8.987 0 14.568 6.573 14.568 13.817m-25.017.118c0 6.136 4.828 10.173 10.49 10.173 2.889 0 6.016-1.187 7.877-3.205 1.702-1.862 2.691-4.79 2.691-7.127 0-4.473-3.405-10.133-10.451-10.133-7.559 0-10.607 5.78-10.607 10.292M396.862 14.467c2.533 0 6.927 0 10.529 2.771 3.008 2.296 5.185 6.094 5.185 10.727 0 6.847-4.829 10.45-6.49 11.478-3.286 2.02-7.007 2.02-9.778 2.02h-8.55V14.467h9.104zm-5.264 3.443v20.068h4.987c2.019 0 5.186-.157 7.481-1.542 2.731-1.702 4.513-4.988 4.513-8.67 0-3.286-1.504-7.045-5.621-8.867-2.216-.989-4.037-.989-6.492-.989h-4.868zM445.038 27.925c0 7.758-5.938 13.893-14.766 13.893-8.471 0-14.25-6.253-14.25-13.775 0-7.166 5.226-13.935 14.448-13.935 8.986 0 14.568 6.573 14.568 13.817m-25.017.118c0 6.136 4.829 10.173 10.49 10.173 2.889 0 6.016-1.187 7.877-3.205 1.702-1.862 2.691-4.79 2.691-7.127 0-4.473-3.403-10.133-10.45-10.133-7.561 0-10.608 5.78-10.608 10.292M472.511 41.463h-3.919V29.706h-15.12v11.757h-3.88V14.466h3.88v11.677h15.12V14.466h3.919zM506.08 27.925c0 7.758-5.938 13.893-14.766 13.893-8.471 0-14.25-6.253-14.25-13.775 0-7.166 5.227-13.935 14.448-13.935 8.986 0 14.568 6.573 14.568 13.817m-25.017.118c0 6.136 4.829 10.173 10.49 10.173 2.889 0 6.016-1.187 7.877-3.205 1.702-1.862 2.691-4.79 2.691-7.127 0-4.473-3.405-10.133-10.45-10.133-7.561 0-10.608 5.78-10.608 10.292M523.459 20.404c-2.296-2.217-4.513-2.811-6.334-2.811-2.652 0-4.274 1.425-4.274 3.127 0 2.296 1.583 3.245 6.729 6.254 1.147.675 2.454 1.624 3.482 3.009.831 1.069 1.466 2.534 1.466 4.474 0 4.235-3.049 7.362-7.84 7.362-2.65 0-5.185-.91-7.282-2.494v-4.908c.792.988 3.206 3.959 7.282 3.959 2.02 0 4.197-1.268 4.197-3.564 0-2.256-2.295-3.919-3.562-4.672-4.276-2.572-5.503-3.323-6.69-4.829-.831-1.069-1.346-2.334-1.346-4.036 0-4.079 3.087-7.166 7.956-7.166 2.217 0 4.354.674 6.215 1.9v4.395zM535.335 14.467c3.206 0 5.7 0 7.956 2.296 1.188 1.187 2.099 2.888 2.099 5.343 0 1.347-.238 3.522-2.257 5.462-1.703 1.623-3.84 2.178-8.035 2.178h-2.851v11.717h-3.879V14.467h6.967zm-3.088 3.404v8.431h3.088c1.543 0 3.126 0 4.275-.713 1.068-.633 1.78-1.859 1.78-3.561 0-.952-.236-2.139-1.187-3.01-1.188-1.147-2.257-1.147-5.027-1.147h-2.929zM576.385 27.925c0 7.758-5.938 13.893-14.766 13.893-8.471 0-14.25-6.253-14.25-13.775 0-7.166 5.226-13.935 14.448-13.935 8.986 0 14.568 6.573 14.568 13.817m-25.018.118c0 6.136 4.829 10.173 10.49 10.173 2.889 0 6.016-1.187 7.877-3.205 1.702-1.862 2.691-4.79 2.691-7.127 0-4.473-3.403-10.133-10.451-10.133-7.558 0-10.607 5.78-10.607 10.292M590.082 14.467c2.534 0 6.928 0 10.53 2.771 3.008 2.296 5.185 6.094 5.185 10.727 0 6.847-4.829 10.45-6.491 11.478-3.286 2.02-7.007 2.02-9.777 2.02h-8.551V14.467h9.104zm-5.264 3.443v20.068h4.987c2.018 0 5.186-.157 7.48-1.542 2.732-1.702 4.513-4.988 4.513-8.67 0-3.286-1.503-7.045-5.621-8.867-2.216-.989-4.036-.989-6.491-.989h-4.868zM631.688 41.463h-3.958l-3.603-7.958h-11.48l-3.403 7.958h-3.958l11.598-27.156h2.731l12.073 27.156zm-9.144-11.441l-4.354-9.777-4.038 9.777h8.392zm1.622-23.354l-6.491 5.937h-2.059l2.89-5.937h5.66zM641.348 14.467c1.267 0 2.93.118 4.632.87 2.889 1.227 4.235 3.919 4.235 6.649 0 3.129-1.584 5.503-4.513 6.651 2.453 1.624 3.958 4.118 6.017 7.441 1.147 1.861 1.821 2.771 3.682 5.385h-4.593c-.909-1.307-4.67-7.205-5.541-8.353-2.652-3.403-3.958-3.403-5.818-3.403h-1.03v11.756h-3.839V14.467h6.768zm-3.603-8.076l4.117 3.76 4.156-3.76h2.414l-3.721 6.214h-5.62l-3.801-6.214h2.455zm.673 11.36v8.512h1.505c.594 0 2.691 0 3.761-.397 1.821-.711 2.572-2.413 2.572-3.88 0-1.542-.792-3.006-2.059-3.6-.989-.476-2.256-.635-4.592-.635h-1.187zM670.996 20.404c-2.295-2.217-4.513-2.811-6.333-2.811-2.652 0-4.274 1.425-4.274 3.127 0 2.296 1.583 3.245 6.729 6.254 1.147.675 2.453 1.624 3.481 3.009.832 1.069 1.466 2.534 1.466 4.474 0 4.235-3.049 7.362-7.839 7.362-2.651 0-5.185-.91-7.282-2.494v-4.908c.792.988 3.206 3.959 7.282 3.959 2.02 0 4.197-1.268 4.197-3.564 0-2.256-2.296-3.919-3.563-4.672-4.275-2.572-5.502-3.323-6.69-4.829-.831-1.069-1.345-2.334-1.345-4.036 0-4.079 3.086-7.166 7.956-7.166 2.217 0 4.354.674 6.214 1.9v4.395zM684.496 27.251l14.605 14.212h-5.303l-13.777-13.34v13.34h-3.917V14.466h3.917v12.351l11.362-12.351h4.829z"/><path class="st0" d="M725.309 41.463h-3.958l-3.603-7.958h-11.479l-3.404 7.958h-3.958l11.598-27.156h2.731l12.073 27.156zm-9.144-11.441l-4.354-9.777-4.038 9.777h8.392zm1.622-23.354l-6.491 5.937h-2.059l2.89-5.937h5.66zM291.523 59.114h-10.53v7.48h10.53v3.484h-10.53v12.547h-3.879V55.629h14.409zM316.581 82.625h-3.959l-3.602-7.955h-11.479l-3.405 7.955h-3.958l11.598-27.153h2.732l12.073 27.153zm-9.144-11.44l-4.354-9.774-4.038 9.774h8.392zM327.744 68.416l14.605 14.209h-5.303l-13.775-13.338v13.338h-3.919V55.629h3.919v12.35l11.361-12.35h4.829zM365.549 70.949c0 2.611 0 6.371-3.049 9.104-2.414 2.138-5.422 2.927-8.51 2.927-3.799 0-7.996-1.304-10.133-4.708-1.504-2.377-1.504-5.504-1.504-7.323V55.63h3.879v15.319c0 3.562.316 4.946 1.702 6.332 1.148 1.188 2.929 2.257 6.056 2.257 4.355 0 6.254-2.257 6.966-3.563.516-.949.753-2.374.753-5.025V55.63h3.84v15.319zM374.615 79.104h12.152v3.521h-16.071V55.629h3.919zM406.243 59.033h-9.421v23.592h-3.879V59.033h-9.262v-3.404h22.562zM429.164 82.625h-3.959l-3.602-7.955h-11.479l-3.405 7.955h-3.958l11.598-27.153h2.731l12.074 27.153zm-9.143-11.44l-4.354-9.774-4.039 9.774h8.393z"/></svg>