<svg version="1.1" id="Vrstva_1" xmlns="http://www.w3.org/2000/svg" viewBox="0 0 537.481 127.217" xml:space="preserve"><style>.st0{fill:#4b4b4d}</style><path class="st0" d="M264.287 11.563l-46.355 115.654h-7.106l46.506-115.654z"/><path fill="#b10061" d="M119.1 14.636h78.965v25.129h-39.581v15.933h37.512v25.054h-37.512v17.849h40.418v25.907H119.1z"/><path class="st0" d="M73.908 58.874l14.779-36.715c6.464.247 11.867 2.325 21.766 8.338v-9.331c-8.022-4.662-15.887-6.916-23.899-6.916-16.33 0-29.635 12.869-29.635 29.118 0 8.803 2.913 14.652 7.313 18.918l-18.205 45.127L8.27 14.594H0l44.779 110.835h2.341l23.509-58.406c14.541 8.453 35.437 9.721 35.437 30.073 0 12.386-9.535 21.877-21.781 21.877-8.013 0-14.514-2.896-26.007-11.742v9.974c9.072 6.434 17.994 9.651 26.46 9.651 16.784 0 29.949-13.191 29.949-30.083 0-28.365-26.749-28.188-40.779-37.899m-8.37-15.83c0-9.402 5.86-16.978 14.428-19.755L68.038 52.852c-1.58-2.627-2.5-5.812-2.5-9.808M67.473 0h38.121v7.767H67.473zM291.658 17.959h-10.534v7.484h10.534v3.486h-10.534v12.553h-3.882V14.474h14.416zM316.728 41.482h-3.962l-3.604-7.96h-11.484l-3.405 7.96h-3.96l11.603-27.167h2.733l12.079 27.167zm-9.149-11.445l-4.356-9.781-4.04 9.781h8.396zM327.896 27.265l14.612 14.217h-5.307l-13.78-13.346v13.346h-3.922V14.473h3.922v12.356l11.365-12.356h4.831zM365.717 29.8c0 2.614 0 6.376-3.05 9.108-2.415 2.139-5.425 2.931-8.514 2.931-3.802 0-8-1.307-10.138-4.713-1.506-2.376-1.506-5.504-1.506-7.326V14.474h3.882V29.8c0 3.564.316 4.95 1.702 6.336 1.148 1.188 2.932 2.258 6.06 2.258 4.356 0 6.257-2.258 6.97-3.565.515-.95.753-2.376.753-5.029V14.474h3.841V29.8zM374.788 37.958h12.157v3.524h-16.078V14.474h3.921zM406.43 17.88h-9.425v23.603h-3.881V17.88h-9.267v-3.406h22.573zM429.36 41.482h-3.96l-3.603-7.96h-11.485l-3.405 7.96h-3.96l11.603-27.167h2.733l12.077 27.167zm-9.146-11.445l-4.356-9.781-4.04 9.781h8.396zM291.658 59.141h-10.534v7.485h10.534v3.485h-10.534v12.555h-3.882v-27.01h14.416zM295.619 55.656h3.881v27.009h-3.881zM330.431 82.665h-3.327l-18.059-20.791v20.791h-3.644V55.656h3.129l18.217 20.949V55.656h3.684zM359.459 82.665h-3.96l-3.603-7.96h-11.485l-3.405 7.96h-3.96l11.603-27.167h2.733l12.077 27.167zm-9.146-11.446l-4.356-9.781-4.04 9.781h8.396zM387.381 82.665h-3.327l-18.059-20.791v20.791h-3.643V55.656h3.128l18.217 20.949V55.656h3.684zM415.975 61.676c-2.853-1.624-6.061-2.693-9.346-2.693-6.534 0-10.693 4.831-10.693 10.256 0 5.031 3.565 10.178 10.732 10.178 3.406 0 6.732-1.146 9.583-3.01v4.238c-3.129 1.703-6.375 2.377-9.82 2.377-10.019 0-14.533-7.525-14.533-13.822 0-7.445 6.058-13.9 14.612-13.9 4.158 0 7.723 1.465 9.465 2.218v4.158zM428.491 47.854l-6.495 5.941h-2.06l2.891-5.941h5.664zm-3.762 34.812h-3.882v-27.01h3.882v27.01zM300.647 123.846h-3.961l-3.603-7.96h-11.485l-3.406 7.96h-3.96l11.604-27.167h2.732l12.079 27.167zm-9.147-11.445l-4.356-9.78-4.04 9.78h8.396zM336.886 112.164c0 2.614 0 6.377-3.051 9.108-2.415 2.139-5.425 2.931-8.514 2.931-3.801 0-8-1.307-10.138-4.713-1.505-2.376-1.505-5.504-1.505-7.326V96.838h3.882v15.325c0 3.564.315 4.95 1.702 6.338 1.147 1.187 2.931 2.257 6.059 2.257 4.357 0 6.257-2.257 6.97-3.565.516-.95.753-2.376.753-5.029V96.838h3.842v15.326zm-5.902-23.127l-6.494 5.94h-2.06l2.891-5.94h5.663zM365.083 102.859c-2.852-1.624-6.06-2.694-9.346-2.694-6.533 0-10.692 4.831-10.692 10.257 0 5.029 3.564 10.179 10.731 10.179 3.406 0 6.732-1.149 9.584-3.011v4.237c-3.129 1.704-6.376 2.376-9.821 2.376-10.019 0-14.533-7.524-14.533-13.82 0-7.444 6.059-13.9 14.612-13.9 4.159 0 7.723 1.466 9.465 2.218v4.158zm-14.692-14.1l4.118 3.763 4.159-3.763h2.415l-3.722 6.219h-5.624l-3.802-6.219h2.456zM385.242 100.283h-11.444v8.237h11.048v3.446h-11.048v8.396h11.799v3.484h-15.681V96.838h15.326zM410.628 100.244h-9.426v23.603h-3.88v-23.603h-9.267v-3.406h22.573zM439.223 123.846h-3.327l-18.058-20.791v20.791h-3.644V96.837h3.128l18.218 20.951V96.837h3.683zM444.848 96.837h3.881v27.009h-3.881zM477.519 102.858c-2.851-1.624-6.059-2.692-9.346-2.692-6.533 0-10.692 4.831-10.692 10.256 0 5.03 3.565 10.178 10.732 10.178 3.406 0 6.732-1.147 9.583-3.01v4.238c-3.128 1.703-6.375 2.376-9.82 2.376-10.02 0-14.533-7.525-14.533-13.821 0-7.445 6.059-13.901 14.612-13.901 4.158 0 7.723 1.467 9.464 2.22v4.156zM502.629 100.244h-9.426v23.603h-3.881v-23.603h-9.266v-3.406h22.573zM515.62 124.004h-.871l-11.644-27.167h3.882l8.117 18.971 8.081-18.971h3.84zM537.481 89.038l-6.495 5.939h-2.06l2.891-5.939h5.664zm-3.762 34.808h-3.882V96.837h3.882v27.009z"/></svg>