<svg xmlns="http://www.w3.org/2000/svg" viewBox="0 0 523.142 127.16"><style>.st0{fill:#4b4b4d}</style><path class="st0" d="M264.165 11.556L217.832 127.16h-7.103l46.483-115.604z"/><path fill="#009982" d="M119.045 14.628h78.928v25.119H158.41v15.925h37.496v25.043H158.41v17.843h40.4v25.893h-79.765z"/><path class="st0" d="M73.873 58.845l14.773-36.697c6.461.246 11.861 2.323 21.756 8.335v-9.329c-8.019-4.658-15.88-6.912-23.888-6.912-16.323 0-29.622 12.863-29.622 29.104 0 8.8 2.912 14.646 7.31 18.91l-18.197 45.107-37.74-92.777H0l44.758 110.783h2.339l23.498-58.378c14.536 8.449 35.422 9.716 35.422 30.061 0 12.381-9.531 21.865-21.772 21.865-8.009 0-14.507-2.894-25.994-11.736v9.969c9.067 6.431 17.985 9.648 26.447 9.648 16.777 0 29.936-13.186 29.936-30.069 0-28.352-26.737-28.176-40.761-37.884m-8.366-15.822c0-9.398 5.858-16.97 14.421-19.745L68.007 52.827c-1.58-2.627-2.5-5.81-2.5-9.804M67.441 0h38.103v7.764H67.441zM291.523 17.95h-10.53v7.482h10.53v3.483h-10.53v12.549h-3.879V14.467h14.409zM316.581 41.463h-3.959l-3.603-7.958H297.54l-3.405 7.958h-3.958l11.599-27.155h2.731l12.074 27.155zm-9.143-11.44l-4.354-9.778-4.038 9.778h8.392zM327.744 27.251l14.606 14.212h-5.304l-13.775-13.34v13.34h-3.918V14.466h3.918v12.351l11.361-12.351h4.829zM365.549 29.785c0 2.612 0 6.374-3.049 9.104-2.414 2.138-5.422 2.93-8.51 2.93-3.8 0-7.996-1.307-10.134-4.711-1.504-2.374-1.504-5.501-1.504-7.323V14.467h3.879v15.318c0 3.563.316 4.949 1.702 6.334 1.148 1.187 2.93 2.257 6.057 2.257 4.354 0 6.254-2.257 6.966-3.564.516-.949.753-2.374.753-5.027V14.467h3.84v15.318zM374.615 37.939h12.152v3.524h-16.071V14.466h3.919zM406.243 17.871h-9.421v23.592h-3.879V17.871h-9.262v-3.404h22.562zM429.164 41.463h-3.959l-3.602-7.958h-11.479l-3.405 7.958h-3.958l11.598-27.155h2.731l12.074 27.155zm-9.143-11.44l-4.354-9.778-4.039 9.778h8.393zM277.115 55.63h3.879v26.996h-3.879zM311.909 82.625h-3.326l-18.049-20.782v20.782h-3.641V55.629h3.126l18.21 20.941V55.629h3.68zM331.94 59.114h-10.529v7.48h10.529v3.484h-10.529v12.547h-3.88V55.629h14.409zM363.688 69.088c0 7.759-5.938 13.894-14.765 13.894-8.471 0-14.251-6.254-14.251-13.775 0-7.164 5.227-13.933 14.448-13.933 8.987-.001 14.568 6.57 14.568 13.814m-25.017.118c0 6.136 4.829 10.175 10.49 10.175 2.89 0 6.016-1.188 7.877-3.208 1.702-1.858 2.692-4.79 2.692-7.124 0-4.473-3.404-10.134-10.451-10.134-7.559 0-10.608 5.778-10.608 10.291M375.13 55.629c1.267 0 2.93.12 4.632.87 2.889 1.229 4.235 3.919 4.235 6.651 0 3.127-1.583 5.501-4.513 6.651 2.453 1.623 3.958 4.116 6.017 7.441 1.148 1.861 1.821 2.772 3.681 5.383h-4.591c-.911-1.307-4.671-7.202-5.542-8.353-2.652-3.404-3.958-3.404-5.818-3.404h-1.03v11.757h-3.839V55.629h6.768zm-2.93 3.287v8.51h1.505c.594 0 2.691 0 3.761-.395 1.821-.714 2.572-2.415 2.572-3.88 0-1.545-.792-3.009-2.059-3.602-.989-.476-2.257-.633-4.592-.633H372.2zM417.05 82.625h-3.879v-21.02l-8.313 10.454h-.712l-8.392-10.454v21.02h-3.879V55.629h3.641l8.986 11.085 8.946-11.085h3.602zM446.106 82.625h-3.959l-3.602-7.955h-11.479l-3.404 7.955h-3.958l11.598-27.153h2.731l12.073 27.153zm-9.143-11.44l-4.354-9.774-4.038 9.774h8.392zM465.187 59.033h-9.421v23.592h-3.879V59.033h-9.262v-3.404h22.562zM468.672 55.63h3.879v26.996h-3.879zM486.723 68.416l14.605 14.209h-5.304l-13.775-13.338v13.338h-3.919V55.629h3.919v12.35l11.361-12.35h4.829zM513.166 68.335v14.29h-3.958v-14.29l-9.976-12.706h4.671l7.244 9.302 7.324-9.302h4.671zM300.509 123.79h-3.959l-3.602-7.958h-11.48l-3.403 7.958h-3.958l11.597-27.156h2.732l12.073 27.156zm-9.144-11.44l-4.354-9.777-4.038 9.777h8.392zM326.913 102.73c-2.295-2.217-4.513-2.811-6.333-2.811-2.653 0-4.275 1.425-4.275 3.127 0 2.296 1.583 3.246 6.73 6.254 1.146.675 2.453 1.624 3.481 3.009.831 1.069 1.466 2.534 1.466 4.475 0 4.234-3.049 7.361-7.838 7.361-2.652 0-5.187-.909-7.283-2.493v-4.907c.792.987 3.206 3.958 7.283 3.958 2.019 0 4.195-1.269 4.195-3.564 0-2.256-2.295-3.919-3.562-4.672-4.276-2.572-5.502-3.323-6.69-4.828-.831-1.068-1.345-2.335-1.345-4.037 0-4.078 3.086-7.166 7.956-7.166 2.216 0 4.354.675 6.214 1.9v4.394zM352.287 100.197h-9.421v23.594h-3.879v-23.594h-9.261v-3.403h22.561zM375.209 123.79h-3.96l-3.602-7.958h-11.479l-3.404 7.958h-3.958l11.598-27.156h2.731l12.074 27.156zm-9.145-11.44l-4.354-9.777-4.038 9.777h8.392zM394.288 100.197h-9.421v23.594h-3.878v-23.594h-9.263v-3.403h22.562zM397.773 96.794h3.88v26.997h-3.88zM420.257 102.73c-2.295-2.217-4.513-2.811-6.333-2.811-2.652 0-4.274 1.425-4.274 3.127 0 2.296 1.583 3.246 6.729 6.254 1.147.675 2.453 1.624 3.481 3.009.832 1.069 1.466 2.534 1.466 4.475 0 4.234-3.049 7.361-7.838 7.361-2.652 0-5.186-.909-7.283-2.493v-4.907c.792.987 3.206 3.958 7.283 3.958 2.019 0 4.196-1.269 4.196-3.564 0-2.256-2.296-3.919-3.563-4.672-4.275-2.572-5.502-3.323-6.69-4.828-.831-1.068-1.345-2.335-1.345-4.037 0-4.078 3.087-7.166 7.956-7.166 2.217 0 4.354.675 6.214 1.9v4.394zM445.631 100.197h-9.421v23.594h-3.878v-23.594h-9.264v-3.403h22.563zM449.116 96.794h3.88v26.997h-3.88zM467.167 109.578l14.604 14.213h-5.302l-13.776-13.343v13.343h-3.919V96.794h3.919v12.35l11.362-12.35h4.829zM493.61 109.499v14.291h-3.958v-14.291l-9.975-12.705h4.671l7.244 9.303 7.323-9.303h4.671z"/></svg>