<svg xmlns="http://www.w3.org/2000/svg" viewBox="0 0 593.933 127.019"><style>.st0{fill:#fff}</style><path class="st0" d="M263.871 11.544l-46.283 115.475h-7.094l46.433-115.475zM118.913 14.613h78.839v25.09h-39.519v15.908h37.455v25.014h-37.455v17.821h40.355v25.867h-79.675zM73.791 58.782l14.756-36.657c6.454.246 11.848 2.321 21.732 8.324v-9.316c-8.01-4.655-15.863-6.905-23.862-6.905-16.304 0-29.588 12.848-29.588 29.072 0 8.789 2.909 14.628 7.302 18.888l-18.177 45.057L8.256 14.57H0l44.708 110.661h2.337l23.472-58.314c14.519 8.438 35.382 9.706 35.382 30.025 0 12.367-9.521 21.843-21.747 21.843-8.001 0-14.491-2.891-25.966-11.725v9.96c9.057 6.422 17.965 9.635 26.418 9.635 16.758 0 29.902-13.169 29.902-30.034 0-28.32-26.707-28.143-40.715-37.839m-8.357-15.806c0-9.388 5.852-16.951 14.405-19.723L67.931 52.769c-1.578-2.623-2.497-5.804-2.497-9.793M67.366 0h38.061v7.755H67.366zM291.199 17.931h-10.518v7.473h10.518v3.48h-10.518v12.533h-3.875V14.452h14.393zM316.229 41.417h-3.955l-3.597-7.948h-11.468l-3.4 7.948h-3.954l11.585-27.124h2.729l12.06 27.124zm-9.134-11.428l-4.35-9.766-4.033 9.766h8.383zM327.379 27.223l14.59 14.194h-5.298l-13.76-13.324v13.324h-3.915V14.452h3.915v12.336l11.349-12.336h4.823zM365.142 29.753c0 2.609 0 6.366-3.045 9.094-2.412 2.135-5.416 2.926-8.501 2.926-3.796 0-7.987-1.305-10.122-4.705-1.503-2.373-1.503-5.496-1.503-7.315V14.451h3.876v15.302c0 3.558.315 4.942 1.7 6.327 1.146 1.185 2.926 2.253 6.049 2.253 4.35 0 6.247-2.253 6.959-3.559.515-.948.752-2.372.752-5.021V14.451h3.835v15.302zM374.198 37.898h12.138v3.519h-16.053V14.451h3.915zM405.79 17.851h-9.41v23.566h-3.874V17.851h-9.253v-3.4h22.537zM428.687 41.417h-3.955l-3.598-7.948h-11.467l-3.4 7.948h-3.954l11.585-27.124h2.729l12.06 27.124zm-9.134-11.428l-4.35-9.766-4.033 9.766h8.383zM301.835 82.534h-3.876V61.539l-8.303 10.439h-.712l-8.381-10.439v20.995h-3.875V55.569h3.636L289.3 66.64l8.936-11.071h3.599zM322.754 59.008h-11.428v8.225h11.031v3.44h-11.031v8.382h11.782v3.48h-15.657V55.569h15.303zM332.481 79.134h17.24v3.4h-24.358l17.28-23.566h-16.172v-3.4h23.25zM353.241 55.568h3.875v26.966h-3.875zM387.997 82.534h-3.322l-18.029-20.758v20.758h-3.638V55.569h3.123l18.189 20.915V55.569h3.677zM416.981 82.535h-3.955l-3.597-7.948h-11.468l-3.399 7.948h-3.954l11.585-27.125h2.729l12.059 27.125zm-9.133-11.428l-4.35-9.766-4.033 9.766h8.383zm1.621-23.327l-6.484 5.931h-2.057l2.887-5.931h5.654zM426.63 55.568c1.266 0 2.926.119 4.626.87 2.886 1.226 4.23 3.914 4.23 6.642 0 3.125-1.581 5.497-4.507 6.644 2.451 1.621 3.953 4.112 6.01 7.433 1.146 1.858 1.818 2.767 3.678 5.378h-4.588c-.908-1.305-4.665-7.197-5.534-8.343-2.649-3.4-3.954-3.4-5.813-3.4h-1.028v11.743h-3.835V55.568h6.761zm-2.926 3.282v8.501h1.503c.593 0 2.688 0 3.756-.395 1.819-.712 2.57-2.412 2.57-3.876 0-1.542-.792-3.004-2.058-3.597-.987-.475-2.253-.633-4.585-.633h-1.186zM468.86 69.012c0 7.75-5.931 13.879-14.749 13.879-8.461 0-14.233-6.248-14.233-13.761 0-7.157 5.219-13.918 14.431-13.918 8.975 0 14.551 6.564 14.551 13.8m-24.989.118c0 6.13 4.823 10.162 10.479 10.162 2.886 0 6.009-1.185 7.868-3.203 1.7-1.856 2.688-4.783 2.688-7.117 0-4.468-3.4-10.122-10.439-10.122-7.551 0-10.596 5.773-10.596 10.28M482.543 55.569c2.53 0 6.919 0 10.518 2.768 3.005 2.293 5.18 6.088 5.18 10.715 0 6.84-4.824 10.439-6.484 11.466-3.282 2.018-6.999 2.018-9.767 2.018h-8.541V55.569h9.094zm-5.259 3.439v20.047h4.98c2.018 0 5.181-.158 7.474-1.541 2.729-1.701 4.508-4.982 4.508-8.66 0-3.282-1.502-7.038-5.614-8.857-2.214-.989-4.033-.989-6.484-.989h-4.864zM527.976 82.534h-3.322l-18.03-20.758v20.758h-3.638V55.569h3.124l18.189 20.915V55.569h3.677zM541.224 47.779l-6.484 5.931h-2.057l2.886-5.931h5.655zm-3.756 34.755h-3.875V55.568h3.875v26.966zM566.213 61.579c-2.847-1.622-6.05-2.688-9.331-2.688-6.523 0-10.676 4.823-10.676 10.24 0 5.022 3.56 10.163 10.715 10.163 3.4 0 6.723-1.147 9.569-3.007v4.231c-3.124 1.7-6.366 2.373-9.806 2.373-10.003 0-14.511-7.512-14.511-13.8 0-7.433 6.05-13.879 14.59-13.879 4.151 0 7.71 1.464 9.449 2.215v4.152zM593.933 82.534h-3.915V70.792h-15.104v11.742h-3.875V55.569h3.875v11.663h15.104V55.569h3.915zM286.296 123.81h-.87l-11.625-27.124h3.875l8.105 18.939 8.067-18.939h3.835zM305.078 120.252h17.239v3.4h-24.358l17.279-23.566h-16.17v-3.399h23.249zM346.043 100.086h-9.411v23.566h-3.874v-23.566h-9.253v-3.399h22.538zM368.938 123.653h-3.955l-3.598-7.948h-11.467l-3.4 7.948h-3.954l11.585-27.125h2.729l12.06 27.125zm-9.133-11.428l-4.35-9.766-4.033 9.766h8.383zM394.601 123.652h-3.915v-11.743h-15.105v11.743h-3.876V96.686h3.876v11.664h15.105V96.686h3.915zM422.952 111.987c0 2.611 0 6.367-3.046 9.095-2.411 2.136-5.416 2.926-8.5 2.926-3.796 0-7.987-1.304-10.122-4.704-1.503-2.373-1.503-5.496-1.503-7.316V96.687h3.875v15.301c0 3.56.316 4.943 1.7 6.326 1.146 1.187 2.927 2.254 6.05 2.254 4.35 0 6.247-2.254 6.958-3.558.515-.948.752-2.372.752-5.022V96.687h3.836v15.3zm-7.553-21.154c0 2.058-1.542 3.994-3.993 3.994-2.412 0-3.994-1.937-3.994-3.994a3.982 3.982 0 013.994-3.992c2.531 0 3.993 2.176 3.993 3.992m-1.819 0a2.193 2.193 0 00-2.174-2.174 2.194 2.194 0 00-2.176 2.174c0 1.188.989 2.177 2.176 2.177a2.194 2.194 0 002.174-2.177"/></svg>