<svg xmlns="http://www.w3.org/2000/svg" viewBox="0 0 564.905 127.16"><style>.st0{fill:#fff}</style><path class="st0" d="M264.165 11.556L217.831 127.16h-7.103l46.484-115.604zM119.044 14.628h78.93v25.119h-39.563v15.925h37.494v25.043h-37.494v17.843h40.399v25.893h-79.766zM73.873 58.845l14.773-36.697c6.461.246 11.861 2.323 21.756 8.335v-9.329c-8.02-4.658-15.88-6.912-23.888-6.912-16.323 0-29.622 12.863-29.622 29.104 0 8.801 2.912 14.646 7.31 18.91l-18.197 45.107-37.74-92.777H0l44.758 110.783h2.339l23.498-58.378c14.535 8.449 35.422 9.716 35.422 30.061 0 12.381-9.531 21.865-21.772 21.865-8.009 0-14.507-2.894-25.994-11.736v9.969c9.067 6.431 17.985 9.648 26.447 9.648 16.777 0 29.936-13.186 29.936-30.069 0-28.352-26.737-28.176-40.761-37.884m-8.366-15.822c0-9.398 5.858-16.97 14.421-19.745L68.007 52.827c-1.58-2.627-2.5-5.81-2.5-9.804M67.441 0h38.103v7.764H67.441zM291.523 17.95h-10.529v7.482h10.529v3.483h-10.529v12.549h-3.88V14.467h14.409zM316.581 41.463h-3.959l-3.603-7.958H297.54l-3.404 7.958h-3.958l11.598-27.155h2.731l12.074 27.155zm-9.143-11.44l-4.354-9.778-4.039 9.778h8.393zM340.768 20.483c-2.851-1.624-6.057-2.69-9.342-2.69-6.531 0-10.688 4.828-10.688 10.251 0 5.027 3.563 10.172 10.728 10.172 3.404 0 6.729-1.147 9.579-3.008v4.235c-3.127 1.702-6.373 2.376-9.816 2.376-10.014 0-14.528-7.522-14.528-13.815 0-7.442 6.059-13.895 14.607-13.895 4.157 0 7.719 1.467 9.461 2.217v4.157zM368.24 29.785c0 2.612 0 6.374-3.049 9.104-2.414 2.138-5.422 2.93-8.51 2.93-3.8 0-7.996-1.307-10.134-4.711-1.504-2.374-1.504-5.501-1.504-7.323V14.467h3.879v15.318c0 3.563.316 4.949 1.702 6.334 1.147 1.187 2.93 2.257 6.057 2.257 4.354 0 6.254-2.257 6.966-3.564.516-.949.753-2.374.753-5.027V14.467h3.84v15.318zM377.308 37.939h12.151v3.524h-16.07V14.466h3.919zM408.936 17.871h-9.421v23.592h-3.879V17.871h-9.263v-3.404h22.563zM423.345 27.173v14.29h-3.959v-14.29l-9.975-12.707h4.67l7.245 9.303 7.323-9.303h4.67zM304.902 69.088c0 7.759-5.938 13.894-14.765 13.894-8.471 0-14.25-6.254-14.25-13.775 0-7.164 5.225-13.933 14.448-13.933 8.986-.001 14.567 6.57 14.567 13.814m-25.017.118c0 6.136 4.829 10.175 10.49 10.175 2.89 0 6.017-1.188 7.877-3.208 1.702-1.858 2.692-4.79 2.692-7.124 0-4.473-3.405-10.134-10.451-10.134-7.56 0-10.608 5.778-10.608 10.291M323.904 59.114h-10.528v7.48h10.528v3.485h-10.528v12.546h-3.88V55.629h14.408zM353.95 59.073h-11.439v8.235h11.043v3.442h-11.043v8.393h11.795v3.483h-15.675V55.63h15.319zM382.057 61.647c-2.851-1.624-6.058-2.693-9.343-2.693-6.53 0-10.688 4.829-10.688 10.252 0 5.027 3.563 10.175 10.727 10.175 3.405 0 6.729-1.149 9.58-3.011v4.235c-3.127 1.703-6.373 2.374-9.816 2.374-10.015 0-14.528-7.519-14.528-13.813 0-7.441 6.058-13.894 14.606-13.894 4.157 0 7.72 1.464 9.462 2.217v4.158zM414.714 69.088c0 7.759-5.937 13.894-14.765 13.894-8.471 0-14.25-6.254-14.25-13.775 0-7.164 5.226-13.933 14.447-13.933 8.987-.001 14.568 6.57 14.568 13.814m-25.017.118c0 6.136 4.829 10.175 10.49 10.175 2.889 0 6.016-1.188 7.877-3.208 1.702-1.858 2.691-4.79 2.691-7.124 0-4.473-3.405-10.134-10.451-10.134-7.559 0-10.607 5.778-10.607 10.291M444.404 82.625h-3.325l-18.05-20.782v20.782h-3.642V55.629h3.127l18.21 20.941V55.629h3.68zM477.815 69.088c0 7.759-5.938 13.894-14.766 13.894-8.471 0-14.25-6.254-14.25-13.775 0-7.164 5.226-13.933 14.448-13.933 8.986-.001 14.568 6.57 14.568 13.814m-25.017.118c0 6.136 4.829 10.175 10.49 10.175 2.889 0 6.016-1.188 7.877-3.208 1.702-1.858 2.691-4.79 2.691-7.124 0-4.473-3.404-10.134-10.45-10.134-7.56 0-10.608 5.778-10.608 10.291M507.465 82.625h-3.879v-21.02l-8.313 10.454h-.711l-8.393-10.454v21.02h-3.879V55.629h3.641l8.986 11.084 8.946-11.084h3.602zM513.127 55.63h3.88v26.996h-3.88zM545.785 61.647c-2.851-1.624-6.058-2.693-9.343-2.693-6.53 0-10.688 4.829-10.688 10.252 0 5.027 3.563 10.175 10.727 10.175 3.405 0 6.729-1.149 9.579-3.011v4.235c-3.126 1.703-6.372 2.374-9.815 2.374-10.015 0-14.528-7.519-14.528-13.813 0-7.441 6.058-13.894 14.606-13.894 4.157 0 7.72 1.464 9.462 2.217v4.158zM563.836 61.566c-2.295-2.217-4.513-2.81-6.333-2.81-2.652 0-4.275 1.425-4.275 3.126 0 2.298 1.584 3.247 6.729 6.257 1.148.672 2.454 1.621 3.482 3.007.832 1.069 1.466 2.533 1.466 4.472 0 4.237-3.048 7.363-7.839 7.363-2.651 0-5.185-.91-7.283-2.492v-4.91c.793.991 3.207 3.959 7.283 3.959 2.02 0 4.197-1.266 4.197-3.563 0-2.257-2.296-3.917-3.563-4.67-4.275-2.573-5.502-3.325-6.69-4.829-.831-1.069-1.345-2.337-1.345-4.039 0-4.076 3.086-7.164 7.955-7.164 2.218 0 4.354.672 6.215 1.901v4.392z"/></svg>