<svg xmlns="http://www.w3.org/2000/svg" viewBox="0 0 317.48 317.481"><style>.st0{fill:#fff}</style><path class="st0" d="M168.651 110.602h70.293v22.37H203.71v14.184h33.394v22.303H203.71v15.889h35.98v23.062h-71.039zM128.421 149.982l13.156-32.683c5.754.219 10.564 2.069 19.377 7.422v-8.307c-7.143-4.15-14.144-6.156-21.276-6.156-14.537 0-26.38 11.456-26.38 25.92 0 7.837 2.593 13.044 6.51 16.841l-16.207 40.171-33.611-82.626h-7.362l39.863 98.666h2.083l20.928-51.992c12.945 7.523 31.546 8.652 31.546 26.77 0 11.027-8.488 19.475-19.39 19.475-7.133 0-12.92-2.577-23.151-10.453v8.881c8.076 5.725 16.018 8.59 23.555 8.59 14.941 0 26.66-11.742 26.66-26.777 0-25.253-23.812-25.097-36.301-33.742m-7.451-14.091c0-8.37 5.217-15.114 12.843-17.586l-10.617 26.317c-1.407-2.339-2.226-5.174-2.226-8.731M122.691 97.573h33.936v6.914h-33.936zM109.942 288.62c1.023.395 2.255.871 3.212 1.988 1.07 1.243 1.556 3.167.854 4.981a5.076 5.076 0 01-3.842 3.165c-1.496.276-2.729-.2-4.031-.703l-2.348-.908-2.462 6.369-3.999-1.545 6.129-15.855 6.487 2.508zm-3.62 1.966l-1.411 3.65 1.302.504c1.278.492 2.976 1.149 3.695-.71.691-1.79-1.052-2.465-2.191-2.904l-1.395-.54zM127.332 293.945c1.504.354 3.009.709 4.15 1.847.737.788 1.703 2.45 1.241 4.415-.65 2.768-3.014 3.235-3.798 3.41 1.052.861 1.484 2.731 1.648 3.666.238 1.055.576 2.773.791 3.822l.279 1.321-4.539-1.067c-.192-.813-.854-4.427-1.04-5.161-.625-2.351-1.451-2.545-2.616-2.819l-.606-.142-1.587 6.747-4.174-.982 3.892-16.552 6.359 1.495zm-2.892 2.497l-.89 3.785 1.723.404c1.079.204 1.346.266 1.839.126.682-.172 1.116-.712 1.276-1.391.445-1.892-1.4-2.326-1.861-2.435l-2.087-.489zM155.74 314.884l-4.546-.374-1.114-3.47-7.576-.625-1.544 3.248-4.471-.368 8.231-16.377 4.893.404 6.127 17.562zm-8.848-13.684l-3.026 6.353 5.216.431-2.19-6.784zM176.397 301.59c-2.053-.782-4.234-1.256-6.424-1.104-1.964.136-3.098.713-3.813 1.238-1.166.829-2.158 2.373-2.01 4.513.222 3.207 3.033 4.837 5.943 4.635 1.045-.072 2.049-.367 2.992-.808l-.137-1.989-2.438.169-.219-3.158 6.739-.467.484 6.988c-1.64 1.588-4.343 2.6-7.104 2.791-5.446.379-10.296-2.534-10.676-8.006-.367-5.297 3.649-8.999 9.643-9.415 3.357-.232 5.713.579 6.762.931l.258 3.682zM200.737 301.043c.305 1.311.761 3.379-.246 5.431-1.225 2.436-3.797 3.699-6.346 4.293-1.286.301-4.744 1.055-7.65-1.315-.859-.721-1.736-1.744-2.359-4.415l-2.125-9.128 4.176-.972 1.91 8.205c.158.68.385 1.65.891 2.506.963 1.721 2.83 2.155 4.457 1.776 2.403-.559 3.152-2.396 3.295-3.325.122-.797-.025-1.429-.365-2.885l-1.91-8.205 4.176-.973 2.096 9.007zM222.169 301.307l-11.668 4.604-6.242-15.818 11.505-4.541 1.162 2.947-7.515 2.964 1.264 3.202 7.166-2.829 1.172 2.969-7.166 2.829 1.5 3.804 7.676-3.03zM54.353 261.914c.907-.995 2.354-2.544 4.561-2.925 2.635-.429 5.031.879 6.869 2.555.926.845 3.377 3.148 2.987 6.809-.133 1.094-.502 2.376-2.351 4.402l-6.318 6.924-3.009-2.745 5.68-6.224c.471-.517 1.143-1.254 1.571-2.145.893-1.751.256-3.477-.915-4.547-1.732-1.58-3.629-1.117-4.462-.695-.715.359-1.151.839-2.16 1.943l-5.68 6.225-3.007-2.746 6.234-6.831zM44.541 237.866l2.063 2.657-2.837 13.505 8.311-6.449 2.454 3.163-13.431 10.421-2.251-2.902 2.617-12.972-7.918 6.143-2.44-3.144zM26.024 240.058l-2.063-3.51 14.653-8.61 2.063 3.51zM32.023 214.167l.706 1.605-12.626 14.076-1.763-4.012 7.162-7.798-10.504.188-1.746-3.968zM23.884 190.497l3.201 11.472-16.379 4.57-3.156-11.314 3.05-.851 2.062 7.39 3.314-.924-1.967-7.048 3.075-.857 1.966 7.048 3.938-1.1-2.106-7.55zM4.805 179.717c-.192-1.457-.384-2.912.284-4.316.482-.922 1.701-2.351 3.703-2.617 2.818-.373 4.08 1.563 4.515 2.198.442-1.229 2.041-2.254 2.86-2.721.905-.573 2.396-1.464 3.303-2.016l1.14-.7.582 4.392c-.695.45-3.848 2.277-4.473 2.694-1.982 1.362-1.876 2.161-1.726 3.288l.077.586 6.87-.91.535 4.039-16.855 2.234-.815-6.151zm3.345 1.707l3.855-.513-.22-1.666c-.187-1.027-.221-1.284-.524-1.676-.399-.544-1.053-.743-1.746-.651-1.928.254-1.691 2.039-1.633 2.486l.268 2.02zM8.097 152.879c-.58 1.109-1.666 3.114-1.681 5.175-.016 2.366 1.204 2.446 1.378 2.448 1.023.006 1.631-1.576 2.521-3.89.786-2.031 2.098-4.436 5.388-4.414 3.938.027 5.007 3.94 4.99 6.356-.019 2.723-1.382 5.295-1.685 5.694l-3.663-.025c.932-1.39 2.141-3.229 2.158-5.596.003-.521-.009-2.416-1.529-2.426-1.121-.008-1.477.913-2.264 3.039-.863 2.315-2.08 5.243-5.669 5.217-2.591-.018-4.82-2.094-4.792-6.141.009-1.28.17-2.888 1.36-5.46l3.488.023zM4.267 143.676l.468-4.047 16.881 1.955-.468 4.046zM12.581 116.749l-1.346 5.667 13.434 3.185-.947 3.984-13.434-3.184-1.351 5.692-3.104-.737 3.644-15.343zM23.875 102.925l7.375 2.966-1.512 3.76-7.375-2.968-10.77 2.534 1.812-4.504 6.274-1.307-3.621-5.287 1.803-4.482zM47.074 78.224c-3.279 4.523-8.857 4.954-12.448 2.35-3.209-2.325-5.25-7.664-1.637-12.648 3.349-4.62 8.924-4.965 12.516-2.36 3.189 2.31 5.251 7.578 1.569 12.658m-11.173-8.159c-1.695 2.339-1.48 5.185 1.244 7.16 3.289 2.384 6.06.474 7.186-1.079 1.513-2.09 1.534-5.175-1.191-7.149-2.561-1.857-5.39-1.479-7.239 1.068M54.872 48.132l-4.965 5.015 2.551 2.525 4.965-5.016 2.285 2.262-4.965 5.016 4.96 4.908-2.864 2.894-12.081-11.955 7.829-7.911zM89.292 39.581L79.27 46.015l-9.185-14.31 9.884-6.345 1.71 2.664-6.455 4.145 1.857 2.896 6.157-3.953 1.724 2.685-6.156 3.953 2.208 3.442 6.594-4.235zM108.298 28.774c-1.617 2.177-3.214 3.306-5.093 4.152-5.723 2.575-10.345-.073-12.134-4.051-1.758-3.911-.684-9.314 5.299-12.007 2.678-1.208 4.935-1.157 5.906-1.021l1.605 3.57c-.819-.206-3.241-.564-5.79.584-3.066 1.38-4.495 4.265-3.217 7.106 1.369 3.047 4.599 3.643 7.363 2.398 1.383-.622 2.496-1.615 3.43-2.828l1.026-1.473 1.605 3.57zM123.604 25.792c-5.402 1.433-9.997-1.758-11.134-6.047-1.015-3.83.781-9.257 6.733-10.836 5.517-1.461 10.055 1.795 11.193 6.083 1.009 3.809-.725 9.192-6.792 10.8m-3.498-13.382c-2.793.741-4.426 3.083-3.564 6.334 1.041 3.928 4.396 4.198 6.251 3.706 2.495-.662 4.461-3.04 3.599-6.292-.81-3.059-3.241-4.555-6.286-3.748M155.295 20.747l-3.351.289-9.797-9.713.903 10.48-3.988.343-1.458-16.936 3.657-.315 9.472 9.241-.861-9.983 3.965-.342zM171.011 21.699c-5.565-.493-8.797-5.059-8.404-9.479.35-3.948 3.886-8.441 10.018-7.898 5.684.502 8.839 5.113 8.446 9.532-.349 3.923-3.811 8.397-10.06 7.845m1.269-13.78c-2.877-.254-5.209 1.392-5.507 4.744-.359 4.048 2.701 5.444 4.612 5.614 2.569.227 5.229-1.34 5.525-4.691.281-3.154-1.493-5.39-4.63-5.667M203.597 28.083l-3.93-1.069L202.4 16.98l-5.623 4.157-.571-.157-2.737-6.43-2.734 10.033-3.929-1.068 4.47-16.411 3.45.939 3.236 7.576 6.701-4.869 3.404.923zM217.143 15.278l3.758 1.577-6.573 15.672-3.758-1.576zM234.748 41.587c-2.711-.023-4.563-.647-6.354-1.666-5.452-3.104-6.037-8.397-3.88-12.188 2.119-3.726 7.116-6.043 12.816-2.799 2.552 1.452 3.841 3.305 4.302 4.17l-1.935 3.4c-.317-.782-1.455-2.949-3.883-4.332-2.923-1.663-6.094-1.117-7.634 1.591-1.651 2.903-.23 5.862 2.403 7.363 1.317.749 2.774 1.061 4.305 1.101l1.793-.04-1.933 3.4zM255.993 43.786c-.526-1.135-1.456-3.218-3.082-4.483-1.868-1.455-2.675-.535-2.781-.397-.628.805.257 2.253 1.553 4.367 1.132 1.861 2.242 4.368.222 6.965-2.418 3.107-6.174 1.574-8.08.089-2.148-1.673-3.358-4.321-3.493-4.805l2.25-2.891c.536 1.585 1.259 3.665 3.127 5.119.411.321 1.922 1.465 2.855.265.688-.886.174-1.728-1.033-3.646-1.311-2.095-2.893-4.843-.689-7.677 1.592-2.045 4.595-2.55 7.79-.062 1.009.785 2.188 1.892 3.505 4.402l-2.144 2.754zM272.546 79.717l-2.717-3.375 1.789-3.144-4.528-5.624-3.378 1.171-2.673-3.32 17.321-5.592 2.926 3.633-8.74 16.251zm4.131-15.457l-6.609 2.283 3.118 3.874 3.491-6.157zM283.689 98.81l-1.642-2.935 4.82-12.927-9.18 5.134-1.956-3.495 14.838-8.296 1.792 3.204-4.523 12.437 8.745-4.892 1.943 3.474zM304.931 106.084c.355.979.865 2.382.865 4.347-.009 1.365-.624 5.723-5.565 7.522-1.593.581-5.057 1.412-8.158-1.214-1.346-1.147-2.255-2.481-3.218-5.13l-2.146-5.898 15.971-5.815 2.251 6.188zm-3.904-1.251l-9.882 3.598.559 1.535c.77 2.116 1.176 2.649 1.684 3.169 1.26 1.28 3.17 1.719 5.441.892 1.732-.631 3.41-1.923 3.542-4.188.065-1.133-.274-2.068-.647-3.092l-.697-1.914zM313.565 143.32c.119 1.153.211 2.05 0 3.166-.428 2.163-2.089 3.308-3.576 3.461-1.215.124-2.674-.416-3.619-1.818-.186.875-.768 3.506-4.014 3.84-1.488.152-3.152-.2-4.376-1.861-.755-1.017-1.004-1.967-1.19-3.781l-.762-7.397 16.906-1.735.631 6.125zm-9.978-1.049l-4.065.417.205 1.98c.143 1.389.346 3.369 2.354 3.162 2.058-.211 1.861-2.12 1.692-3.768l-.186-1.791zm6.743-.691l-3.693.38.155 1.507c.095.919.278 2.709 2.138 2.518 1.835-.188 1.653-1.954 1.563-2.827l-.163-1.578zM304.517 175.315c-1.344-.072-3.458-.211-5.151-1.678-2.001-1.768-2.505-4.451-2.372-6.933.068-1.252.3-4.606 3.379-6.622.931-.589 2.156-1.116 4.895-.968l9.359.505-.22 4.066-8.413-.454c-.697-.038-1.692-.092-2.653.142-1.92.417-2.854 2.002-2.94 3.587-.126 2.341 1.434 3.515 2.287 3.893.731.323 1.378.36 2.872.44l8.412.454-.22 4.065-9.235-.497zM305.576 195.293c.788-.975 2.245-2.727 2.663-4.743.482-2.317-.699-2.636-.87-2.671-1.001-.208-1.909 1.224-3.233 3.318-1.17 1.836-2.93 3.938-6.151 3.269-3.854-.801-4.135-4.849-3.644-7.212.552-2.666 2.394-4.92 2.769-5.252l3.587.743c-1.187 1.181-2.733 2.745-3.214 5.063-.106.51-.466 2.37 1.022 2.68 1.098.227 1.627-.605 2.816-2.535 1.301-2.1 3.068-4.73 6.582-4.002 2.537.527 4.315 3 3.492 6.964-.259 1.252-.732 2.798-2.403 5.087l-3.416-.709zM307.55 205.068l-1.248 3.877-16.18-5.208 1.247-3.877zM280.798 225.596l1.429-3.043 13.315-3.609-9.521-4.469 1.701-3.621 15.387 7.223-1.559 3.32-12.744 3.565 9.071 4.257-1.69 3.601zM270.268 241.956l6.647-9.881 14.104 9.495-6.555 9.743-2.627-1.769 4.282-6.364-2.854-1.921-4.082 6.07-2.649-1.782 4.084-6.07-3.391-2.283-4.374 6.502zM268.04 263.765c1.168-.452 3.306-1.245 4.675-2.784 1.572-1.771.706-2.635.576-2.751-.764-.679-2.265.11-4.458 1.267-1.931 1.009-4.503 1.953-6.963-.23-2.944-2.616-1.17-6.266.435-8.07 1.809-2.034 4.528-3.072 5.02-3.175l2.739 2.434c-1.617.433-3.738 1.019-5.311 2.789-.346.39-1.586 1.823-.449 2.831.839.745 1.713.287 3.706-.793 2.175-1.173 5.019-2.573 7.702-.19 1.938 1.722 2.246 4.752-.443 7.778-.849.955-2.029 2.06-4.619 3.213l-2.61-2.319zM253.455 277.156c1.217-.294 3.44-.799 4.999-2.146 1.791-1.55 1.046-2.521.932-2.653-.668-.772-2.26-.188-4.585.671-2.046.747-4.72 1.346-6.872-1.143-2.575-2.98-.337-6.366 1.49-7.945 2.061-1.781 4.893-2.451 5.393-2.488l2.396 2.771c-1.66.217-3.839.52-5.63 2.068-.395.342-1.811 1.599-.817 2.75.734.848 1.661.508 3.778-.301 2.31-.879 5.313-1.893 7.66.822 1.695 1.963 1.604 5.007-1.459 7.656-.968.836-2.283 1.775-5.002 2.577l-2.283-2.639z"/></svg>