<svg xmlns="http://www.w3.org/2000/svg" viewBox="0 0 660.922 127.243"><style>.st0{fill:#4b4b4d}.st1{fill:#009ee0}</style><path class="st0" d="M264.336 11.565l-46.362 115.678h-7.11l46.515-115.678zM286.711 41.697h-.872l-11.645-27.172h3.882l8.12 18.973 8.08-18.973h3.843z"/><path class="st0" d="M311.864 27.24v14.299h-3.961V27.24l-9.982-12.714h4.674l7.248 9.307 7.328-9.307h4.674zM336.661 20.467c-2.297-2.218-4.516-2.812-6.338-2.812-2.652 0-4.277 1.426-4.277 3.129 0 2.297 1.585 3.248 6.733 6.258 1.149.674 2.456 1.624 3.486 3.01.832 1.07 1.465 2.536 1.465 4.476 0 4.238-3.049 7.368-7.842 7.368-2.654 0-5.189-.911-7.289-2.496v-4.912c.793.991 3.209 3.962 7.289 3.962 2.02 0 4.199-1.268 4.199-3.565 0-2.258-2.297-3.921-3.566-4.674-4.277-2.574-5.506-3.327-6.693-4.832-.831-1.07-1.347-2.337-1.347-4.04 0-4.08 3.089-7.17 7.962-7.17 2.218 0 4.357.673 6.218 1.901v4.397zM369.619 27.992c0 7.764-5.944 13.903-14.776 13.903-8.477 0-14.259-6.259-14.259-13.784 0-7.169 5.229-13.942 14.457-13.942 8.991 0 14.578 6.575 14.578 13.823m-25.036.119c0 6.14 4.831 10.18 10.496 10.18 2.891 0 6.02-1.189 7.881-3.209 1.705-1.862 2.694-4.792 2.694-7.129 0-4.476-3.406-10.14-10.456-10.14-7.565 0-10.615 5.783-10.615 10.298M382.573 27.319l14.615 14.22h-5.307l-13.786-13.348v13.348h-3.922V14.526h3.922v12.357l11.368-12.357h4.833z"/><path class="st0" d="M423.411 41.539h-3.961l-3.604-7.962h-11.487l-3.406 7.962h-3.96l11.605-27.171h2.731l12.082 27.171zm-9.15-11.447l-4.357-9.784-4.04 9.784h8.397zm1.622-23.369l-6.494 5.941h-2.06l2.892-5.941h5.662zM289.999 61.657c-2.298-2.218-4.516-2.813-6.338-2.813-2.654 0-4.277 1.427-4.277 3.13 0 2.297 1.583 3.247 6.733 6.258 1.148.674 2.456 1.624 3.486 3.01.831 1.069 1.465 2.535 1.465 4.476 0 4.238-3.05 7.367-7.843 7.367-2.653 0-5.188-.911-7.288-2.495v-4.912c.792.991 3.208 3.962 7.288 3.962 2.02 0 4.198-1.268 4.198-3.564 0-2.259-2.296-3.922-3.564-4.675-4.278-2.575-5.506-3.328-6.694-4.833-.832-1.069-1.347-2.336-1.347-4.04 0-4.08 3.09-7.169 7.962-7.169 2.218 0 4.357.673 6.219 1.901v4.397zm-10.854-14.022l4.12 3.763 4.158-3.763h2.417l-3.723 6.219h-5.625l-3.803-6.219h2.456zM303.506 68.509l14.616 14.22h-5.308L299.03 69.381v13.348h-3.92V55.716h3.92v12.357l11.369-12.357h4.832z"/><path class="st0" d="M344.78 69.183c0 7.763-5.938 13.903-14.774 13.903-8.477 0-14.258-6.258-14.258-13.784 0-7.169 5.229-13.942 14.456-13.942 8.992 0 14.576 6.574 14.576 13.823m-25.032.119c0 6.139 4.833 10.179 10.496 10.179 2.892 0 6.022-1.188 7.883-3.208 1.702-1.862 2.693-4.793 2.693-7.13 0-4.475-3.406-10.14-10.457-10.14-7.565 0-10.615 5.783-10.615 10.299M353.217 79.204h12.161v3.525h-16.08V55.715h3.919zM391.996 82.729h-3.96l-3.604-7.962h-11.486l-3.407 7.962h-3.961l11.606-27.171h2.732l12.08 27.171zm-9.147-11.446l-4.357-9.785-4.04 9.785h8.397zM420.915 59.162h-11.448V67.4h11.051v3.446h-11.051v8.398h11.804v3.485h-15.686V55.716h15.33zM434.422 68.509l14.616 14.22h-5.307l-13.785-13.348v13.348h-3.922V55.716h3.922v12.357l11.367-12.357h4.833z"/><path class="st0" d="M475.697 69.183c0 7.763-5.94 13.903-14.774 13.903-8.476 0-14.26-6.258-14.26-13.784 0-7.169 5.23-13.942 14.458-13.942 8.992 0 14.576 6.574 14.576 13.823m-25.032.119c0 6.139 4.831 10.179 10.495 10.179 2.893 0 6.021-1.188 7.882-3.208 1.704-1.862 2.693-4.793 2.693-7.13 0-4.475-3.406-10.14-10.457-10.14-7.565 0-10.613 5.783-10.613 10.299M505.406 82.729h-3.326l-18.064-20.795v20.795h-3.643V55.716h3.128l18.22 20.952V55.716h3.685zM538.839 69.183c0 7.763-5.941 13.903-14.774 13.903-8.477 0-14.26-6.258-14.26-13.784 0-7.169 5.229-13.942 14.458-13.942 8.991 0 14.576 6.574 14.576 13.823m-25.033.119c0 6.139 4.831 10.179 10.496 10.179 2.892 0 6.02-1.188 7.881-3.208 1.705-1.862 2.694-4.793 2.694-7.13 0-4.475-3.406-10.14-10.457-10.14-7.564 0-10.614 5.783-10.614 10.299M568.509 82.729h-3.883V61.697l-8.317 10.457h-.713L547.2 61.697v21.032h-3.883V55.716h3.643l8.992 11.09 8.953-11.09h3.604zM574.173 55.716h3.884v27.013h-3.884zM606.852 61.736c-2.851-1.624-6.061-2.694-9.348-2.694-6.535 0-10.693 4.833-10.693 10.259 0 5.03 3.563 10.18 10.732 10.18 3.406 0 6.733-1.148 9.586-3.01v4.238c-3.128 1.703-6.378 2.376-9.822 2.376-10.022 0-14.536-7.525-14.536-13.824 0-7.445 6.059-13.902 14.615-13.902 4.158 0 7.724 1.466 9.466 2.218v4.159zM620.083 68.509l14.616 14.22h-5.307l-13.784-13.348v13.348h-3.921V55.716h3.921v12.357l11.368-12.357h4.831z"/><path class="st0" d="M660.922 82.729h-3.963l-3.604-7.962h-11.487l-3.404 7.962h-3.962l11.605-27.171h2.734l12.081 27.171zm-9.151-11.446l-4.355-9.785-4.041 9.785h8.396zm1.625-23.37l-6.496 5.941h-2.06l2.892-5.941h5.664zM286.711 124.077h-.872l-11.645-27.17h3.882l8.12 18.972 8.08-18.972h3.843zM318.479 96.907c3.209 0 5.703 0 7.961 2.297 1.189 1.188 2.1 2.891 2.1 5.348 0 1.348-.239 3.525-2.257 5.465-1.705 1.623-3.843 2.178-8.041 2.178h-2.853v11.726h-3.881V96.907h6.971zm-3.089 3.406v8.436h3.09c1.544 0 3.13 0 4.278-.713 1.069-.633 1.782-1.861 1.782-3.564 0-.949-.237-2.139-1.188-3.011-1.189-1.147-2.257-1.147-5.03-1.147h-2.932zM338.603 96.907c1.267 0 2.93.117 4.632.871 2.892 1.227 4.239 3.92 4.239 6.652 0 3.131-1.584 5.508-4.514 6.656 2.454 1.623 3.96 4.119 6.021 7.447 1.147 1.861 1.819 2.77 3.681 5.387h-4.593c-.912-1.309-4.675-7.211-5.546-8.357-2.653-3.408-3.961-3.408-5.823-3.408h-1.029v11.766h-3.842V96.907h6.774zm-2.932 3.285v8.518h1.506c.595 0 2.693 0 3.762-.396 1.822-.713 2.574-2.414 2.574-3.883 0-1.545-.793-3.01-2.06-3.602-.99-.477-2.258-.637-4.595-.637h-1.187z"/><path class="st0" d="M378.886 123.92h-3.962l-3.604-7.963h-11.486l-3.406 7.963h-3.962l11.605-27.174h2.735l12.08 27.174zm-9.15-11.447l-4.357-9.783-4.038 9.783h8.395zM386.294 120.514h17.271v3.406h-24.4l17.307-23.607h-16.198v-3.406h23.291zM422.378 100.352h-11.447v8.238h11.051v3.448h-11.051v8.396h11.805v3.486H407.05V96.907h15.328z"/><path class="st1" d="M119.124 14.64h78.978v25.133h-39.588v15.936h37.52v25.059h-37.52v17.854h40.426v25.91h-79.816zM73.922 58.886l14.781-36.723c6.466.247 11.869 2.327 21.771 8.34V21.17c-8.025-4.663-15.889-6.917-23.904-6.917-16.333 0-29.64 12.871-29.64 29.123 0 8.806 2.913 14.656 7.315 18.922l-18.21 45.136L8.272 14.597H0l44.788 110.857h2.34l23.514-58.418c14.544 8.455 35.444 9.725 35.444 30.078 0 12.391-9.536 21.881-21.785 21.881-8.015 0-14.518-2.895-26.012-11.744v9.977c9.073 6.436 17.997 9.652 26.466 9.652 16.787 0 29.955-13.193 29.955-30.086 0-28.372-26.754-28.195-40.788-37.908M65.55 43.053c0-9.404 5.861-16.981 14.431-19.759l-11.93 29.569c-1.581-2.628-2.501-5.814-2.501-9.81M67.486 0h38.127v7.768H67.486z"/></svg>