<svg xmlns="http://www.w3.org/2000/svg" viewBox="0 0 200.471 127.855"><style>.st0{fill:#fff}</style><path class="st0" d="M120.039 14.751h79.586v25.327h-39.892v16.06h37.809v25.251h-37.809V99.38h40.738v26.108h-80.432zM74.491 59.337l14.895-37.004c6.515.249 11.96 2.343 21.939 8.403v-9.404c-8.088-4.7-16.014-6.971-24.089-6.971-16.458 0-29.868 12.971-29.868 29.347 0 8.873 2.935 14.768 7.371 19.068l-18.35 45.483L8.335 14.708H0l45.133 111.708h2.358L71.185 67.55c14.656 8.521 35.718 9.799 35.718 30.31 0 12.485-9.611 22.049-21.953 22.049-8.077 0-14.63-2.918-26.212-11.834v10.053c9.143 6.484 18.135 9.728 26.669 9.728 16.916 0 30.185-13.296 30.185-30.32 0-28.589-26.96-28.411-41.101-38.199m-8.437-15.954c0-9.477 5.907-17.112 14.542-19.911L68.575 53.269c-1.593-2.648-2.521-5.859-2.521-9.886M68.006 0h38.42v7.827h-38.42z"/></svg>