<svg xmlns="http://www.w3.org/2000/svg" viewBox="0 0 602.55 127.16"><style>.st0{fill:#4b4b4d}</style><path class="st0" d="M264.165 11.558L217.831 127.16h-7.103l46.484-115.602z"/><path fill="#e8308a" d="M119.044 14.63h78.93v25.118h-39.563v15.924h37.494v25.044h-37.494v17.842h40.399v25.893h-79.766z"/><path class="st0" d="M73.873 58.847l14.773-36.698c6.461.247 11.861 2.324 21.756 8.334v-9.326c-8.02-4.661-15.88-6.913-23.888-6.913-16.323 0-29.622 12.861-29.622 29.104 0 8.798 2.912 14.644 7.31 18.91l-18.197 45.105-37.74-92.777H0l44.758 110.786h2.339l23.498-58.379c14.535 8.447 35.422 9.717 35.422 30.059 0 12.381-9.531 21.865-21.772 21.865-8.009 0-14.507-2.894-25.994-11.736v9.971c9.067 6.429 17.985 9.646 26.447 9.646 16.777 0 29.936-13.186 29.936-30.067 0-28.354-26.737-28.178-40.761-37.884m-8.366-15.824c0-9.398 5.858-16.97 14.421-19.745L68.007 52.827c-1.58-2.625-2.5-5.807-2.5-9.804M67.441 0h38.103v7.764H67.441zM291.523 17.952h-10.529v7.48h10.529v3.485h-10.529v12.546h-3.88V14.467h14.409zM316.581 41.463h-3.959l-3.603-7.956H297.54l-3.404 7.956h-3.958l11.597-27.153h2.732l12.074 27.153zm-9.143-11.44l-4.354-9.776-4.039 9.776h8.393zM340.768 20.485c-2.851-1.624-6.057-2.692-9.342-2.692-6.531 0-10.688 4.828-10.688 10.251 0 5.027 3.563 10.175 10.728 10.175 3.404 0 6.729-1.148 9.579-3.009v4.235c-3.127 1.702-6.373 2.374-9.816 2.374-10.014 0-14.528-7.519-14.528-13.814 0-7.441 6.059-13.894 14.607-13.894 4.157 0 7.719 1.464 9.461 2.217v4.157zM368.24 29.787c0 2.612 0 6.372-3.049 9.104-2.414 2.138-5.422 2.928-8.51 2.928-3.8 0-7.996-1.305-10.134-4.709-1.504-2.376-1.504-5.503-1.504-7.323v-15.32h3.879v15.32c0 3.561.316 4.947 1.702 6.333 1.147 1.187 2.93 2.255 6.057 2.255 4.354 0 6.254-2.255 6.966-3.563.516-.949.753-2.374.753-5.025v-15.32h3.84v15.32zM377.308 37.941h12.151v3.522h-16.07V14.466h3.919zM408.936 17.871h-9.421v23.592h-3.879V17.871h-9.263v-3.404h22.563zM423.345 27.173v14.291h-3.959V27.173l-9.975-12.706h4.67l7.245 9.302 7.323-9.302h4.67zM304.902 69.09c0 7.757-5.937 13.895-14.765 13.895-8.47 0-14.25-6.255-14.25-13.776 0-7.166 5.225-13.935 14.448-13.935 8.986-.001 14.567 6.572 14.567 13.816m-25.017.118c0 6.136 4.829 10.173 10.49 10.173 2.889 0 6.016-1.187 7.877-3.206 1.702-1.86 2.692-4.789 2.692-7.126 0-4.473-3.405-10.133-10.451-10.133-7.56 0-10.608 5.78-10.608 10.292M323.904 59.114h-10.528v7.482h10.528v3.483h-10.528v12.549h-3.88V55.632h14.408zM363.728 82.627h-3.879v-21.02l-8.313 10.452h-.713l-8.391-10.452v21.02h-3.879V55.631h3.64l8.987 11.082 8.946-11.082h3.602zM392.784 82.627h-3.959l-3.602-7.958h-11.479l-3.404 7.958h-3.958l11.598-27.155h2.731l12.073 27.155zm-9.143-11.44l-4.354-9.776-4.038 9.776h8.392zM420.692 82.627h-3.326l-18.05-20.782v20.782h-3.641V55.631h3.127l18.209 20.939V55.631h3.681zM449.709 82.627h-3.959l-3.602-7.958h-11.48l-3.403 7.958h-3.958l11.597-27.155h2.732l12.073 27.155zm-9.144-11.44l-4.354-9.776-4.039 9.776h8.393zM474.568 80.766c-2.058.91-5.384 2.219-9.896 2.219-10.449 0-14.765-7.483-14.765-13.616 0-7.127 5.345-14.095 14.607-14.095 3.8 0 6.61 1.07 9.499 2.298v3.958c-4.433-2.572-8.074-2.81-9.579-2.81-5.383 0-10.489 4.037-10.489 10.41 0 5.978 4.314 10.45 10.846 10.45 1.979 0 3.325-.355 5.898-1.188v-5.62h-5.186v-3.403h9.064v11.397zM495.312 59.075h-11.44v8.233h11.043v3.442h-11.043v8.393h11.796v3.485h-15.675V55.632h15.319zM525.516 82.627h-3.878v-21.02l-8.313 10.452h-.713l-8.392-10.452v21.02h-3.878V55.631h3.64l8.986 11.082 8.946-11.082h3.602zM546.457 59.075h-11.439v8.233h11.043v3.442h-11.043v8.393h11.795v3.485h-15.675V55.632h15.319zM576.701 82.627h-3.325l-18.05-20.782v20.782h-3.641V55.631h3.127l18.209 20.939V55.631h3.68zM602.55 59.035h-9.421v23.592h-3.879V59.035h-9.262v-3.404h22.562z"/></svg>