<svg xmlns="http://www.w3.org/2000/svg" viewBox="0 0 638.613 127.16"><style>.st0{fill:#fff}</style><path class="st0" d="M119.045 14.629h78.928v25.119H158.41v15.924h37.496v25.044H158.41v17.842h40.4v25.893h-79.765zM73.873 58.846l14.773-36.698c6.461.247 11.861 2.324 21.756 8.335v-9.327c-8.019-4.66-15.88-6.913-23.888-6.913-16.323 0-29.622 12.862-29.622 29.104 0 8.799 2.912 14.645 7.31 18.91l-18.197 45.106-37.74-92.777H0L44.758 125.37h2.339l23.498-58.378c14.536 8.448 35.422 9.717 35.422 30.06 0 12.381-9.531 21.865-21.772 21.865-8.009 0-14.507-2.894-25.994-11.736v9.97c9.067 6.43 17.985 9.647 26.447 9.647 16.777 0 29.936-13.186 29.936-30.068 0-28.353-26.737-28.177-40.761-37.884m-8.366-15.823c0-9.398 5.858-16.97 14.421-19.745L68.007 52.827c-1.58-2.626-2.5-5.809-2.5-9.804M67.441 0h38.103v7.764H67.441zM264.165 11.557L217.832 127.16h-7.103l46.483-115.603zM291.523 17.95h-10.53v7.481h10.53v3.484h-10.53v12.548h-3.879V14.466h14.409zM316.581 41.463h-3.959l-3.602-7.957h-11.479l-3.405 7.957h-3.958l11.598-27.155h2.732l12.073 27.155zm-9.144-11.44l-4.354-9.777-4.038 9.777h8.392zM340.768 20.483c-2.851-1.623-6.057-2.691-9.342-2.691-6.531 0-10.688 4.828-10.688 10.251 0 5.028 3.563 10.173 10.728 10.173 3.405 0 6.729-1.147 9.579-3.008v4.235c-3.127 1.703-6.372 2.375-9.816 2.375-10.014 0-14.528-7.521-14.528-13.814 0-7.442 6.058-13.894 14.607-13.894 4.157 0 7.719 1.464 9.461 2.217v4.156zM368.241 29.786c0 2.612 0 6.373-3.048 9.104-2.415 2.138-5.423 2.929-8.511 2.929-3.8 0-7.996-1.305-10.133-4.71-1.505-2.375-1.505-5.502-1.505-7.323V14.467h3.88v15.319c0 3.563.316 4.948 1.702 6.333 1.147 1.188 2.929 2.256 6.056 2.256 4.354 0 6.254-2.256 6.967-3.562.515-.95.753-2.375.753-5.027V14.467h3.839v15.319zM377.308 37.94h12.152v3.523h-16.071V14.466h3.919zM408.936 17.871h-9.421v23.592h-3.879V17.871h-9.263v-3.405h22.563zM423.345 27.173v14.29h-3.958v-14.29l-9.976-12.707h4.671l7.244 9.303 7.323-9.303h4.671zM304.903 69.089c0 7.758-5.938 13.895-14.766 13.895-8.47 0-14.25-6.256-14.25-13.776 0-7.165 5.226-13.934 14.448-13.934 8.986-.001 14.568 6.571 14.568 13.815m-25.018.118c0 6.136 4.829 10.173 10.49 10.173 2.889 0 6.016-1.187 7.878-3.206 1.701-1.859 2.691-4.79 2.691-7.125 0-4.473-3.405-10.134-10.451-10.134-7.56 0-10.608 5.78-10.608 10.292M323.905 59.113h-10.53v7.481h10.53v3.484h-10.53v12.548h-3.879V55.63h14.409zM338.671 55.63h3.88v26.997h-3.88zM373.466 82.626h-3.325l-18.05-20.782v20.782h-3.642V55.629h3.127l18.209 20.94v-20.94h3.681zM399.316 59.034h-9.421v23.592h-3.878V59.034h-9.262V55.63h22.561zM418.08 59.074h-11.439v8.233h11.043v3.443h-11.043v8.393h11.795v3.484h-15.674V55.63h15.318zM430.075 55.629c1.267 0 2.93.119 4.632.871 2.889 1.228 4.235 3.919 4.235 6.65 0 3.128-1.583 5.502-4.513 6.651 2.454 1.624 3.958 4.116 6.017 7.441 1.148 1.86 1.821 2.772 3.682 5.385h-4.593c-.909-1.308-4.67-7.204-5.541-8.354-2.652-3.404-3.958-3.404-5.818-3.404h-1.03v11.758h-3.839V55.629h6.768zm-2.929 3.287v8.51h1.505c.594 0 2.691 0 3.761-.396 1.821-.712 2.572-2.414 2.572-3.879 0-1.544-.792-3.007-2.059-3.602-.989-.475-2.256-.633-4.591-.633h-1.188zM472.035 82.626h-3.325l-18.05-20.782v20.782h-3.642V55.629h3.127l18.209 20.94v-20.94h3.681zM501.053 82.626h-3.959l-3.603-7.957h-11.479l-3.405 7.957h-3.958l11.598-27.154h2.731l12.075 27.154zm-9.145-11.44l-4.354-9.775-4.039 9.775h8.393zM520.132 59.034h-9.421v23.592h-3.879V59.034h-9.262V55.63h22.562zM523.617 55.63h3.879v26.997h-3.879zM561.104 69.089c0 7.758-5.938 13.895-14.765 13.895-8.471 0-14.25-6.256-14.25-13.776 0-7.165 5.225-13.934 14.447-13.934 8.985-.001 14.568 6.571 14.568 13.815m-25.018.118c0 6.136 4.829 10.173 10.49 10.173 2.89 0 6.017-1.187 7.878-3.206 1.701-1.859 2.691-4.79 2.691-7.125 0-4.473-3.404-10.134-10.451-10.134-7.559 0-10.608 5.78-10.608 10.292M590.794 82.626h-3.326l-18.05-20.782v20.782h-3.642V55.629h3.127l18.209 20.94v-20.94h3.682zM619.811 82.626h-3.959l-3.602-7.957h-11.479l-3.404 7.957h-3.958l11.598-27.154h2.731l12.073 27.154zm-9.144-11.44l-4.354-9.775-4.039 9.775h8.393zM626.463 79.103h12.15v3.523h-16.069V55.63h3.919zM283.962 96.794c1.267 0 2.93.118 4.632.871 2.889 1.227 4.235 3.918 4.235 6.648 0 3.128-1.583 5.502-4.512 6.651 2.453 1.623 3.958 4.117 6.017 7.44 1.147 1.861 1.821 2.772 3.681 5.385h-4.592c-.911-1.308-4.671-7.204-5.542-8.354-2.652-3.403-3.958-3.403-5.818-3.403h-1.03v11.757h-3.839V96.794h6.768zm-2.929 3.284v8.512h1.504c.594 0 2.692 0 3.761-.396 1.821-.713 2.573-2.415 2.573-3.88 0-1.544-.792-3.007-2.059-3.601-.989-.477-2.256-.635-4.591-.635h-1.188zM316.105 100.236h-11.438v8.234h11.042v3.445h-11.042v8.391h11.793v3.484h-15.673V96.794h15.318zM325.094 120.267h12.151v3.522h-16.071V96.793h3.92zM363.847 123.789h-3.959l-3.602-7.956h-11.479l-3.404 7.956h-3.958l11.597-27.154h2.732l12.073 27.154zm-9.144-11.439l-4.354-9.776-4.039 9.776h8.393zM382.927 100.197h-9.421v23.593h-3.879v-23.593h-9.262v-3.403h22.562zM386.411 96.794h3.88v26.996h-3.88zM423.897 110.253c0 7.758-5.937 13.893-14.765 13.893-8.471 0-14.25-6.254-14.25-13.775 0-7.164 5.226-13.934 14.447-13.934 8.987 0 14.568 6.572 14.568 13.816m-25.016.117c0 6.137 4.829 10.174 10.49 10.174 2.889 0 6.016-1.188 7.877-3.206 1.702-1.861 2.691-4.79 2.691-7.125 0-4.475-3.404-10.135-10.451-10.135-7.559 0-10.607 5.779-10.607 10.292M453.588 123.789h-3.325l-18.05-20.78v20.78h-3.643V96.794h3.127l18.21 20.938V96.794h3.681zM471.996 102.73c-2.296-2.217-4.513-2.811-6.334-2.811-2.652 0-4.274 1.425-4.274 3.127 0 2.296 1.583 3.247 6.729 6.255 1.147.673 2.454 1.623 3.482 3.008.832 1.069 1.466 2.534 1.466 4.474 0 4.235-3.049 7.362-7.839 7.362-2.651 0-5.185-.909-7.283-2.492v-4.909c.792.988 3.207 3.958 7.283 3.958 2.019 0 4.196-1.268 4.196-3.563 0-2.256-2.295-3.918-3.562-4.671-4.276-2.572-5.502-3.324-6.69-4.828-.831-1.068-1.346-2.336-1.346-4.038 0-4.077 3.087-7.165 7.956-7.165 2.217 0 4.354.674 6.215 1.9v4.393z"/></svg>