<svg xmlns="http://www.w3.org/2000/svg" viewBox="0 0 633.312 127.16"><style>.st0{fill:#4b4b4d}</style><path class="st0" d="M264.167 11.558L217.833 127.16h-7.104l46.485-115.602z"/><path fill="#b10061" d="M119.046 14.63h78.929v25.118h-39.563v15.925h37.495v25.043h-37.495v17.841h40.399v25.895h-79.765z"/><path class="st0" d="M73.874 58.847l14.773-36.698c6.461.247 11.861 2.324 21.756 8.333v-9.326c-8.02-4.66-15.88-6.913-23.888-6.913-16.323 0-29.622 12.863-29.622 29.105 0 8.799 2.912 14.645 7.31 18.909l-18.197 45.107-37.74-92.777H0l44.758 110.785h2.34l23.498-58.379c14.535 8.448 35.422 9.716 35.422 30.06 0 12.381-9.531 21.865-21.772 21.865-8.009 0-14.507-2.894-25.995-11.735v9.969c9.068 6.431 17.986 9.646 26.448 9.646 16.777 0 29.936-13.185 29.936-30.067 0-28.354-26.737-28.177-40.761-37.884m-8.366-15.823c0-9.398 5.857-16.97 14.421-19.746l-11.921 29.55c-1.581-2.626-2.5-5.809-2.5-9.804M67.441 0h38.104v7.764H67.441zM291.525 17.951h-10.529v7.481h10.529v3.484h-10.529v12.548h-3.88V14.467h14.409zM316.583 41.464h-3.959l-3.602-7.957h-11.479l-3.405 7.957h-3.958l11.598-27.155h2.732l12.073 27.155zm-9.144-11.44l-4.354-9.777-4.038 9.777h8.392zM340.77 20.484c-2.851-1.623-6.057-2.691-9.342-2.691-6.532 0-10.688 4.828-10.688 10.252 0 5.027 3.563 10.172 10.728 10.172 3.404 0 6.729-1.147 9.579-3.008v4.235c-3.127 1.703-6.373 2.376-9.816 2.376-10.015 0-14.528-7.522-14.528-13.815 0-7.442 6.057-13.895 14.607-13.895 4.156 0 7.719 1.465 9.461 2.218v4.156zM368.243 29.787c0 2.612 0 6.373-3.049 9.104-2.414 2.138-5.422 2.93-8.51 2.93-3.8 0-7.996-1.306-10.134-4.711-1.505-2.375-1.505-5.502-1.505-7.323V14.468h3.88v15.319c0 3.563.316 4.948 1.702 6.333 1.147 1.188 2.93 2.256 6.057 2.256 4.354 0 6.254-2.256 6.966-3.562.516-.95.753-2.375.753-5.027V14.468h3.84v15.319zM377.31 37.941h12.151v3.523h-16.07V14.467h3.919zM408.938 17.872h-9.421v23.592h-3.879V17.872h-9.262v-3.405h22.562zM423.347 27.174v14.29h-3.958v-14.29l-9.975-12.707h4.67l7.245 9.303 7.323-9.303h4.671zM304.904 69.089c0 7.759-5.937 13.894-14.765 13.894-8.47 0-14.25-6.254-14.25-13.775 0-7.165 5.226-13.934 14.448-13.934 8.986 0 14.567 6.573 14.567 13.815m-25.017.119c0 6.136 4.829 10.173 10.49 10.173 2.889 0 6.016-1.188 7.878-3.206 1.701-1.861 2.691-4.79 2.691-7.125 0-4.474-3.405-10.134-10.451-10.134-7.56.001-10.608 5.779-10.608 10.292M323.907 59.115h-10.53v7.481h10.53v3.484h-10.53v12.548h-3.88V55.631h14.41zM353.083 59.115h-10.53v7.481h10.53v3.484h-10.53v12.548h-3.88V55.631h14.41zM357.041 55.631h3.88v26.997h-3.88zM391.837 82.627h-3.326l-18.05-20.781v20.781h-3.641V55.63h3.127l18.209 20.94V55.63h3.681zM420.853 82.627h-3.959l-3.602-7.956h-11.48l-3.403 7.956h-3.959l11.598-27.154h2.732l12.073 27.154zm-9.144-11.44l-4.354-9.775-4.038 9.775h8.392zM448.762 82.627h-3.326l-18.05-20.781v20.781h-3.641V55.63h3.127l18.209 20.94V55.63h3.681zM477.343 61.648c-2.851-1.623-6.058-2.691-9.342-2.691-6.531 0-10.688 4.828-10.688 10.252 0 5.026 3.563 10.172 10.728 10.172 3.405 0 6.729-1.147 9.579-3.007v4.234c-3.127 1.702-6.373 2.375-9.816 2.375-10.015 0-14.528-7.521-14.528-13.814 0-7.442 6.058-13.894 14.607-13.894 4.156 0 7.719 1.464 9.461 2.217v4.156zM497.493 59.075h-11.44v8.233h11.043v3.444h-11.043v8.392h11.794v3.484h-15.674V55.631h15.32zM300.511 123.791h-3.959l-3.602-7.957h-11.479l-3.404 7.957h-3.959l11.598-27.155h2.732l12.073 27.155zm-9.144-11.44l-4.354-9.775-4.038 9.775h8.392zM328.418 123.791h-3.326l-18.049-20.781v20.781H303.4V96.795h3.127l18.211 20.939V96.795h3.68zM343.145 96.795c2.533 0 6.927 0 10.529 2.771 3.009 2.296 5.187 6.097 5.187 10.728 0 6.848-4.83 10.451-6.492 11.479-3.286 2.021-7.007 2.021-9.778 2.021h-8.55V96.795h9.104zm-5.265 3.443v20.069h4.987c2.019 0 5.187-.159 7.481-1.544 2.732-1.702 4.513-4.987 4.513-8.669 0-3.285-1.504-7.045-5.621-8.867-2.216-.989-4.037-.989-6.491-.989h-4.869zM397.735 123.791h-3.959l-3.602-7.957h-11.479l-3.405 7.957h-3.958l11.598-27.155h2.731l12.074 27.155zm-9.144-11.44l-4.354-9.775-4.039 9.775h8.393zM421.921 102.812c-2.85-1.623-6.057-2.691-9.342-2.691-6.531 0-10.688 4.829-10.688 10.252 0 5.027 3.563 10.173 10.727 10.173 3.406 0 6.729-1.147 9.58-3.008v4.234c-3.127 1.702-6.373 2.375-9.816 2.375-10.015 0-14.527-7.521-14.527-13.813 0-7.442 6.057-13.896 14.605-13.896 4.157 0 7.72 1.466 9.461 2.219v4.155zM449.751 102.812c-2.85-1.623-6.057-2.691-9.342-2.691-6.53 0-10.688 4.829-10.688 10.252 0 5.027 3.563 10.173 10.727 10.173 3.405 0 6.729-1.147 9.58-3.008v4.234c-3.127 1.702-6.373 2.375-9.816 2.375-10.015 0-14.527-7.521-14.527-13.813 0-7.442 6.057-13.896 14.605-13.896 4.157 0 7.72 1.466 9.461 2.219v4.155zM482.411 110.254c0 7.759-5.938 13.893-14.766 13.893-8.471 0-14.25-6.254-14.25-13.775 0-7.163 5.226-13.934 14.448-13.934 8.986 0 14.568 6.572 14.568 13.816m-25.018.117c0 6.138 4.829 10.175 10.49 10.175 2.889 0 6.016-1.188 7.877-3.207 1.702-1.861 2.691-4.789 2.691-7.125 0-4.474-3.403-10.134-10.45-10.134-7.56 0-10.608 5.779-10.608 10.291M509.607 112.113c0 2.612 0 6.373-3.049 9.104-2.414 2.138-5.422 2.929-8.51 2.929-3.8 0-7.996-1.305-10.134-4.71-1.505-2.375-1.505-5.502-1.505-7.323V96.795h3.88v15.318c0 3.563.316 4.948 1.702 6.334 1.147 1.188 2.929 2.257 6.057 2.257 4.354 0 6.254-2.257 6.966-3.563.516-.95.753-2.375.753-5.027V96.795h3.84v15.318zM539.929 123.791h-3.325l-18.05-20.781v20.781h-3.641V96.795h3.127l18.209 20.939V96.795h3.68zM565.78 100.198h-9.421v23.594h-3.879v-23.594h-9.263v-3.403h22.563zM569.263 96.795h3.88v26.997h-3.88zM604.058 123.791h-3.325l-18.05-20.781v20.781h-3.642V96.795h3.127l18.209 20.939V96.795h3.681zM633.312 121.931c-2.058.91-5.383 2.217-9.896 2.217-10.449 0-14.764-7.481-14.764-13.616 0-7.126 5.344-14.093 14.606-14.093 3.8 0 6.61 1.068 9.5 2.297v3.958c-4.433-2.574-8.075-2.812-9.579-2.812-5.384 0-10.489 4.038-10.489 10.41 0 5.979 4.313 10.452 10.846 10.452 1.979 0 3.324-.357 5.898-1.188v-5.621h-5.187v-3.403h9.064v11.399z"/></svg>