<svg xmlns="http://www.w3.org/2000/svg" viewBox="0 0 592.14 127.16"><style>.st0{fill:#fff}</style><path class="st0" d="M264.165 11.557L217.832 127.16h-7.103l46.483-115.603zM119.045 14.629h78.928v25.119H158.41v15.924h37.496v25.044H158.41v17.842h40.4v25.893h-79.765zM73.873 58.846l14.773-36.698c6.461.247 11.861 2.324 21.756 8.335v-9.327c-8.019-4.66-15.88-6.913-23.888-6.913-16.323 0-29.622 12.862-29.622 29.104 0 8.8 2.912 14.645 7.31 18.91l-18.197 45.106-37.74-92.777H0l44.758 110.785h2.339l23.498-58.379c14.536 8.448 35.422 9.717 35.422 30.06 0 12.381-9.531 21.865-21.772 21.865-8.009 0-14.507-2.894-25.994-11.736v9.97c9.067 6.43 17.985 9.647 26.447 9.647 16.777 0 29.936-13.186 29.936-30.068 0-28.353-26.737-28.177-40.761-37.884m-8.366-15.823c0-9.398 5.858-16.97 14.421-19.745L68.007 52.827c-1.58-2.626-2.5-5.809-2.5-9.804M67.441 0h38.103v7.764H67.441zM291.523 17.951h-10.53v7.481h10.53v3.484h-10.53v12.547h-3.879V14.467h14.409zM316.581 41.463h-3.959l-3.603-7.955H297.54l-3.405 7.955h-3.958l11.598-27.154h2.731l12.075 27.154zm-9.143-11.44l-4.354-9.776-4.038 9.776h8.392zM340.769 20.484c-2.852-1.622-6.058-2.691-9.343-2.691-6.531 0-10.688 4.828-10.688 10.251 0 5.027 3.563 10.174 10.728 10.174 3.405 0 6.729-1.148 9.579-3.008v4.235c-3.127 1.702-6.372 2.374-9.816 2.374-10.014 0-14.528-7.52-14.528-13.814 0-7.441 6.059-13.894 14.607-13.894 4.157 0 7.719 1.465 9.462 2.217v4.156zM368.24 29.786c0 2.613 0 6.373-3.049 9.104-2.414 2.138-5.422 2.929-8.51 2.929-3.8 0-7.996-1.305-10.134-4.71-1.504-2.375-1.504-5.502-1.504-7.323V14.467h3.88v15.319c0 3.562.316 4.948 1.701 6.333 1.148 1.188 2.93 2.257 6.057 2.257 4.354 0 6.254-2.257 6.966-3.564.516-.949.753-2.374.753-5.026V14.467h3.84v15.319zM377.308 37.94h12.152v3.523h-16.071V14.466h3.919zM408.936 17.871h-9.421v23.592h-3.879V17.871h-9.263v-3.404h22.563zM423.345 27.173v14.291h-3.958V27.173l-9.976-12.706h4.671l7.244 9.302 7.323-9.302h4.671zM304.903 69.089c0 7.758-5.938 13.896-14.766 13.896-8.47 0-14.25-6.256-14.25-13.776 0-7.166 5.226-13.935 14.448-13.935 8.986-.001 14.568 6.572 14.568 13.815m-25.018.119c0 6.136 4.829 10.173 10.49 10.173 2.889 0 6.016-1.187 7.878-3.207 1.701-1.859 2.691-4.789 2.691-7.125 0-4.473-3.405-10.133-10.451-10.133-7.56 0-10.608 5.78-10.608 10.292M323.905 59.114h-10.53v7.481h10.53v3.483h-10.53v12.548h-3.88V55.63h14.41zM345.717 55.63c1.941 0 3.247.119 4.513.595 2.573.949 4.554 3.087 4.554 6.412 0 2.296-1.029 4.393-4.117 5.7 3.958.752 6.451 3.482 6.451 6.926 0 4.394-3.641 6.255-5.265 6.809-1.583.554-2.85.554-5.739.554h-7.481V55.63h7.084zm-3.246 3.444v8.116h2.574c.989 0 2.691-.081 3.642-.634.752-.397 2.098-1.466 2.098-3.603 0-1.505-.713-2.809-1.9-3.364-1.108-.515-2.691-.515-3.839-.515h-2.575zm0 11.598v8.51h3.841c1.108 0 3.008 0 3.997-.396 1.979-.753 2.811-2.455 2.811-3.88 0-1.146-.554-2.849-2.572-3.68-1.03-.436-2.336-.555-4.434-.555h-3.643zM383.323 70.949c0 2.611 0 6.374-3.048 9.104-2.415 2.138-5.423 2.93-8.51 2.93-3.801 0-7.996-1.307-10.134-4.711-1.505-2.376-1.505-5.503-1.505-7.323V55.631h3.88v15.318c0 3.563.316 4.947 1.702 6.333 1.147 1.188 2.93 2.258 6.057 2.258 4.354 0 6.253-2.258 6.966-3.563.515-.95.753-2.375.753-5.027V55.631h3.839v15.318zM401.335 61.569c-2.295-2.217-4.512-2.811-6.333-2.811-2.652 0-4.274 1.425-4.274 3.127 0 2.296 1.583 3.245 6.729 6.254 1.147.674 2.453 1.623 3.481 3.009.832 1.068 1.466 2.533 1.466 4.474 0 4.235-3.049 7.362-7.838 7.362-2.652 0-5.186-.91-7.283-2.493v-4.909c.792.989 3.206 3.959 7.283 3.959 2.019 0 4.196-1.268 4.196-3.563 0-2.256-2.296-3.919-3.563-4.672-4.275-2.572-5.502-3.324-6.689-4.829-.832-1.069-1.346-2.334-1.346-4.036 0-4.079 3.087-7.166 7.956-7.166 2.217 0 4.354.674 6.214 1.9v4.394zM406.481 55.631h3.88v26.996h-3.88zM441.277 82.626h-3.326l-18.05-20.78v20.78h-3.641V55.63h3.127l18.209 20.94V55.63h3.681zM462.179 59.075h-11.44v8.233h11.044v3.442h-11.044v8.393h11.795v3.484h-15.675V55.631h15.32zM480.111 61.569c-2.296-2.217-4.513-2.811-6.334-2.811-2.652 0-4.274 1.425-4.274 3.127 0 2.296 1.583 3.245 6.729 6.254 1.147.674 2.454 1.623 3.482 3.009.831 1.068 1.465 2.533 1.465 4.474 0 4.235-3.047 7.362-7.838 7.362-2.651 0-5.186-.91-7.283-2.493v-4.909c.792.989 3.206 3.959 7.283 3.959 2.019 0 4.196-1.268 4.196-3.563 0-2.256-2.295-3.919-3.562-4.672-4.276-2.572-5.503-3.324-6.69-4.829-.831-1.069-1.346-2.334-1.346-4.036 0-4.079 3.087-7.166 7.956-7.166 2.217 0 4.354.674 6.215 1.9v4.394zM498.044 61.569c-2.295-2.217-4.512-2.811-6.333-2.811-2.652 0-4.274 1.425-4.274 3.127 0 2.296 1.583 3.245 6.729 6.254 1.147.674 2.453 1.623 3.481 3.009.832 1.068 1.466 2.533 1.466 4.474 0 4.235-3.049 7.362-7.838 7.362-2.652 0-5.186-.91-7.283-2.493v-4.909c.792.989 3.206 3.959 7.283 3.959 2.019 0 4.196-1.268 4.196-3.563 0-2.256-2.296-3.919-3.563-4.672-4.275-2.572-5.502-3.324-6.69-4.829-.831-1.069-1.345-2.334-1.345-4.036 0-4.079 3.086-7.166 7.956-7.166 2.217 0 4.354.674 6.214 1.9v4.394zM300.509 123.79h-3.958l-3.602-7.956h-11.48l-3.404 7.956h-3.958l11.597-27.155h2.732l12.073 27.155zm-9.144-11.44l-4.354-9.775-4.038 9.775h8.392zM312.424 96.794c2.533 0 6.928 0 10.529 2.771 3.008 2.296 5.186 6.097 5.186 10.729 0 6.846-4.829 10.449-6.49 11.479-3.287 2.02-7.007 2.02-9.778 2.02h-8.551V96.794h9.104zm-5.264 3.442v20.071h4.987c2.018 0 5.185-.16 7.48-1.545 2.732-1.702 4.513-4.987 4.513-8.67 0-3.284-1.504-7.045-5.621-8.865-2.216-.991-4.036-.991-6.491-.991h-4.868zM357.869 123.79h-3.879v-21.019l-8.312 10.451h-.713l-8.392-10.451v21.019h-3.879V96.794h3.641l8.986 11.084 8.947-11.084h3.601zM363.531 96.794h3.88v26.997h-3.88zM398.326 123.79h-3.325l-18.05-20.781v20.781h-3.642V96.794h3.127l18.21 20.939V96.794h3.68zM403.948 96.794h3.88v26.997h-3.88zM426.433 102.73c-2.296-2.217-4.513-2.811-6.334-2.811-2.652 0-4.274 1.425-4.274 3.127 0 2.297 1.583 3.247 6.729 6.255 1.147.674 2.454 1.623 3.483 3.008.831 1.069 1.465 2.534 1.465 4.475 0 4.234-3.048 7.361-7.838 7.361-2.652 0-5.187-.909-7.284-2.492v-4.908c.792.988 3.207 3.958 7.284 3.958 2.018 0 4.195-1.268 4.195-3.564 0-2.256-2.295-3.918-3.562-4.669-4.276-2.573-5.502-3.326-6.69-4.829-.831-1.068-1.346-2.337-1.346-4.039 0-4.076 3.087-7.164 7.956-7.164 2.217 0 4.354.673 6.215 1.899v4.393zM451.808 100.197h-9.421v23.594h-3.879v-23.594h-9.262v-3.403h22.562zM462.14 96.794c1.267 0 2.93.118 4.632.87 2.889 1.229 4.235 3.919 4.235 6.65 0 3.127-1.584 5.501-4.513 6.651 2.453 1.622 3.958 4.115 6.017 7.44 1.147 1.86 1.821 2.772 3.682 5.384H471.6c-.91-1.308-4.67-7.203-5.541-8.354-2.652-3.403-3.958-3.403-5.818-3.403h-1.03v11.757h-3.839V96.794h6.768zm-2.93 3.285v8.512h1.505c.594 0 2.691 0 3.761-.397 1.821-.712 2.572-2.414 2.572-3.879 0-1.544-.792-3.008-2.059-3.602-.989-.477-2.256-.634-4.591-.634h-1.188z"/><path class="st0" d="M502.398 123.79h-3.959l-3.602-7.956h-11.48l-3.403 7.956h-3.958l11.598-27.155h2.731l12.073 27.155zm-9.143-11.44l-4.354-9.775-4.039 9.775h8.393zM521.479 100.197h-9.421v23.594h-3.879v-23.594h-9.262v-3.403h22.562zM524.962 96.794h3.88v26.997h-3.88zM562.45 110.253c0 7.759-5.938 13.893-14.766 13.893-8.471 0-14.25-6.254-14.25-13.775 0-7.163 5.226-13.933 14.448-13.933 8.986 0 14.568 6.571 14.568 13.815m-25.017.117c0 6.137 4.829 10.175 10.49 10.175 2.889 0 6.016-1.189 7.877-3.207 1.702-1.86 2.691-4.789 2.691-7.124 0-4.474-3.403-10.135-10.45-10.135-7.561 0-10.608 5.778-10.608 10.291M592.14 123.79h-3.326l-18.049-20.781v20.781h-3.642V96.794h3.127l18.209 20.939V96.794h3.681z"/></svg>