<svg xmlns="http://www.w3.org/2000/svg" viewBox="0 0 728.454 127.019"><style>.st0{fill:#4b4b4d}</style><path class="st0" d="M263.87 11.544l-46.282 115.475h-7.094l46.432-115.475z"/><path fill="#00649c" d="M118.912 14.613h78.84v25.09h-39.518v15.908h37.453v25.014h-37.453v17.821h40.354v25.867h-79.676z"/><path class="st0" d="M73.791 58.782l14.756-36.657c6.454.246 11.848 2.321 21.732 8.325v-9.317c-8.01-4.655-15.863-6.905-23.862-6.905-16.304 0-29.588 12.848-29.588 29.072 0 8.789 2.909 14.628 7.302 18.888l-18.177 45.056L8.256 14.57H0l44.708 110.661h2.337l23.472-58.314c14.519 8.438 35.382 9.706 35.382 30.025 0 12.367-9.521 21.843-21.747 21.843-8.001 0-14.491-2.891-25.966-11.725v9.96c9.057 6.422 17.965 9.635 26.418 9.635 16.758 0 29.902-13.169 29.902-30.034 0-28.32-26.707-28.144-40.715-37.839m-8.357-15.806c0-9.388 5.852-16.951 14.405-19.723L67.931 52.769c-1.578-2.623-2.497-5.804-2.497-9.793M67.366 0h38.06v7.755h-38.06zM291.199 17.931h-10.518v7.473h10.518v3.48h-10.518v12.533h-3.875V14.452h14.393zM316.228 41.417h-3.954l-3.598-7.948h-11.467l-3.4 7.948h-3.954l11.585-27.125h2.729l12.059 27.125zm-9.133-11.427l-4.35-9.765-4.033 9.765h8.383zM327.379 27.223l14.589 14.194h-5.297l-13.76-13.324v13.324h-3.915V14.452h3.915v12.336l11.348-12.336h4.824zM365.142 29.753c0 2.61 0 6.366-3.045 9.095-2.412 2.134-5.417 2.925-8.501 2.925-3.796 0-7.987-1.304-10.122-4.705-1.503-2.373-1.503-5.496-1.503-7.315V14.451h3.875v15.302c0 3.558.317 4.942 1.7 6.327 1.147 1.185 2.927 2.253 6.05 2.253 4.35 0 6.247-2.253 6.958-3.559.515-.948.752-2.372.752-5.021V14.451h3.836v15.302zM374.197 37.898h12.139v3.519h-16.053V14.451h3.914zM405.79 17.851h-9.41v23.566h-3.875V17.851h-9.252v-3.4h22.537zM428.686 41.417h-3.954l-3.598-7.948h-11.467l-3.4 7.948h-3.954l11.585-27.125h2.729l12.059 27.125zm-9.133-11.427l-4.35-9.765-4.034 9.765h8.384zM283.527 55.569c3.203 0 5.694 0 7.948 2.294 1.186 1.186 2.096 2.886 2.096 5.337 0 1.344-.238 3.519-2.254 5.457-1.701 1.621-3.836 2.175-8.026 2.175h-2.848v11.703h-3.875V55.569h6.959zm-3.084 3.401v8.422h3.084c1.542 0 3.124 0 4.271-.713 1.067-.632 1.778-1.858 1.778-3.558 0-.949-.236-2.135-1.185-3.005-1.188-1.146-2.254-1.146-5.022-1.146h-2.926zM324.532 69.012c0 7.75-5.931 13.879-14.749 13.879-8.461 0-14.234-6.248-14.234-13.76 0-7.158 5.219-13.919 14.431-13.919 8.976 0 14.552 6.565 14.552 13.8m-24.99.119c0 6.128 4.824 10.161 10.479 10.161 2.886 0 6.009-1.185 7.868-3.203 1.7-1.856 2.689-4.783 2.689-7.117 0-4.468-3.401-10.122-10.44-10.122-7.551 0-10.596 5.773-10.596 10.281M338.213 55.568c2.532 0 6.92 0 10.518 2.768 3.005 2.293 5.181 6.089 5.181 10.715 0 6.841-4.826 10.439-6.485 11.466-3.283 2.017-6.999 2.017-9.767 2.017h-8.541V55.568h9.094zm-5.257 3.441v20.046h4.982c2.016 0 5.18-.158 7.473-1.541 2.728-1.701 4.507-4.983 4.507-8.661 0-3.283-1.502-7.038-5.615-8.858-2.213-.987-4.032-.987-6.484-.987h-4.863zM383.647 82.534h-3.322l-18.03-20.757v20.757h-3.637V55.569h3.123l18.19 20.915V55.569h3.676zM389.263 55.568h3.876v26.966h-3.876zM407.295 68.34l14.59 14.195h-5.298l-13.76-13.325v13.325h-3.915V55.569h3.915v12.336l11.348-12.336h4.824z"/><path class="st0" d="M448.496 69.012c0 7.75-5.931 13.879-14.748 13.879-8.461 0-14.234-6.248-14.234-13.76 0-7.158 5.22-13.919 14.432-13.919 8.975 0 14.55 6.565 14.55 13.8m-24.989.119c0 6.128 4.824 10.161 10.479 10.161 2.886 0 6.01-1.185 7.869-3.203 1.7-1.856 2.688-4.783 2.688-7.117 0-4.468-3.401-10.122-10.439-10.122-7.552 0-10.597 5.773-10.597 10.281M475.939 82.534h-3.915V70.792h-15.103v11.742h-3.877V55.569h3.877v11.663h15.103V55.569h3.915zM509.471 69.012c0 7.75-5.931 13.879-14.749 13.879-8.461 0-14.233-6.248-14.233-13.76 0-7.158 5.219-13.919 14.431-13.919 8.975 0 14.551 6.565 14.551 13.8m-24.99.119c0 6.128 4.823 10.161 10.479 10.161 2.886 0 6.009-1.185 7.868-3.203 1.7-1.856 2.688-4.783 2.688-7.117 0-4.468-3.4-10.122-10.439-10.122-7.551 0-10.596 5.773-10.596 10.281M526.83 61.5c-2.293-2.215-4.508-2.808-6.326-2.808-2.649 0-4.271 1.424-4.271 3.124 0 2.293 1.582 3.241 6.723 6.246 1.146.673 2.45 1.623 3.478 3.006.831 1.068 1.465 2.531 1.465 4.467 0 4.233-3.046 7.356-7.83 7.356-2.648 0-5.18-.911-7.275-2.492v-4.903c.791.988 3.203 3.954 7.275 3.954 2.017 0 4.191-1.265 4.191-3.558 0-2.254-2.293-3.914-3.558-4.666-4.271-2.57-5.496-3.321-6.684-4.824-.83-1.068-1.343-2.332-1.343-4.032 0-4.074 3.083-7.159 7.946-7.159 2.215 0 4.35.674 6.208 1.899v4.39zM538.692 55.569c3.203 0 5.694 0 7.948 2.294 1.186 1.186 2.096 2.886 2.096 5.337 0 1.344-.237 3.519-2.254 5.457-1.7 1.621-3.836 2.175-8.027 2.175h-2.847v11.703h-3.874V55.569h6.958zm-3.084 3.401v8.422h3.084c1.542 0 3.124 0 4.271-.713 1.067-.632 1.779-1.858 1.779-3.558 0-.949-.237-2.135-1.186-3.005-1.188-1.146-2.254-1.146-5.022-1.146h-2.926zM579.697 69.012c0 7.75-5.932 13.879-14.749 13.879-8.461 0-14.233-6.248-14.233-13.76 0-7.158 5.219-13.919 14.431-13.919 8.975 0 14.551 6.565 14.551 13.8m-24.99.119c0 6.128 4.824 10.161 10.479 10.161 2.887 0 6.01-1.185 7.869-3.203 1.7-1.856 2.688-4.783 2.688-7.117 0-4.468-3.401-10.122-10.439-10.122-7.552 0-10.597 5.773-10.597 10.281M593.379 55.568c2.531 0 6.92 0 10.519 2.768 3.004 2.293 5.18 6.089 5.18 10.715 0 6.841-4.824 10.439-6.484 11.466-3.283 2.017-6.999 2.017-9.767 2.017h-8.541V55.568h9.093zm-5.258 3.441v20.046h4.98c2.018 0 5.181-.158 7.474-1.541 2.729-1.701 4.508-4.983 4.508-8.661 0-3.283-1.502-7.038-5.615-8.858-2.213-.987-4.033-.987-6.484-.987h-4.863zM634.938 82.535h-3.955l-3.598-7.948h-11.467l-3.4 7.948h-3.954l11.585-27.125h2.729l12.06 27.125zm-9.133-11.428l-4.35-9.766-4.033 9.766h8.383zm1.62-23.327l-6.484 5.931h-2.057l2.888-5.931h5.653zM644.586 55.568c1.266 0 2.927.119 4.627.871 2.886 1.225 4.23 3.914 4.23 6.641 0 3.125-1.581 5.498-4.508 6.644 2.451 1.622 3.953 4.111 6.011 7.433 1.146 1.858 1.817 2.767 3.677 5.378h-4.587c-.909-1.305-4.665-7.197-5.535-8.343-2.649-3.4-3.954-3.4-5.812-3.4h-1.029v11.743h-3.835V55.568h6.761zm-3.598-8.065l4.112 3.755 4.151-3.755h2.412l-3.717 6.207h-5.614l-3.796-6.207h2.452zm.672 11.347v8.501h1.503c.593 0 2.688 0 3.757-.395 1.818-.712 2.569-2.412 2.569-3.876 0-1.541-.791-3.003-2.057-3.597-.988-.474-2.253-.633-4.586-.633h-1.186zM674.203 61.5c-2.293-2.215-4.508-2.808-6.326-2.808-2.649 0-4.271 1.424-4.271 3.124 0 2.293 1.582 3.241 6.723 6.246 1.146.673 2.45 1.623 3.479 3.006.83 1.068 1.464 2.531 1.464 4.467 0 4.233-3.045 7.356-7.83 7.356-2.648 0-5.18-.911-7.275-2.492v-4.903c.792.988 3.203 3.954 7.275 3.954 2.017 0 4.192-1.265 4.192-3.558 0-2.254-2.293-3.914-3.559-4.666-4.271-2.57-5.496-3.321-6.683-4.824-.831-1.068-1.344-2.332-1.344-4.032 0-4.074 3.083-7.159 7.946-7.159 2.215 0 4.35.674 6.208 1.899v4.39zM687.688 68.34l14.589 14.195h-5.298l-13.76-13.325v13.325h-3.914V55.569h3.914v12.336l11.348-12.336h4.824z"/><path class="st0" d="M728.454 82.535h-3.955l-3.598-7.948h-11.467l-3.4 7.948h-3.954l11.585-27.125h2.729l12.06 27.125zm-9.134-11.428l-4.35-9.766-4.033 9.766h8.383zm1.62-23.327l-6.484 5.931H712.4l2.887-5.931h5.653z"/></svg>