<svg xmlns="http://www.w3.org/2000/svg" viewBox="0 0 567.081 127.16"><style>.st0{fill:#fff}</style><path class="st0" d="M264.165 11.558L217.831 127.16h-7.103l46.484-115.602zM119.045 14.631h78.928v25.117H158.41v15.925h37.495v25.043H158.41v17.841h40.4v25.895h-79.765zM73.873 58.847l14.773-36.698c6.461.247 11.861 2.325 21.756 8.334v-9.326c-8.019-4.661-15.88-6.913-23.888-6.913-16.323 0-29.622 12.861-29.622 29.104 0 8.799 2.912 14.644 7.31 18.91l-18.197 45.105-37.74-92.777H0l44.758 110.786h2.339l23.498-58.379c14.536 8.447 35.422 9.717 35.422 30.059 0 12.381-9.531 21.865-21.772 21.865-8.009 0-14.507-2.894-25.994-11.736v9.971c9.067 6.429 17.985 9.646 26.447 9.646 16.777 0 29.936-13.186 29.936-30.067 0-28.354-26.737-28.178-40.761-37.884m-8.366-15.824c0-9.398 5.858-16.97 14.421-19.746l-11.921 29.55c-1.58-2.625-2.5-5.807-2.5-9.804M67.441 0h38.103v7.764H67.441zM291.523 17.952h-10.529v7.48h10.529v3.485h-10.529v12.546h-3.88V14.467h14.409zM316.581 41.463h-3.959l-3.603-7.955H297.54l-3.404 7.955h-3.958l11.598-27.153h2.731l12.074 27.153zm-9.143-11.44l-4.354-9.776-4.039 9.776h8.393zM327.744 27.254l14.606 14.209h-5.304l-13.775-13.338v13.338h-3.918V14.467h3.918v12.35l11.361-12.35h4.829zM365.548 29.787c0 2.612 0 6.372-3.048 9.104-2.414 2.138-5.423 2.928-8.51 2.928-3.801 0-7.996-1.305-10.134-4.709-1.505-2.376-1.505-5.503-1.505-7.323v-15.32h3.88v15.32c0 3.561.316 4.947 1.702 6.333 1.147 1.187 2.93 2.256 6.057 2.256 4.354 0 6.254-2.256 6.966-3.564.515-.949.753-2.374.753-5.025v-15.32h3.839v15.32zM374.615 37.941h12.152v3.522h-16.072V14.466h3.92zM406.242 17.871h-9.421v23.592h-3.878V17.871h-9.263v-3.404h22.562zM429.164 41.463h-3.959l-3.602-7.955h-11.48l-3.403 7.955h-3.959l11.598-27.153h2.732l12.073 27.153zm-9.143-11.44l-4.354-9.776-4.039 9.776h8.393zM302.171 82.627h-3.879v-21.02l-8.313 10.452h-.711l-8.393-10.452v21.02h-3.878V55.631h3.639l8.986 11.082 8.946-11.082h3.603zM331.228 82.627h-3.959l-3.602-7.958h-11.48l-3.403 7.958h-3.958l11.597-27.155h2.732l12.073 27.155zm-9.144-11.44l-4.354-9.776-4.037 9.776h8.391zM359.136 82.627h-3.326l-18.05-20.782v20.782h-3.642V55.631h3.127l18.209 20.939V55.631h3.682zM388.152 82.627h-3.959l-3.602-7.958h-11.48l-3.403 7.958h-3.959l11.598-27.155h2.732l12.073 27.155zm-9.143-11.44l-4.354-9.776-4.038 9.776h8.392zM413.012 80.766c-2.058.91-5.384 2.219-9.896 2.219-10.449 0-14.765-7.483-14.765-13.616 0-7.127 5.344-14.095 14.606-14.095 3.801 0 6.611 1.07 9.5 2.298v3.958c-4.433-2.572-8.074-2.81-9.579-2.81-5.383 0-10.489 4.037-10.489 10.411 0 5.977 4.314 10.449 10.846 10.449 1.979 0 3.324-.355 5.898-1.188v-5.619h-5.186v-3.404h9.064v11.397zM433.756 59.075h-11.44v8.233h11.043v3.442h-11.043v8.393h11.795v3.485h-15.673V55.632h15.318zM463.959 82.627h-3.879v-21.02l-8.312 10.452h-.712l-8.393-10.452v21.02h-3.878V55.631h3.641l8.985 11.082 8.946-11.082h3.602zM484.901 59.075h-11.439v8.233h11.043v3.442h-11.043v8.393h11.794v3.485h-15.674V55.632h15.319zM515.145 82.627h-3.326L493.77 61.845v20.782h-3.643V55.631h3.127l18.21 20.939V55.631h3.681zM540.994 59.036h-9.421v23.592h-3.879V59.036h-9.262v-3.405h22.562zM567.081 70.949c0 2.611 0 6.373-3.049 9.104-2.414 2.138-5.422 2.93-8.51 2.93-3.8 0-7.996-1.307-10.134-4.712-1.504-2.374-1.504-5.5-1.504-7.322V55.632h3.879v15.317c0 3.563.317 4.948 1.702 6.334 1.148 1.188 2.929 2.258 6.057 2.258 4.354 0 6.254-2.258 6.966-3.564.516-.949.753-2.374.753-5.027V55.632h3.84v15.317z"/></svg>