<svg version="1.0" xmlns="http://www.w3.org/2000/svg" width="1066.667" height="1066.667" viewBox="0 0 800 800"><path d="M271.4 160.2c0 14.1.2 15.3 1.9 15.8 1 .3 35.4.5 76.5.4l74.7-.1.1-15.6.1-15.7H271.4v15.2zM338.8 202.5c-.2.2-2.8.5-5.8.9-3 .3-6.4.7-7.5 1-18.5 4.1-30.7 9.1-45 18.5-6.7 4.4-19.4 15.5-22.4 19.5-.8 1.1-2.3 2.8-3.2 3.7-3.1 3.1-10.1 14.3-14.5 23.1-2.3 4.9-4.1 8.8-3.8 8.8.2 0-.2 1.2-.9 2.7-1.2 2.4-2.7 7.5-4.3 14.8-2.6 11.7-2.4 47.2.3 51.7.2.4 1.1 3.4 1.9 6.5.8 3.2 1.8 6.7 2.3 7.8 2.9 6.6 7.5 16.1 8.1 16.5.4.3 1.8 2.2 3.2 4.3 1.4 2 4.1 5.4 5.9 7.5 1.9 2 3.8 4.3 4.3 5 .6.9-10.7 30.8-16.4 43.7-1.4 3.1-11.1 26.9-11.4 28-.1.5-.8 2.1-1.4 3.5-1.5 3.6-8.7 21.4-8.8 22 0 .3-.8 2.3-1.8 4.5-.9 2.2-2.1 4.9-2.5 6-.5 1.1-1.7 4-2.7 6.5-1.1 2.4-1.9 4.7-2 5 0 .3-.8 2.2-1.7 4.4-.9 2.1-1.7 4.1-1.7 4.3 0 .3-.7 2-1.5 3.9s-2.2 4.9-3 6.8c-.8 1.9-1.5 3.7-1.5 4.1 0 .4-.7 2.1-1.5 3.8-.8 1.8-2.4 5.7-3.6 8.7-1.1 3-2.6 6.6-3.2 8-.6 1.4-1.1 2.7-1.2 3-.3.9-1.8 4.5-3.5 8.5-1 2.2-2 4.7-2.2 5.5-.3.9-1.3-.2-2.5-3-2.4-5.2-1.6-3.4-20.3-49.5-7.7-19.3-14.7-36.4-15.4-38-.8-1.7-4.2-10-7.6-18.5-3.4-8.5-6.8-16.9-7.5-18.5-.7-1.7-2.7-6.6-4.4-11-1.8-4.4-3.6-8.9-4.1-10-.5-1.1-3.9-9.4-7.6-18.5-3.6-9.1-7.2-17.9-7.9-19.5-.8-1.7-3.1-7.5-5.3-13-2.2-5.5-6.1-15.1-8.6-21.3-2.5-6.1-6.6-16.3-9.1-22.5-2.5-6.1-5-12.1-5.5-13.2-.5-1.1-2.3-5.6-4.1-10-1.7-4.4-3.7-9.4-4.4-11-.7-1.7-2.8-6.6-4.5-11-1.7-4.4-3.7-9.4-4.5-11-.7-1.7-2.2-5.5-3.4-8.5-1.2-3-2.6-6.4-3.1-7.5-1.6-3.4-9.1-21.9-9.4-23-.1-.6-.8-2-1.4-3.3-.7-1.2-1-2.2-.6-2.2.3 0 .2-.6-.4-1.3-.5-.6-2.2-4.4-3.6-8.2-1.5-3.9-3.6-8.8-4.7-11.1-1-2.3-1.9-4.6-1.9-5.3 0-.6-.6-1.1-1.2-1.2-4.6-.4-31.1-.3-31.8.1-.7.5 1.5 6.8 5.6 15.7.8 1.7 1.4 3.5 1.4 4 0 .4 1 2.6 2.1 4.8 1.2 2.2 2.1 4.1 2.1 4.2-.2.5 1 3.7 2.9 8 1 2.4 1.9 4.5 1.9 4.7 0 .3.5 1.7 1.2 3.3.6 1.5 1.2 3 1.3 3.3.1.3.6 1.6 1.2 3 1.3 3 24.9 61.4 29.3 72.5 1.8 4.4 3.8 9.3 4.5 11 .7 1.6 6.5 16 12.9 32 6.4 15.9 12.1 29.9 12.6 31 .5 1.1 1.9 4.5 3 7.5s2.5 6.5 3 7.7c2.8 6.5 7.9 19.1 23 56.8 7.3 18.1 14 34.8 15 37 1 2.2 3 7.1 4.4 11 1.5 3.8 3.3 8.3 4.1 10 .7 1.6 4 9.7 7.3 18 8.5 21.3 15.1 37.6 16.2 40.2 2.9 6.7 22 53.9 23.1 57.2.8 2.1 1.5 2.6 4.2 2.4 1.7-.1 3.9-.2 4.8-.2.9-.1 2.2-1.6 2.9-3.4.7-1.7 1.7-4.3 2.2-5.7.6-1.4 1.4-3.4 1.9-4.5.4-1.1 2.2-5.4 3.9-9.5 1.8-4.1 3.3-8.2 3.5-9 .3-.8 2.3-6 4.5-11.5 2.3-5.5 10.2-25.1 17.6-43.5 7.4-18.4 13.9-34.4 14.4-35.5.5-1.1 4.6-11.2 9-22.5 4.5-11.3 8.5-21.4 9-22.5.5-1.1 2-4.7 3.3-8 1.3-3.3 2.8-6.9 3.2-8 .5-1.1.9-2.2 1-2.5.1-.3.6-1.6 1.2-3s3-7.2 5.2-13c2.3-5.8 4.6-11.4 5.1-12.5.5-1.1 2.3-5.6 4-10 1.8-4.4 3.5-8.3 3.8-8.7.4-.4 5.2 1.5 10.7 4.2 5.5 2.8 15 7.1 21 9.6 6.1 2.5 12.4 5.2 14 5.9 1.7.7 9.8 4.1 18 7.6 16.8 7 34.2 15.7 39.4 19.6.9.7 4.3 3.2 7.7 5.7 12.1 9 22.1 22.2 26.9 35.6 2 5.4 2.5 7.4 3.1 12 .3 1.9.9 4.6 1.3 6 1.5 4.9.4 25.1-1.8 34.4-2.2 9.4-9.3 25.4-13 29.5-1.1 1.3-2.1 2.7-2.1 3.1 0 1.1-12.2 13.5-16.2 16.4-6.1 4.5-14.5 9.3-18.5 10.6-2.1.7-4.2 1.6-4.8 2-.9.6-3 1.3-8 2.6-.5.1-2.3.5-4 .8-1.6.3-4.1.8-5.5 1.1-7.8 1.7-27.1.4-42.3-2.9-11.4-2.5-41.9-18.2-53.2-27.4-.6-.5-2.4-1.7-4-2.8-1.7-1-3.4-2.2-4-2.7-.5-.4-3.2-2.4-6-4.5-2.7-2-5.1-4-5.3-4.5-.2-.4-.9-.7-1.6-.7-.9 0-1.2 4.7-1 19.3.1 10.5.2 19.5.3 19.8.1.7 13 9.3 20.1 13.3 9.7 5.6 31.1 15.6 33.4 15.6.8 0 1.7.4 2 .9.3.4 1.8 1.1 3.3 1.5 1.6.3 6.1 1.5 10 2.5 4 1.1 9.2 2.3 11.5 2.6 2.4.4 6.3 1.1 8.8 1.5 4.9 1 28.7.7 36-.4 6.1-1 8.5-1.4 8.5-1.6 0-.1.7-.3 1.5-.5 4.5-.9 16-4.9 21.8-7.6 6.2-2.8 18.1-9.5 19.2-10.8.3-.4 2.3-1.9 4.5-3.6 6.2-4.6 17.8-16.6 22.8-23.6 6.1-8.6 10.7-16.6 10-17.3-.4-.3-.1-.6.5-.6.7 0 1.2-.8 1.2-1.8s.4-2.2.9-2.7c.8-1 5-11.6 5.6-14.5.2-.8.8-3.5 1.4-6 1.3-5.7 2.1-10.5 2.6-15 .6-5.2.7-27.4.1-30.2-.3-1.2-.7-4.1-1-6.3-3.2-27-18.2-52.9-40-69.1-3.3-2.5-6.9-5.2-7.9-6-.9-.8-2-1.4-2.3-1.4-.3 0-1.8-.9-3.3-1.9-2.7-1.9-24.5-13.1-25.8-13.2-.5-.1-2.4-.9-4.4-2-2-1-11.7-5-21.5-8.9-18.8-7.5-32.5-13.3-35.9-15.2-1.1-.7-3.3-1.8-5-2.6-1.6-.8-6-3.3-9.7-5.4l-6.6-3.9 10.5-26.2c5.7-14.4 10.9-27.1 11.3-28.2 1.6-3.4 17.1-41.9 17.4-43 .2-.6.8-2.1 1.3-3.5.6-1.4 3.4-8.4 6.3-15.5 2.9-7.2 5.7-14.1 6.3-15.5.6-1.4 1.1-2.7 1.2-3 .1-.3.6-1.6 1.2-3s1.8-4.2 2.6-6.3l1.6-3.7 5.8.5c3.2.3 6.9.8 8.3 1 1.4.3 3.9.7 5.6 1 10.2 1.6 37.2 13.1 52.9 22.5 2.8 1.6 5.7 3.2 6.5 3.6.8.4 2.8 1.6 4.3 2.7 1.6 1 3.1 1.6 3.4 1.3.4-.3.7-8.5.7-18.2l.1-17.6-2.5-1.8c-3.6-2.5-12.7-7.3-18.7-9.8-6-2.6-10.6-4.5-11.3-4.7-.3-.1-1.2-.5-2-.8-2.7-1.1-10.5-3.8-12.4-4.2-1-.2-5.5-1.3-10-2.4-9-2.3-11.6-2.8-19.6-3.7-5.7-.6-28.7-1.3-29.2-.9zM321 240.3c0 .7-.4 1.7-.8 2.2-.5.6-2 3.9-3.2 7.5-1.3 3.6-3 7.6-3.7 9-.7 1.4-1.3 3-1.3 3.6 0 .5-1 3-2.2 5.5-1.2 2.4-2.3 4.8-2.4 5.4-.3 1.4-9.2 23.3-10.9 27-.7 1.6-1.1 3.3-.9 3.7.3.4.1.8-.4.8-.6 0-1.3 1.2-1.7 2.7-.3 1.5-1.5 4.8-2.6 7.3-4.8 10.8-7.9 19-7.9 20.5 0 .7-.7 1.8-1.5 2.5s-1.5 1.9-1.5 2.7c0 1.5-1.2 4.4-5 12.8l-1.8 4-1.7-4c-.9-2.2-2.3-5.4-3-7-3.2-7-4.9-17.5-4.8-29.1.4-34.2 18.7-61.8 50.8-76.1 5.9-2.6 6.5-2.7 6.5-1zM479.4 203.9c-.2.2-.4 99.7-.4 221v220.6h321v-104H637.5l-.1-35c0-19.3.1-35.5.3-36 .2-.7 26-1 74.9-.9 70 0 74.7-.1 75.3-1.7.3-1 .6-23.5.6-50.1l-.1-48.3-75.4-.5-75.5-.5v-31.8l-.1-31.7h79.3c43.6 0 79.4-.3 79.5-.8.4-2.2.3-100.2-.1-100.3-3.1-.3-316.4-.3-316.7 0z"/></svg>