<?xml version="1.0" standalone="no"?>
<!DOCTYPE svg PUBLIC "-//W3C//DTD SVG 1.1//EN" "http://www.w3.org/Graphics/SVG/1.1/DTD/svg11.dtd" >
<svg xmlns="http://www.w3.org/2000/svg">
<metadata>Generated by IcoMoon</metadata>
<defs>
<font id="icons" horiz-adv-x="1024">
<font-face units-per-em="1024" ascent="960" descent="-64" />
<missing-glyph horiz-adv-x="1024" />
<glyph unicode="&#x20;" horiz-adv-x="512" d="" />
<glyph unicode="&#xe900;" glyph-name="logo" d="M613.14 699.206h406.522v-129.376h-203.764v-82.028h193.133v-128.976h-193.133v-91.905h208.083v-133.359h-410.841zM380.49 471.468l76.080 189.013c33.284-1.276 61.087-11.972 112.071-42.922v48.029c-41.315 24.011-81.796 35.615-123.050 35.615-84.069 0-152.562-66.259-152.562-149.909 0-45.33 14.999-75.434 37.657-97.4l-93.736-232.322-194.375 477.85h-42.575l230.532-570.595h12.046l121.027 300.688c74.862-43.531 182.443-50.058 182.443-154.818 0-63.78-49.086-112.628-112.137-112.628-41.25 0-74.723 14.908-133.891 60.444v-51.35c46.705-33.126 92.64-49.698 136.23-49.698 86.401 0 154.189 67.911 154.189 154.876 0 146.032-137.705 145.128-209.947 195.12zM337.394 552.958c0 48.406 30.177 87.415 74.274 101.702l-61.409-152.196c-8.144 13.533-12.88 29.931-12.88 50.5zM347.369 774.551h196.243v-39.983h-196.243v39.983z" />
<glyph unicode="&#xe901;" glyph-name="logo-full, logo-full-cs" horiz-adv-x="1008" d="M268.059-5.070l-5.802 3.161 3.638 68.272 14.505-7.905-2.5-38.185 30.019 23.197 14.347-7.818zM413.989 6.871c3.841-0.822 8.467-1.816 12.479-5.241 4.477-3.793 7.273-10.331 5.806-17.136-1.332-6.196-5.799-11.26-11.821-13.347-5.135-1.816-9.763-0.819-14.65 0.232l-8.812 1.897-5.144-23.913-15.011 3.235 12.808 59.515 24.345-5.241zM402.287-2.112l-2.951-13.701 4.89-1.051c4.799-1.032 11.17-2.403 12.673 4.577 1.445 6.722-5.099 8.131-9.376 9.050l-5.235 1.126zM487.811-2.067c5.532-0.197 11.063-0.393 15.859-3.6 3.138-2.255 7.686-7.422 7.431-14.646-0.364-10.163-8.341-13.456-10.973-14.614 4.296-2.296 7.109-8.557 8.334-11.731 1.571-3.535 3.958-9.338 5.435-12.876l1.9-4.445-16.682 0.6c-1.245 2.725-6.080 14.953-7.241 17.404-3.832 7.822-6.864 7.928-11.144 8.080l-2.232 0.081-0.881-24.797-15.346 0.545 2.167 60.834 23.371-0.835zM479.39-12.843l-0.497-13.911 6.335-0.229c3.932 0.042 4.912 0.010 6.548 0.842 2.274 1.081 3.422 3.271 3.512 5.77 0.248 6.957-6.531 7.193-8.228 7.26l-7.67 0.268zM613.424-52.48l-16.156-2.422-6.731 11.176-26.929-4.038-2.716-12.592-15.891-2.38 15.25 63.847 17.398 2.606 35.776-56.196zM571.342-12.033l-5.332-24.632 18.536 2.777-13.205 21.855zM662.447-25.709l31.325 11.015 3.787-10.776-55.744-19.597 15.179 57.751-29.387-10.331-3.787 10.779 53.554 18.827zM771.213 13.028l-39.076-22.1-29.967 52.983 38.534 21.797 5.583-9.87-25.174-14.234 6.064-10.724 24.003 13.582 5.628-9.947-24.010-13.576 7.212-12.744 25.71 14.543zM154.483 171.485l4.054-5.212-30.583-61.099-10.134 13.027 17.53 33.992-36.763-9.273-10.021 12.885zM79.122 239.592l25.59 12.473 6.686-13.724-25.593-12.469-18.604-35.77-8.012 16.446 11.299 20.397-23.029 3.67-7.976 16.359zM30.467 332.087c-0.897-4.583-2.642-12.905-0.635-20.401 2.309-8.621 6.602-7.747 7.206-7.586 3.532 0.945 4.054 7.273 4.812 16.53 0.684 8.131 2.813 18.12 14.192 21.168 13.618 3.645 21.22-9.56 23.574-18.356 2.654-9.908 0.513-20.552-0.126-22.294l-12.673-3.393c1.829 5.938 4.167 13.772 1.858 22.387-0.51 1.9-2.442 8.77-7.699 7.36-3.88-1.035-4.183-4.725-4.78-13.195-0.668-9.231-1.942-21.033-14.356-24.352-8.963-2.4-18.73 3.019-22.678 17.759-1.248 4.654-2.3 10.657-0.761 21.136l12.066 3.235zM65.098 414.744c0.903-21.039-13.756-35.334-29.625-36.015-14.176-0.613-31.799 10.421-32.796 33.599-0.922 21.488 13.927 35.528 29.796 36.208 14.089 0.606 31.606-10.163 32.625-33.792zM15.605 412.796c0.471-10.876 7.418-18.794 19.456-18.278 14.534 0.623 18.030 12.744 17.717 19.965-0.416 9.718-7.241 18.894-19.278 18.378-11.321-0.487-18.401-8.202-17.894-20.065zM39.069 523.762l36.36 21.136-3.187-18.733-32.206-19.039 28.145-4.796-2.561-15.034-59.979 10.208 2.558 15.040 27.177-4.628-23.926 23.71 2.8 16.449zM34.986 626.688l-3.383-8.357-11.718 16.008 6.428 15.885 8.673-23.536zM108.615 635.209l-6.128-15.137-13.040-0.116-10.212-25.232 9.463-8.738-6.028-14.892-47.216 45.581 6.596 16.301 66.566 2.232zM52.406 619.543l18.494-17.111 7.028 17.375-25.523-0.264zM94.685 760.354l5.361 6.335 13.772 1.906-0.513 13.763 5.248 6.199 4.951-17.636-10.492-12.398-18.327 1.832zM147.313 767.144c-4.277-1.877-12.105-5.19-17.12-11.115-5.767-6.818-2.603-9.847-2.122-10.25 2.79-2.361 8.289 0.816 16.324 5.48 7.073 4.070 16.495 8.022 25.49 0.41 10.763-9.109 4.248-22.891-1.632-29.835-6.631-7.838-16.595-12.15-18.391-12.614l-10.015 8.473c5.922 1.884 13.689 4.432 19.452 11.247 1.271 1.5 5.815 7.009 1.658 10.524-3.067 2.593-6.267 0.742-13.569-3.603-7.967-4.712-18.388-10.399-28.2-2.097-7.086 5.999-8.199 17.117 1.658 28.767 3.116 3.68 7.444 7.97 16.93 12.679l9.537-8.067zM214.618 811.98l41.195-8.473-14.863-11.837-36.698 7.264 17.785-22.333-11.931-9.505-37.911 47.594 11.931 9.508 17.178-21.565-2.035 33.625 13.053 10.395zM309.128 832.329c-18.878-9.341-37.885-1.716-44.93 12.527-6.293 12.718-3.332 33.299 17.465 43.588 19.281 9.541 38.127 1.638 45.172-12.605 6.251-12.637 3.496-33.025-17.707-43.511zM287.324 876.807c-9.76-4.832-14.188-14.388-8.85-25.187 6.454-13.043 18.952-11.337 25.432-8.134 8.721 4.316 14.353 14.272 9.009 25.071-5.025 10.16-14.95 13.514-25.59 8.251zM421.094 871.537l-44.994-11.318-14.846 59.009 14.885 3.748 12.082-48.023 30.112 7.576zM519.556 879.716l-16.317-0.7-5.509 11.824-27.193-1.171-4.029-12.231-16.050-0.69 21.904 61.86 17.565 0.755 29.628-59.647zM481.996 924.372l-7.905-23.919 18.723 0.803-10.818 23.116zM661.676 850.326l-42.717 13.776 18.672 57.922 42.127-13.582-3.477-10.782-27.516 8.87-3.78-11.718 26.245-8.467-3.506-10.873-26.242 8.467-4.493-13.93 28.116-9.063zM741.040 847.44l7.638-41.372-16.562 9.321-7.067 36.753-14.011-24.887-13.295 7.486 29.854 53.035 13.298-7.483-13.524-24.029 30.396 14.53 14.547-8.183zM795.478 767.508c-15.766 13.963-15.866 34.437-5.335 46.326 9.408 10.621 29.583 15.637 46.952 0.252 16.095-14.259 15.879-34.689 5.348-46.578-9.354-10.553-29.267-15.679-46.965 0zM828.448 804.461c-8.147 7.215-18.669 7.718-26.658-1.3-9.644-10.886-3.358-21.82 2.051-26.613 7.283-6.448 18.62-7.909 26.609 1.103 7.512 8.483 6.877 18.939-2.003 26.809zM882.451 666.153l-7.293 10.366 11.45 49.181-30.802-21.662-8.676 12.334 49.777 35.015 7.96-11.315-10.605-47.281 29.341 20.639 8.628-12.266zM912.914 600.591c-7.764 19.578 1.39 37.895 16.156 43.749 13.189 5.232 33.46 0.597 42.011-20.968 7.928-19.997-1.49-38.131-16.253-43.985-13.105-5.199-33.199-0.781-41.914 21.204zM959.021 618.682c-4.012 10.121-13.179 15.317-24.377 10.876-13.524-5.364-12.847-17.959-10.183-24.674 3.58-9.044 13.047-15.469 24.248-11.028 10.531 4.177 14.685 13.795 10.312 24.826zM945.001 466.66l-2.109 15.195 36.853 5.119-21.691 13.469-0.306 2.209 17.195 18.869-36.844-5.112-2.109 15.198 60.263 8.363 1.851-13.343-20.236-22.265 25.568-16.172 1.832-13.166zM1005.35 422.466l-0.697-15.331-60.786 2.762 0.697 15.331 60.786-2.762zM933.231 313.293c-2.684 9.737-2.422 17.085-0.739 24.661 5.135 23.091 22.765 31.244 38.008 27.854 14.985-3.332 28.054-18.585 22.691-42.714-2.403-10.802-7.464-17.536-9.973-20.181l-13.679 3.038c2.374 2.032 8.673 8.586 10.96 18.869 2.751 12.369-2.361 23.107-13.25 25.529-11.676 2.596-20.417-5.886-22.897-17.040-1.242-5.577-0.832-11.15 0.59-16.678l1.964-6.38-13.676 3.042zM931.215 234.803l-40.621-10.944 7.96 17.259 36.060 10.005-25.932 11.96 6.389 13.856 55.27-25.487-6.393-13.856-25.039 11.547 16.93-29.135-6.986-15.156zM835.057 145.259l9.841 13.031 12.624-3.271 16.401 21.717-6.873 10.892 9.683 12.814 33.776-56.254-10.592-14.027-64.859 15.098zM893.398 145.817l-13.421 21.317-11.292-14.953 24.713-6.364zM908.37 134.4l5.432 7.193 7.17-18.498-10.324-13.669-2.277 24.974zM535.092 594.63h226.722v-72.152h-113.643v-45.749h107.709v-71.936h-107.709v-51.248h116.050v-74.384h-229.128zM405.335 467.615l42.433 105.415c18.559-0.706 34.073-6.673 62.498-23.939v26.793c-23.039 13.385-45.62 19.856-68.623 19.856-46.887 0-85.086-36.95-85.086-83.602 0-25.277 8.363-42.072 20.997-54.319l-52.274-129.567-108.409 266.501h-23.745l128.574-318.236h6.718l67.501 167.694c41.753-24.265 101.748-27.906 101.748-86.344 0-35.566-27.377-62.814-62.54-62.814-23.007 0-41.672 8.312-74.671 33.715v-28.645c26.048-18.465 51.664-27.706 75.974-27.706 48.191 0 85.989 37.873 85.989 86.366 0 81.451-76.803 80.948-117.085 108.831zM381.302 513.064c0 26.997 16.827 48.749 41.424 56.722l-34.244-84.883c-4.538 7.544-7.18 16.688-7.18 28.161zM386.853 636.654h109.457v-22.3h-109.457v22.3z" />
<glyph unicode="&#xe902;" glyph-name="user" d="M10.24-20.992c0-24.576 18.432-43.008 43.008-43.008h919.552c24.576 0 43.008 18.432 43.008 43.008v4.096c-4.096 217.088-139.264 395.264-331.776 466.944 67.584 53.248 114.688 135.168 114.688 225.28 0 159.744-129.024 284.672-284.672 284.672-159.744 4.096-288.768-124.928-288.768-278.528 0-92.16 43.008-174.080 114.688-225.28-190.464-73.728-329.728-256-329.728-477.184zM313.344 681.472c0 110.592 86.016 196.608 196.608 196.608s196.608-86.016 196.608-196.608c0-110.592-86.016-196.608-196.608-196.608-104.448 0-196.608 86.016-196.608 196.608zM509.952 396.8c210.944 0 389.12-163.84 413.696-370.688h-821.248c18.432 206.848 196.608 370.688 407.552 370.688z" />
<glyph unicode="&#xe903;" glyph-name="arr-left" d="M778.24 945.664c18.432-18.432 18.432-51.2 0-69.632l-425.984-425.984 425.984-425.984c18.432-18.432 18.432-51.2 0-69.632s-51.2-18.432-69.632 0l-462.848 462.848c-10.24 10.24-16.384 26.624-12.288 38.912 0 12.288 4.096 26.624 12.288 38.912l462.848 462.848c18.432 6.144 49.152 6.144 69.632-12.288z" />
<glyph unicode="&#xe904;" glyph-name="arr-right" d="M317.44 951.808l460.8-462.848c10.24-12.288 12.288-26.624 12.288-38.912 4.096-12.288-4.096-28.672-12.288-38.912l-462.848-462.848c-18.432-18.432-51.2-18.432-69.632 0s-18.432 51.2 0 69.632l425.984 425.984-425.984 425.984c-18.432 18.432-18.432 51.2 0 69.632 20.48 24.576 51.2 24.576 71.68 12.288z" />
<glyph unicode="&#xe905;" glyph-name="arr-up" d="M1009.664 181.76c-18.432-18.432-51.2-18.432-69.632 0l-425.984 425.984-425.984-425.984c-18.432-18.432-51.2-18.432-69.632 0s-18.432 51.2 0 69.632l462.848 462.848c10.24 10.24 26.624 16.384 38.912 12.288 12.288 0 26.624-4.096 38.912-12.288l462.848-462.848c6.144-18.432 6.144-49.152-12.288-69.632z" />
<glyph unicode="&#xe906;" glyph-name="arr-down" d="M1015.808 642.56l-462.848-460.8c-12.288-10.24-26.624-12.288-38.912-12.288-12.288-4.096-28.672 4.096-38.912 12.288l-462.848 462.848c-18.432 18.432-18.432 51.2 0 69.632s51.2 18.432 69.632 0l425.984-425.984 425.984 425.984c18.432 18.432 51.2 18.432 69.632 0s24.576-51.2 12.288-71.68z" />
<glyph unicode="&#xe907;" glyph-name="arrow-left" d="M466.944 851.456c26.624-26.624 26.624-67.584 0-94.208l-243.712-243.712h735.232c36.864 0 67.584-30.72 67.584-67.584s-30.72-67.584-67.584-67.584h-733.184l241.664-241.664c26.624-26.624 26.624-67.584 0-94.208s-67.584-26.624-94.208 0l-354.304 356.352c-14.336 12.288-18.432 30.72-18.432 49.152s4.096 36.864 18.432 49.152l354.304 354.304c24.576 26.624 67.584 26.624 94.208 0z" />
<glyph unicode="&#xe908;" glyph-name="arrow-right" d="M651.264 851.456l354.304-354.304c14.336-14.336 18.432-32.768 18.432-49.152 0-18.432-4.096-36.864-18.432-49.152l-354.304-354.304c-26.624-26.624-67.584-26.624-94.208 0s-26.624 67.584 0 94.208l241.664 241.664h-731.136c-36.864 0-67.584 30.72-67.584 67.584s30.72 67.584 67.584 67.584h735.232l-245.76 241.664c-26.624 26.624-26.624 67.584 0 94.208s69.632 26.624 94.208 0z" />
<glyph unicode="&#xe909;" glyph-name="arrow-up" d="M108.544 587.264l354.304 354.304c12.288 14.336 30.72 18.432 49.152 18.432s36.864-4.096 49.152-18.432l354.304-354.304c26.624-26.624 26.624-67.584 0-94.208s-67.584-26.624-94.208 0l-241.664 241.664v-731.136c0-36.864-30.72-67.584-67.584-67.584s-67.584 30.72-67.584 67.584v733.184l-241.664-243.712c-26.624-26.624-67.584-26.624-94.208 0s-26.624 69.632 0 94.208z" />
<glyph unicode="&#xe90a;" glyph-name="arrow-down" d="M108.544 402.944c26.624 26.624 67.584 26.624 94.208 0l243.712-243.712v733.184c0 36.864 30.72 67.584 67.584 67.584s67.584-30.72 67.584-67.584v-731.136l241.664 241.664c26.624 26.624 67.584 26.624 94.208 0s26.624-67.584 0-94.208l-356.352-354.304c-12.288-14.336-30.72-18.432-49.152-18.432s-36.864 4.096-49.152 18.432l-354.304 354.304c-26.624 24.576-26.624 67.584 0 94.208z" />
<glyph unicode="&#xe90b;" glyph-name="arrow-long-left" d="M6.144 464.384c0 0 116.736 116.736 174.080 174.080 20.48 20.48 55.296-12.288 32.768-32.768-45.056-45.056-88.064-88.064-133.12-133.12h921.6c30.72 0 30.72-47.104 0-47.104h-921.6c45.056-45.056 88.064-88.064 133.12-133.12 20.48-20.48-12.288-55.296-32.768-32.768-57.344 57.344-174.080 174.080-174.080 174.080-4.096 4.096-6.144 10.24-6.144 16.384 0 4.096 2.048 8.192 6.144 14.336z" />
<glyph unicode="&#xe90c;" glyph-name="arrow-long-right" d="M1024 448c0-6.144-2.048-10.24-6.144-16.384 0 0-116.736-116.736-174.080-174.080-20.48-20.48-55.296 12.288-32.768 32.768 45.056 45.056 88.064 88.064 133.12 133.12h-921.6c-30.72 0-30.72 47.104 0 47.104h921.6c-45.056 45.056-88.064 88.064-133.12 133.12-20.48 20.48 12.288 55.296 32.768 32.768 57.344-57.344 174.080-174.080 174.080-174.080 4.096-4.096 6.144-8.192 6.144-14.336z" />
<glyph unicode="&#xe90d;" glyph-name="arrow-long-up" d="M512 960c6.144 0 10.24-2.048 16.384-6.144 0 0 116.736-116.736 174.080-174.080 20.48-20.48-12.288-55.296-32.768-32.768-45.056 45.056-88.064 88.064-133.12 133.12v-921.6c0-30.72-47.104-30.72-47.104 0v921.6c-45.056-45.056-88.064-88.064-133.12-133.12-20.48-20.48-55.296 12.288-32.768 32.768 57.344 57.344 174.080 174.080 174.080 174.080 4.096 4.096 8.192 6.144 14.336 6.144z" />
<glyph unicode="&#xe90e;" glyph-name="arrow-long-down" d="M495.616-57.856c0 0-116.736 116.736-174.080 174.080-20.48 20.48 12.288 55.296 32.768 32.768 45.056-45.056 88.064-88.064 133.12-133.12v921.6c0 30.72 47.104 30.72 47.104 0v-921.6c45.056 45.056 88.064 88.064 133.12 133.12 20.48 20.48 55.296-12.288 32.768-32.768-57.344-57.344-174.080-174.080-174.080-174.080-4.096-4.096-10.24-6.144-16.384-6.144-4.096 0-8.192 2.048-14.336 6.144z" />
<glyph unicode="&#xe90f;" glyph-name="arr-horizontal" d="M720.896 765.44l294.912-294.912c6.144-6.144 10.24-16.384 10.24-24.576s-2.048-16.384-10.24-24.576l-294.912-294.912c-12.288-12.288-32.768-12.288-45.056 0s-12.288 32.768 0 45.056l272.384 272.384-272.384 272.384c-12.288 12.288-12.288 32.768 0 45.056 12.288 16.384 32.768 16.384 45.056 4.096zM348.16 765.44c12.288-12.288 12.288-32.768 0-45.056l-272.384-272.384 272.384-272.384c12.288-12.288 12.288-32.768 0-45.056s-32.768-12.288-45.056 0l-294.912 294.912c-6.144 6.144-10.24 16.384-8.192 24.576 0 8.192 2.048 16.384 8.192 24.576l294.912 294.912c12.288 8.192 32.768 8.192 45.056-4.096z" />
<glyph unicode="&#xe910;" glyph-name="arr-vertical" d="M829.44 239.104l-294.912-294.912c-6.144-6.144-16.384-10.24-24.576-10.24s-16.384 2.048-24.576 10.24l-294.912 294.912c-12.288 12.288-12.288 32.768 0 45.056s32.768 12.288 45.056 0l272.384-272.384 272.384 272.384c12.288 12.288 32.768 12.288 45.056 0 16.384-12.288 16.384-32.768 4.096-45.056zM829.44 611.84c-12.288-12.288-32.768-12.288-45.056 0l-272.384 272.384-272.384-272.384c-12.288-12.288-32.768-12.288-45.056 0s-12.288 32.768 0 45.056l294.912 294.912c6.144 6.144 16.384 10.24 24.576 8.192 8.192 0 16.384-2.048 24.576-8.192l294.912-294.912c8.192-12.288 8.192-32.768-4.096-45.056z" />
<glyph unicode="&#xe911;" glyph-name="search" d="M1009.664 56.832l-272.384 272.384c47.104 65.536 61.44 143.36 61.44 229.376 0 221.184-178.176 399.36-399.36 399.36s-399.36-178.176-399.36-399.36c0-221.184 178.176-399.36 399.36-399.36 86.016 0 163.84 14.336 229.376 61.44l272.384-272.384c8.192-8.192 20.48-12.288 30.72-12.288s20.48 4.096 28.672 12.288l47.104 47.104c8.192 8.192 12.288 18.432 12.288 30.72 2.048 12.288-2.048 22.528-10.24 30.72zM137.216 560.64c0 145.408 118.784 262.144 262.144 262.144s262.144-118.784 262.144-262.144c0-145.408-118.784-264.192-262.144-264.192s-262.144 118.784-262.144 264.192z" />
<glyph unicode="&#xe912;" glyph-name="menu" d="M0 376.32h1024v145.408h-1024v-145.408zM0 742.912h1024v143.36h-1024v-143.36zM0 9.728h1024v145.408h-1024v-145.408z" />
<glyph unicode="&#xe913;" glyph-name="check" d="M389.12 77.312l614.4 614.4c28.672 28.672 28.672 75.776 0 104.448s-75.776 28.672-106.496 0l-507.904-509.952-262.144 262.144c-28.672 28.672-75.776 28.672-106.496 0-28.672-28.672-28.672-75.776 0-104.448l262.144-262.144 106.496-104.448z" />
<glyph unicode="&#xe914;" glyph-name="close1" d="M122.858-43.385l389.142 389.142 389.142-389.142c27.518-27.518 74.678-27.518 102.196 0v0c27.518 27.518 27.518 74.678 0 102.196l-389.142 389.142 389.142 389.142c27.518 27.518 27.518 74.678 0 102.196v0c-27.518 27.518-74.678 27.518-102.196 0l-389.142-389.142-389.142 389.142c-27.518 27.518-74.678 27.518-102.196 0v0c-27.518-27.518-27.518-74.678 0-102.196l389.142-389.142-389.142-389.142c-27.518-27.518-27.518-74.678 0-102.196v0c27.472-27.518 74.678-27.518 102.196 0z" />
<glyph unicode="&#xe915;" glyph-name="bell" d="M829.44 931.328c-2.048-2.048-4.096-4.096-6.144-4.096l-155.648-155.648c-133.12 63.488-296.96 40.96-407.552-69.632l-90.112-90.112c-16.384 8.192-32.768 12.288-51.2 12.288 0 0 0 0 0 0-30.72 0-61.44-12.288-83.968-34.816-45.056-45.056-45.056-120.832 0-167.936 0 0 0 0 0 0l198.656-198.656c-45.056-69.632-36.864-161.792 24.576-223.232 34.816-34.816 79.872-53.248 126.976-53.248 32.768 0 67.584 10.24 96.256 28.672l4.096-4.096c2.048-2.048 4.096-4.096 6.144-4.096 22.528-18.432 49.152-28.672 77.824-28.672 30.72 0 61.44 12.288 83.968 34.816 36.864 36.864 43.008 90.112 22.528 135.168l90.112 90.112c0 0 0 0 0 0 110.592 110.592 133.12 274.432 69.632 407.552l155.648 155.648c0 0 0 0 0 0 20.48 20.48 32.768 49.152 32.768 79.872s-12.288 61.44-34.816 83.968c-43.008 45.056-114.688 45.056-159.744 6.144zM313.344 54.784c-30.72 30.72-36.864 73.728-22.528 110.592l133.12-133.12c-36.864-16.384-81.92-8.192-110.592 22.528zM595.968 26.112c-16.384-16.384-40.96-16.384-57.344 0l-28.672 28.672c0 0 0 0 0 0s0 0 0 0l-198.656 198.656c0 0 0 0 0 0s0 0 0 0l-221.184 221.184c0 0 0 0 0 0-16.384 16.384-16.384 40.96 0 57.344 8.192 8.192 18.432 12.288 28.672 12.288v0c10.24 0 20.48-4.096 28.672-12.288l450.56-450.56c0 0 0 0 0 0v0c14.336-14.336 14.336-40.96-2.048-55.296zM710.656 251.392c0 0 0-2.048 0 0l-86.016-86.016-395.264 395.264 86.016 86.016c108.544 108.544 286.72 108.544 395.264 0 108.544-110.592 108.544-286.72 0-395.264zM763.904 699.904c-10.24 10.24-20.48 18.432-30.72 26.624l143.36 143.36c16.384 16.384 40.96 16.384 57.344 0 8.192-8.192 12.288-18.432 12.288-28.672s-4.096-20.48-12.288-28.672c0 0 0 0 0 0l-143.36-143.36c-8.192 12.288-16.384 22.528-26.624 30.72z" />
<glyph unicode="&#xe916;" glyph-name="book" d="M208.896 960c-71.68 0-131.072-59.392-131.072-131.072v-763.904c0-71.68 59.392-131.072 131.072-131.072h694.272c22.528 0 43.008 18.432 43.008 43.008v940.032c0 22.528-18.432 43.008-43.008 43.008h-694.272zM450.56 749.056c0 0-2.048 0 0 0-2.048 2.048-4.096 2.048-6.144 4.096-2.048 0-2.048 2.048-4.096 2.048s-2.048 0-4.096 2.048c-2.048 0-2.048 0-4.096 2.048-2.048 0-2.048 0-4.096 0s-2.048 0-4.096 0-2.048 0-4.096 0-2.048 0-4.096 0-2.048 0-4.096 0c0-4.096-2.048-4.096-2.048-4.096-2.048 0-2.048 0-4.096-2.048-2.048 0-2.048-2.048-4.096-2.048 0 0 0 0-2.048 0l-61.44-45.056v167.936h174.080v-169.984l-61.44 45.056zM208.896 22.016c-24.576 0-45.056 20.48-45.056 45.056v2.048c0 24.576 20.48 45.056 45.056 45.056h651.264v-92.16h-651.264zM860.16 198.144h-651.264c-16.384 0-30.72-2.048-45.056-8.192v638.976c0 24.576 20.48 45.056 45.056 45.056h45.056v-253.952c0-16.384 8.192-30.72 22.528-38.912 6.144-4.096 12.288-4.096 18.432-4.096 8.192 0 18.432 2.048 24.576 8.192l104.448 75.776 104.448-75.776c8.192-6.144 16.384-8.192 24.576-8.192 6.144 0 12.288 2.048 18.432 4.096 14.336 8.192 22.528 22.528 22.528 38.912v253.952h266.24v-675.84z" />
<glyph unicode="&#xe917;" glyph-name="briefcase" d="M888.832 804.352h-149.504c2.048 135.168-116.736 135.168-155.648 135.168h-145.408c-38.912 0-155.648 0-155.648-135.168v-2.048h-147.456c-73.728 2.048-135.168-59.392-135.168-133.12v-227.328c0-32.768 14.336-63.488 38.912-83.968v-266.24c0-73.728 61.44-135.168 135.168-135.168h677.888c73.728 0 135.168 61.44 135.168 135.168v266.24c24.576 20.48 38.912 51.2 38.912 83.968v227.328c-2.048 73.728-63.488 135.168-137.216 135.168zM356.352 804.352c0 43.008 12.288 63.488 83.968 63.488h145.408c71.68 0 83.968-18.432 83.968-63.488v-2.048l-313.344 2.048zM73.728 669.184c0 34.816 28.672 61.44 61.44 61.44h753.664c34.816 0 61.44-28.672 61.44-61.44v-227.328c0-20.48-16.384-36.864-36.864-36.864h-266.24v10.24c0 49.152-38.912 88.064-88.064 88.064h-92.16c-49.152 0-88.064-38.912-88.064-88.064v-10.24h-268.288c-20.48 0-36.864 16.384-36.864 36.864v227.328zM450.56 413.184c0 8.192 6.144 16.384 16.384 16.384h92.16c8.192 0 16.384-6.144 16.384-16.384v-92.16c0-8.192-6.144-16.384-16.384-16.384h-92.16c-8.192 0-16.384 6.144-16.384 16.384v92.16zM849.92 28.16h-675.84c-34.816 0-61.44 28.672-61.44 61.44v241.664h266.24v-10.24c0-49.152 38.912-88.064 88.064-88.064h92.16c49.152 0 88.064 38.912 88.064 88.064v10.24h266.24v-239.616c0-34.816-28.672-63.488-63.488-63.488z" />
<glyph unicode="&#xe918;" glyph-name="document" d="M143.36-64h737.28c24.576 0 45.056 20.48 45.056 45.056v634.88c0 6.144-2.048 12.288-4.096 18.432 0 0 0 0 0 2.048-2.048 2.048-2.048 4.096-4.096 6.144 0 0-2.048 2.048-2.048 2.048-2.048 2.048-2.048 2.048-4.096 4.096 0 0 0 0 0 0l-315.392 299.008c0 0-2.048 2.048-2.048 2.048-2.048 0-2.048 2.048-4.096 2.048s-2.048 2.048-4.096 2.048c-2.048 0-2.048 2.048-4.096 2.048s-2.048 0-4.096 2.048c-2.048 0-2.048 0-4.096 2.048-2.048 0-6.144 0-8.192 0h-421.888c-24.576 0-43.008-20.48-43.008-45.056v-935.936c0-22.528 18.432-43.008 43.008-43.008zM608.256 812.544l159.744-151.552h-159.744v151.552zM188.416 871.936h331.776v-253.952c0-24.576 20.48-45.056 45.056-45.056h270.336v-548.864h-647.168v847.872z" />
<glyph unicode="&#xe919;" glyph-name="edit" d="M43.008-64h729.088c24.576 0 43.008 18.432 43.008 43.008v270.336c0 24.576-18.432 43.008-43.008 43.008s-43.008-18.432-43.008-43.008v-227.328h-643.072v643.072h231.424c24.576 0 43.008 18.432 43.008 43.008s-18.432 43.008-43.008 43.008h-274.432c-24.576 0-43.008-18.432-43.008-43.008v-729.088c0-24.576 18.432-43.008 43.008-43.008zM307.2 486.912v-200.704c0-24.576 18.432-43.008 43.008-43.008h200.704c12.288 0 22.528 4.096 30.72 12.288l24.576 24.576c0 0 0 0 0 0s0 0 0 0l276.48 276.48c0 0 0 0 0 0s0 0 0 0l129.024 129.024c16.384 16.384 16.384 45.056 0 61.44l-200.704 200.704c-16.384 16.384-45.056 16.384-61.44 0l-430.080-430.080c-8.192-8.192-12.288-18.432-12.288-30.72zM393.216 433.664l104.448-104.448h-104.448v104.448zM651.264 726.528l139.264-139.264-215.040-215.040-139.264 139.264 215.040 215.040zM780.288 855.552l139.264-139.264-67.584-67.584-139.264 139.264 67.584 67.584z" />
<glyph unicode="&#xe91a;" glyph-name="envelope" d="M962.56 828.928h-901.12c-32.768 0-61.44-26.624-61.44-61.44v-638.976c0-34.816 26.624-61.44 61.44-61.44h901.12c34.816 0 61.44 26.624 61.44 61.44v638.976c0 34.816-26.624 61.44-61.44 61.44zM509.952 374.272l-366.592 366.592h733.184l-366.592-366.592zM294.912 470.528l-210.944-241.664v452.608l210.944-210.944zM356.352 407.040l122.88-122.88c8.192-8.192 18.432-12.288 30.72-12.288s22.528 4.096 30.72 12.288l122.88 122.88 221.184-253.952h-751.616l223.232 253.952zM727.040 470.528l210.944 210.944v-452.608l-210.944 241.664z" />
<glyph unicode="&#xe91b;" glyph-name="globe" horiz-adv-x="866" d="M499.712 249.344c190.464 0 344.064 153.6 344.064 344.064s-153.6 344.064-344.064 344.064c-190.464 0-344.064-153.6-344.064-344.064 2.048-188.416 155.648-344.064 344.064-344.064zM499.712 855.552c143.36 0 262.144-116.736 262.144-262.144 0-143.36-116.736-260.096-262.144-260.096-143.36 0-260.096 116.736-260.096 260.096s116.736 262.144 260.096 262.144zM147.456 947.712c-194.56-194.56-194.56-512 0-708.608 88.064-88.064 198.656-135.168 313.344-145.408v-75.776h-77.824c-22.528 0-40.96-18.432-40.96-40.96s18.432-40.96 40.96-40.96h237.568c22.528 0 40.96 18.432 40.96 40.96s-18.432 40.96-40.96 40.96h-77.824v75.776c114.688 10.24 225.28 57.344 313.344 145.408 16.384 16.384 16.384 43.008 0 59.392s-43.008 16.384-59.392 0c-163.84-163.84-428.032-163.84-591.872 0s-163.84 428.032 0 591.872c16.384 16.384 16.384 43.008 0 59.392-16.384 14.336-43.008 14.336-57.344-2.048z" />
<glyph unicode="&#xe91c;" glyph-name="pen" d="M45.056-64c12.288 0 22.528 4.096 32.768 14.336l43.008 43.008c6.144 0 14.336 0 22.528 0 65.536 0 186.368 10.24 258.048 81.92 0 0 0 0 0 0l419.84 419.84 43.008-43.008-372.736-370.688 63.488-63.488 403.456 403.456c8.192 8.192 14.336 20.48 14.336 32.768s-4.096 24.576-14.336 32.768l-73.728 73.728 45.056 45.056c14.336 14.336 16.384 34.816 8.192 51.2l69.632 69.632c18.432 18.432 18.432 47.104 0 63.488l-157.696 157.696c-18.432 18.432-47.104 18.432-63.488 0l-69.632-69.632c-6.144 2.048-12.288 4.096-18.432 4.096-12.288 0-24.576-4.096-32.768-14.336l-528.384-532.48c-79.872-79.872-83.968-223.232-81.92-280.576l-43.008-43.008c-18.432-18.432-18.432-47.104 0-63.488 10.24-8.192 22.528-12.288 32.768-12.288zM296.96 112.128c-47.104-22.528-106.496-28.672-151.552-28.672 0 43.008 6.144 104.448 28.672 151.552l122.88-122.88zM821.248 849.408l92.16-92.16-36.864-36.864-94.208 94.208 38.912 34.816zM700.416 769.536l133.12-133.12-464.896-466.944-135.168 135.168 466.944 464.896z" />
<glyph unicode="&#xe91d;" glyph-name="ruller" d="M208.896 435.712l-88.064-88.064c0 0 0 0 0 0s-2.048-2.048-2.048-4.096c0 0-2.048-2.048-2.048-2.048s-2.048-2.048-2.048-4.096c0-2.048-2.048-2.048-2.048-4.096 0 0 0-2.048 0-2.048 0-2.048 0-4.096-2.048-4.096 0 0 0 0 0 0l-45.056-280.576c-2.048-12.288 2.048-24.576 10.24-34.816 8.192-8.192 18.432-12.288 28.672-12.288 2.048 0 4.096 0 6.144 0l278.528 45.056c0 0 0 0 0 0 2.048 0 2.048 0 4.096 0s2.048 0 4.096 2.048c0 0 2.048 0 2.048 2.048 2.048 0 2.048 2.048 4.096 2.048 0 0 2.048 0 2.048 2.048 2.048 2.048 4.096 2.048 4.096 4.096 0 0 0 0 0 0l88.064 88.064 196.608-196.608c8.192-8.192 18.432-12.288 28.672-12.288s20.48 4.096 28.672 12.288l235.52 235.52c8.192 8.192 12.288 18.432 12.288 28.672s-4.096 20.48-12.288 28.672l-196.608 196.608 221.184 221.184c16.384 16.384 16.384 40.96 0 55.296l-235.52 235.52c-14.336 14.336-40.96 14.336-55.296 0l-221.184-223.232-196.608 196.608c-14.336 14.336-40.96 14.336-55.296 0l-235.52-233.472c-16.384-16.384-16.384-40.96 0-55.296l196.608-198.656zM212.992 97.792l-51.2 51.2 14.336 88.064 124.928-124.928-88.064-14.336zM382.976 140.8l-178.176 178.176 59.392 59.392 178.176-178.176-59.392-59.392zM749.568 863.744l178.176-178.176-92.16-92.16-178.176 178.176 92.16 92.16zM602.112 716.288l178.176-178.176-45.056-45.056-178.176 178.176 45.056 45.056zM274.432 839.168l69.632-69.632-104.448-104.448 55.296-55.296 104.448 104.448 69.632-69.632c0 0 0 0 0 0s0 0 0 0l18.432-18.432-104.448-104.448 55.296-55.296 104.448 104.448 88.064-88.064-104.448-104.448 55.296-55.296 104.448 104.448 18.432-18.432c0 0 0 0 0 0s0 0 0 0l69.632-69.632-104.448-104.448 55.296-55.296 104.448 104.448 69.632-69.632-178.176-178.176-428.032 428.032c0 0 0 0 0 0s0 0 0 0l-196.608 196.608 178.176 178.176z" />
<glyph unicode="&#xe91e;" glyph-name="notebook" d="M995.328 288.256h-77.824v366.592c0 71.68-57.344 129.024-129.024 129.024h-552.96c-71.68 0-129.024-57.344-129.024-129.024v-366.592h-77.824c-16.384 0-28.672-12.288-28.672-28.672v-18.432c0-71.68 57.344-129.024 129.024-129.024h768c71.68 0 129.024 57.344 129.024 129.024v18.432c-2.048 16.384-14.336 28.672-30.72 28.672zM167.936 654.848c0 38.912 30.72 69.632 69.632 69.632h550.912c38.912 0 69.632-30.72 69.632-69.632v-366.592h-690.176v366.592zM894.976 171.52h-765.952c-34.816 0-63.488 24.576-67.584 59.392h903.168c-6.144-34.816-34.816-59.392-69.632-59.392zM573.44 667.136h-122.88c-16.384 0-28.672-12.288-28.672-28.672s12.288-28.672 28.672-28.672h122.88c16.384 0 28.672 12.288 28.672 28.672 2.048 16.384-12.288 28.672-28.672 28.672z" />
<glyph unicode="&#xe91f;" glyph-name="instagram" d="M718.848 960h-415.744c-167.936 0-305.152-137.216-305.152-305.152v-415.744c0-167.936 137.216-305.152 305.152-305.152h415.744c167.936 0 305.152 137.216 305.152 305.152v415.744c0 167.936-137.216 305.152-305.152 305.152zM768 617.984c-49.152 0-88.064 38.912-88.064 88.064s38.912 88.064 88.064 88.064 88.064-38.912 88.064-88.064c0-49.152-38.912-88.064-88.064-88.064zM512 640.512c104.448 0 190.464-86.016 190.464-190.464s-86.016-190.464-190.464-190.464-190.464 86.016-190.464 190.464c0 104.448 86.016 190.464 190.464 190.464z" />
<glyph unicode="&#xe920;" glyph-name="twitter" d="M1024 765.064c-40.286-17.328-80.581-28.149-120.848-32.496 45.481 27.289 76.245 65.841 92.274 115.653-41.603-24.685-85.995-41.574-133.206-50.675-41.588 44.182-92.692 66.282-153.349 66.282-58.037 0-107.521-20.464-148.472-61.4-40.928-40.934-61.394-90.419-61.394-148.46 0-15.591 1.73-31.624 5.198-48.083-85.77 4.331-166.227 25.88-241.387 64.648-75.155 38.772-138.939 90.428-191.35 154.967-19.060-32.48-28.593-67.789-28.593-105.906 0-35.953 8.445-69.311 25.348-100.066 16.891-30.75 39.637-55.654 68.228-74.716-33.793 1.302-65.413 10.184-94.864 26.645v-2.599c0-50.684 15.919-95.182 47.753-133.529 31.838-38.342 72.017-62.477 120.527-72.445-18.195-4.759-36.608-7.141-55.231-7.141-12.13 0-25.343 1.081-39.635 3.232 13.427-42.009 38.119-76.541 74.067-103.628 35.955-27.073 76.673-41.028 122.157-41.915-76.234-59.766-163.082-89.65-260.545-89.65-18.63 0-35.518 0.849-50.682 2.592 97.465-62.802 204.888-94.204 322.277-94.204 74.504 0 144.462 11.791 209.849 35.404 65.42 23.598 121.292 55.226 167.645 94.868 46.339 39.633 86.309 85.223 119.874 136.767 33.568 51.549 58.574 105.364 75.048 161.457 16.454 56.105 24.688 112.296 24.688 168.617 0 12.13-0.218 21.222-0.653 27.289 41.162 29.874 76.248 66.050 105.273 108.491z" />
<glyph unicode="&#xe921;" glyph-name="facebook" d="M590.924 624.472v88.231c0 13.245 0.609 23.505 1.848 30.752 1.234 7.258 4.041 14.397 8.399 21.444 4.351 7.043 11.395 11.905 21.124 14.599 9.741 2.699 22.686 4.044 38.848 4.044h88.227v176.458h-141.047c-81.613 0-140.229-19.363-175.855-58.089-35.622-38.735-53.432-95.79-53.432-171.187v-106.249h-105.644v-176.471h105.638v-511.999h211.894v511.997h141.038l18.643 176.471h-159.679z" />
<glyph unicode="&#xe922;" glyph-name="linkedin" d="M12.665 619.328h219.999v-660.66h-219.999v660.66zM954.665 558.981c-46.213 50.446-107.335 75.674-183.329 75.674-28 0-53.452-3.444-76.344-10.337-22.886-6.888-42.215-16.553-57.998-28.999-15.773-12.446-28.336-24-37.662-34.661-8.869-10.127-17.541-21.924-26.003-35.269v93.944h-219.343l0.672-32.004c0.451-21.34 0.672-87.114 0.672-197.33 0-110.226-0.444-253.999-1.336-431.335h219.333v368.674c0 22.662 2.431 40.658 7.33 54.003 9.34 22.678 23.437 41.664 42.337 56.992 18.898 15.346 42.334 23.012 70.343 23.012 38.211 0 66.332-13.221 84.335-39.665 17.996-26.442 26.995-63 26.995-109.668v-353.325h219.333v378.642c-0.016 97.343-23.11 171.224-69.337 221.654zM123.998 937.331c-36.884 0-66.771-10.786-89.666-32.336-22.893-21.555-34.332-48.767-34.332-81.664 0-32.436 11.11-59.555 33.333-81.327 22.216-21.774 51.553-32.667 87.996-32.667h1.333c37.337 0 67.453 10.884 90.338 32.667 22.886 21.772 34.106 48.882 33.664 81.327-0.444 32.894-11.785 60.109-34.001 81.664-22.213 21.559-51.78 32.336-88.666 32.336z" />
<glyph unicode="&#xe923;" glyph-name="plus" d="M53.248 394.752h405.504v-405.504c0-28.672 24.576-53.248 53.248-53.248v0c28.672 0 53.248 24.576 53.248 53.248v405.504h405.504c28.672 0 53.248 24.576 53.248 53.248v0c0 28.672-24.576 53.248-53.248 53.248h-405.504v405.504c0 28.672-24.576 53.248-53.248 53.248v0c-28.672 0-53.248-24.576-53.248-53.248v-405.504h-405.504c-28.672 0-53.248-24.576-53.248-53.248v0c0-28.672 24.576-53.248 53.248-53.248z" />
<glyph unicode="&#xe924;" glyph-name="minus" d="M53.248 394.752h917.504c28.672 0 53.248 24.576 53.248 53.248v0c0 28.672-24.576 53.248-53.248 53.248h-917.504c-28.672 0-53.248-24.576-53.248-53.248v0c0-28.672 24.576-53.248 53.248-53.248z" />
<glyph unicode="&#xe925;" glyph-name="setting" d="M1024 519.68v-145.408h-112.64v-63.488h-280.576v63.488h-630.784v145.408h630.784v51.2h280.576v-51.2zM1024 153.088v-145.408h-450.56v-55.296h-280.576v55.296h-292.864v145.408h292.864v57.344h280.576v-57.344zM1024 886.272v-143.36h-620.544v-57.344h-280.576v57.344h-122.88v143.36h122.88v57.344h280.576v-57.344z" />
<glyph unicode="&#xe926;" glyph-name="calendar" horiz-adv-x="952" d="M952.32 839.168v-862.208c0-22.528-18.432-43.008-43.008-43.008h-866.304c-22.528 0-43.008 18.432-43.008 43.008v862.208c0 22.528 18.432 43.008 43.008 43.008h180.224v34.816c0 22.528 18.432 43.008 43.008 43.008 22.528 0 43.008-18.432 43.008-43.008v-34.816h337.92v34.816c0 22.528 18.432 43.008 43.008 43.008 22.528 0 43.008-18.432 43.008-43.008v-34.816h180.224c20.48 0 38.912-18.432 38.912-43.008zM86.016 798.208v-149.504h782.336v149.504h-137.216v-34.816c0-22.528-18.432-43.008-43.008-43.008-22.528 0-43.008 18.432-43.008 43.008v34.816h-337.92v-34.816c0-22.528-18.432-43.008-43.008-43.008-22.528 0-43.008 18.432-43.008 43.008v34.816h-135.168zM868.352 22.016v540.672h-782.336v-540.672h782.336z" />
<glyph unicode="&#xe927;" glyph-name="close-thin" horiz-adv-x="1028" d="M1003.438 960l24.675-24.675-487.325-487.325 487.325-487.325-24.675-24.675-491.438 487.325-487.325-487.325-24.675 24.675 487.325 487.325-487.325 487.325 24.675 24.675 491.438-487.325 487.325 487.325z" />
<glyph unicode="&#xe928;" glyph-name="print" horiz-adv-x="1001" d="M958.464 785.92h-149.504v131.072c0 24.576-20.48 43.008-43.008 43.008h-530.432c-24.576 0-43.008-20.48-43.008-43.008v-131.072h-149.504c-22.528 0-43.008-20.48-43.008-43.008v-561.152c0-24.576 20.48-43.008 43.008-43.008h149.504v-157.696c0-24.576 20.48-43.008 43.008-43.008h530.432c24.576 0 43.008 20.48 43.008 43.008v157.696h149.504c24.576 0 43.008 20.48 43.008 43.008v561.152c0 22.528-18.432 43.008-43.008 43.008zM280.576 871.936h442.368v-88.064h-442.368v88.064zM280.576 24.064v315.392h442.368v-157.696c0 0 0 0 0 0s0 0 0 0v-157.696h-442.368zM915.456 224.768h-104.448v157.696c0 24.576-20.48 43.008-43.008 43.008h-532.48c-24.576 0-43.008-20.48-43.008-43.008v-157.696h-104.448v473.088h829.44v-473.088z" />
<glyph unicode="&#xe929;" glyph-name="logo-full-en" horiz-adv-x="1008" d="M535.331 594.9h226.722v-72.152h-113.643v-45.749h107.709v-71.936h-107.709v-51.248h116.050v-74.384h-229.128zM405.574 467.885l42.433 105.415c18.559-0.706 34.073-6.673 62.498-23.939v26.793c-23.039 13.385-45.62 19.856-68.623 19.856-46.887 0-85.086-36.95-85.086-83.602 0-25.277 8.363-42.072 20.997-54.319l-52.274-129.567-108.409 266.501h-23.745l128.574-318.236h6.718l67.501 167.694c41.753-24.265 101.748-27.906 101.748-86.344 0-35.566-27.377-62.814-62.54-62.814-23.007 0-41.672 8.312-74.671 33.715v-28.645c26.048-18.465 51.664-27.706 75.974-27.706 48.191 0 85.989 37.873 85.989 86.366 0 81.451-76.803 80.948-117.085 108.831zM381.541 513.334c0 26.997 16.827 48.749 41.424 56.722l-34.244-84.883c-4.538 7.544-7.18 16.688-7.18 28.161zM387.092 636.924h109.457v-22.3h-109.457v22.3zM345.972 20.723c3.3-1.274 7.273-2.809 10.36-6.412 3.451-4.009 5.019-10.215 2.754-16.066-2.058-5.322-6.744-9.196-12.392-10.208-4.825-0.89-8.802 0.645-13.002 2.267l-7.573 2.929-7.941-20.543-12.898 4.983 19.768 51.139 20.923-8.089zM334.296 14.382l-4.551-11.773 4.199-1.626c4.122-1.587 9.599-3.706 11.918 2.29 2.229 5.773-3.393 7.951-7.067 9.367l-4.499 1.742zM402.061 3.548c4.851-1.142 9.705-2.287 13.385-5.957 2.377-2.542 5.493-7.902 4.003-14.24-2.097-8.928-9.721-10.434-12.25-10.999 3.393-2.777 4.786-8.809 5.315-11.824 0.768-3.403 1.858-8.944 2.551-12.327l0.9-4.261-14.64 3.441c-0.619 2.622-2.754 14.279-3.354 16.646-2.016 7.583-4.68 8.209-8.438 9.092l-1.955 0.458-5.119-21.762-13.463 3.167 12.553 53.387 20.51-4.822zM392.734-4.506l-2.871-12.208 5.557-1.303c3.48-0.658 4.341-0.858 5.931-0.406 2.2 0.555 3.6 2.296 4.116 4.487 1.435 6.102-4.516 7.502-6.002 7.854l-6.731 1.577zM493.688-63.989l-14.663 1.206-3.593 11.192-24.436 2.016-4.98-10.476-14.421 1.187 26.548 52.822 15.782-1.303 19.762-56.644zM465.15-19.852l-9.76-20.491 16.824-1.39-7.064 21.881zM560.315-21.11c-6.622 2.522-13.656 4.051-20.72 3.561-6.335-0.439-9.992-2.3-12.298-3.993-3.761-2.674-6.96-7.654-6.483-14.556 0.716-10.344 9.783-15.601 19.168-14.95 3.371 0.232 6.609 1.184 9.65 2.606l-0.442 6.415-7.864-0.545-0.706 10.186 21.736 1.506 1.561-22.539c-5.29-5.122-14.008-8.386-22.913-9.002-17.565-1.222-33.209 8.173-34.434 25.822-1.184 17.085 11.769 29.025 31.102 30.367 10.828 0.748 18.427-1.868 21.81-3.003l0.832-11.876zM638.821-19.346c0.984-4.228 2.455-10.899-0.793-17.517-3.951-7.857-12.247-11.931-20.468-13.847-4.148-0.971-15.301-3.403-24.674 4.241-2.771 2.326-5.599 5.625-7.609 14.24l-6.854 29.441 13.469 3.135 6.16-26.464c0.51-2.193 1.242-5.322 2.874-8.083 3.106-5.551 9.128-6.951 14.376-5.728 7.751 1.803 10.166 7.728 10.628 10.724 0.393 2.571-0.081 4.609-1.177 9.305l-6.16 26.464 13.469 3.138 6.76-29.051zM707.948-20.198l-37.634-14.85-20.133 51.019 37.108 14.646 3.748-9.505-24.239-9.56 4.077-10.328 23.113 9.125 3.78-9.576-23.113-9.125 4.838-12.269 24.758 9.773zM166.676 106.86c2.925 3.209 7.593 8.205 14.711 9.434 8.499 1.384 16.227-2.835 22.155-8.241 2.987-2.725 10.892-10.154 9.634-21.962-0.429-3.529-1.619-7.664-7.583-14.198l-20.378-22.333-9.705 8.854 18.32 20.075c1.519 1.668 3.687 4.045 5.067 6.918 2.88 5.648 0.826 11.215-2.951 14.666-5.586 5.096-11.705 3.603-14.392 2.242-2.306-1.158-3.712-2.706-6.967-6.267l-18.32-20.078-9.699 8.857 20.107 22.033zM135.028 184.424l6.654-8.57-9.15-43.559 26.806 20.801 7.915-10.202-43.32-33.612-7.26 9.36 8.441 41.84-25.539-19.814-7.87 10.141zM75.303 177.353l-6.654 11.324 47.262 27.77 6.654-11.324-47.262-27.77zM94.653 260.863l2.277-5.177-40.724-45.401-5.686 12.94 23.1 25.152-33.879-0.606-5.632 12.798zM68.401 337.208l10.324-37.002-52.829-14.74-10.179 36.492 9.837 2.745 6.651-23.836 10.689 2.98-6.344 22.733 9.918 2.764 6.341-22.733 12.702 3.548-6.793 24.352zM6.864 371.978c-0.619 4.699-1.239 9.392 0.916 13.921 1.555 2.974 5.486 7.583 11.944 8.441 9.089 1.203 13.16-5.041 14.563-7.089 1.426 3.964 6.583 7.27 9.225 8.776 2.919 1.848 7.728 4.722 10.653 6.502l3.677 2.258 1.877-14.166c-2.242-1.451-12.411-7.344-14.427-8.689-6.393-4.393-6.051-6.97-5.567-10.605l0.248-1.89 22.158 2.935 1.726-13.027-54.364-7.206-2.629 19.839zM17.653 366.472l12.434 1.655-0.71 5.373c-0.603 3.312-0.713 4.141-1.69 5.406-1.287 1.755-3.396 2.396-5.632 2.1-6.219-0.819-5.454-6.577-5.267-8.018l0.864-6.515zM17.482 458.541c-1.871-3.577-5.373-10.044-5.422-16.691-0.052-7.631 3.883-7.889 4.445-7.896 3.3-0.019 5.261 5.083 8.131 12.547 2.535 6.551 6.767 14.308 17.378 14.237 12.702-0.087 16.15-12.708 16.095-20.501-0.061-8.783-4.457-17.078-5.435-18.365l-11.815 0.081c3.006 4.483 6.906 10.415 6.96 18.049 0.010 1.68-0.029 7.793-4.932 7.825-3.616 0.026-4.764-2.945-7.302-9.802-2.784-7.467-6.709-16.911-18.285-16.827-8.357 0.058-15.546 6.754-15.456 19.807 0.029 4.128 0.548 9.315 4.387 17.611l11.25-0.074zM5.129 488.225l1.511 13.050 54.447-6.303-1.511-13.050-54.447 6.303zM31.945 575.074l-4.341-18.278 43.33-10.273-3.054-12.85-43.33 10.27-4.358-18.359-10.012 2.377 11.753 49.487zM68.372 619.662l23.787-9.567-4.877-12.127-23.787 9.573-34.737-8.173 5.844 14.527 20.236 4.216-11.679 17.053 5.815 14.456zM143.198 699.332c-10.576-14.588-28.567-15.979-40.15-7.58-10.35 7.499-16.933 24.719-5.28 40.795 10.802 14.901 28.783 16.014 40.369 7.612 10.286-7.451 16.937-24.442 5.061-40.827zM107.161 725.648c-5.467-7.544-4.774-16.724 4.012-23.094 10.608-7.689 19.546-1.529 23.178 3.48 4.88 6.741 4.948 16.691-3.841 23.058-8.26 5.99-17.385 4.77-23.349-3.445zM168.35 796.391l-16.014-16.175 8.228-8.144 16.014 16.179 7.37-7.296-16.014-16.179 15.998-15.83-9.238-9.334-38.966 38.56 25.252 25.516zM279.368 823.971l-32.325-20.752-29.625 46.155 31.88 20.465 5.515-8.592-20.82-13.369 5.99-9.341 19.859 12.75 5.561-8.66-19.856-12.75 7.122-11.102 21.268 13.66zM340.669 858.828c-5.215-7.022-10.366-10.663-16.427-13.392-18.459-8.305-33.367 0.235-39.137 13.066-5.67 12.614-2.206 30.041 17.091 38.727 8.638 3.896 15.917 3.732 19.049 3.293l5.177-11.515c-2.642 0.664-10.453 1.819-18.675-1.884-9.889-4.451-14.498-13.756-10.376-22.92 4.416-9.828 14.834-11.75 23.749-7.734 4.461 2.006 8.051 5.209 11.063 9.121l3.309 4.751 5.177-11.515zM390.037 868.446c-17.424-4.622-32.244 5.67-35.911 19.504-3.274 12.353 2.519 29.857 21.717 34.95 17.794 4.712 32.431-5.79 36.102-19.62 3.254-12.286-2.338-29.648-21.907-34.834zM378.755 911.608c-9.009-2.39-14.276-9.944-11.495-20.43 3.358-12.669 14.179-13.54 20.162-11.953 8.047 2.135 14.388 9.805 11.608 20.294-2.613 9.866-10.453 14.692-20.275 12.089zM492.253 884.718l-10.808-0.932-31.599 31.328 2.913-33.802-12.863-1.106-4.703 54.625 11.795 1.016 30.551-29.806-2.777 32.199 12.789 1.103zM542.943 881.647c-17.949 1.59-28.374 16.317-27.106 30.573 1.129 12.734 12.534 27.226 32.312 25.474 18.333-1.619 28.509-16.491 27.242-30.744-1.126-12.653-12.292-27.084-32.447-25.303zM547.036 926.093c-9.279 0.819-16.801-4.49-17.762-15.301-1.158-13.056 8.712-17.559 14.875-18.107 8.286-0.732 16.866 4.322 17.82 15.13 0.906 10.173-4.816 17.385-14.934 18.278zM648.046 861.056l-12.676 3.448 8.815 32.364-18.136-13.408-1.842 0.506-8.828 20.739-8.818-32.36-12.673 3.445 14.417 52.932 11.128-3.029 10.437-24.436 21.613 15.704 10.979-2.977zM691.738 902.356l12.121-5.084-21.203-50.551-12.121 5.084 21.203 50.551zM748.52 817.501c-8.744 0.074-14.717 2.087-20.494 5.373-17.585 10.012-19.472 27.084-12.515 39.311 6.835 12.018 22.952 19.491 41.337 9.028 8.231-4.683 12.389-10.66 13.876-13.45l-6.241-10.966c-1.022 2.522-4.693 9.512-12.524 13.972-9.428 5.364-19.656 3.603-24.623-5.132-5.325-9.363-0.742-18.907 7.751-23.749 4.248-2.416 8.947-3.422 13.885-3.551l5.783 0.129-6.235-10.966zM817.043 810.408c-1.697 3.661-4.696 10.379-9.941 14.459-6.025 4.693-8.628 1.726-8.97 1.28-2.026-2.596 0.829-7.267 5.009-14.085 3.651-6.002 7.231-14.089 0.716-22.465-7.799-10.021-19.914-5.077-26.061-0.287-6.928 5.396-10.831 13.937-11.266 15.498l7.257 9.325c1.729-5.112 4.061-11.821 10.086-16.511 1.326-1.035 6.199-4.725 9.208-0.855 2.219 2.858 0.561 5.573-3.332 11.76-4.228 6.757-9.331 15.621-2.222 24.761 5.135 6.596 14.821 8.225 25.126 0.2 3.254-2.532 7.057-6.102 11.305-14.198l-6.915-8.883zM870.433 694.517l-8.763 10.886 5.77 10.141-14.605 18.14-10.895-3.777-8.621 10.708 55.867 18.036 9.437-11.718-28.19-52.416zM883.757 744.371l-21.317-7.364 10.057-12.495 11.26 19.859zM906.374 632.934l-5.296 9.467 15.546 41.695-29.609-16.559-6.309 11.273 47.858 26.758 5.78-10.334-14.588-40.114 28.206 15.779 6.267-11.205zM974.887 609.473c1.145-3.158 2.79-7.683 2.79-14.021-0.029-4.403-2.013-18.459-17.949-24.261-5.138-1.874-16.311-4.554-26.313 3.916-4.341 3.7-7.273 8.002-10.379 16.546l-6.922 19.023 51.513 18.756 7.26-19.959zM962.295 613.508l-31.873-11.605 1.803-4.951c2.484-6.825 3.793-8.544 5.432-10.221 4.064-4.128 10.224-5.544 17.549-2.877 5.586 2.035 10.999 6.202 11.424 13.508 0.21 3.654-0.884 6.67-2.087 9.973l-2.248 6.173zM1002.735 489.372c0.384-3.719 0.681-6.612 0-10.212-1.38-6.977-6.738-10.67-11.534-11.163-3.919-0.4-8.625 1.342-11.673 5.864-0.6-2.822-2.477-11.308-12.947-12.385-4.799-0.49-10.166 0.645-14.114 6.002-2.435 3.28-3.238 6.344-3.838 12.195l-2.458 23.858 54.528 5.596 2.035-19.756zM970.552 492.756l-13.111-1.345 0.661-6.386c0.461-4.48 1.116-10.866 7.593-10.199 6.638 0.681 6.002 6.838 5.457 12.153l-0.6 5.777zM992.301 494.984l-11.911-1.226 0.5-4.861c0.306-2.964 0.897-8.738 6.896-8.122 5.919 0.606 5.332 6.302 5.041 9.118l-0.526 5.090zM973.552 386.176c-4.335 0.232-11.153 0.681-16.614 5.412-6.454 5.702-8.080 14.356-7.651 22.362 0.219 4.038 0.968 14.856 10.899 21.359 3.003 1.9 6.954 3.6 15.788 3.122l30.186-1.629-0.71-13.114-27.135 1.464c-2.248 0.123-5.457 0.297-8.557-0.458-6.193-1.345-9.205-6.457-9.483-11.569-0.406-7.551 4.625-11.337 7.376-12.556 2.358-1.042 4.445-1.161 9.263-1.419l27.132-1.464-0.71-13.111-29.786 1.603zM976.968 321.739c2.542 3.145 7.241 8.796 8.589 15.298 1.555 7.473-2.255 8.502-2.806 8.615-3.229 0.671-6.157-3.948-10.428-10.702-3.774-5.922-9.45-12.702-19.839-10.544-12.431 2.584-13.337 15.64-11.753 23.262 1.78 8.599 7.722 15.869 8.931 16.94l11.569-2.396c-3.829-3.809-8.815-8.854-10.366-16.33-0.342-1.645-1.503-7.644 3.296-8.644 3.541-0.732 5.248 1.951 9.083 8.176 4.196 6.773 9.895 15.256 21.23 12.908 8.183-1.7 13.918-9.676 11.263-22.462-0.835-4.038-2.361-9.025-7.751-16.408l-11.018 2.287zM983.334 290.211l-4.025-12.505-52.188 16.798 4.025 12.505 52.188-16.798zM897.049 224l4.609 9.815 42.946 11.64-30.709 14.414 5.486 11.679 49.629-23.297-5.028-10.708-41.104-11.499 29.258-13.73-5.451-11.615zM863.086 171.233l21.439 31.87 45.491-30.625-21.142-31.425-8.473 5.706 13.811 20.526-9.205 6.196-13.166-19.578-8.544 5.748 13.172 19.578-10.937 7.364-14.108-20.971zM855.9 100.89c3.767 1.458 10.663 4.016 15.079 8.979 5.070 5.712 2.277 8.499 1.858 8.873-2.464 2.19-7.306-0.355-14.379-4.087-6.228-3.254-14.524-6.299-22.458 0.742-9.496 8.438-3.774 20.21 1.403 26.029 5.835 6.56 14.605 9.908 16.191 10.241l8.834-7.851c-5.215-1.397-12.057-3.287-17.13-8.996-1.116-1.258-5.115-5.88-1.448-9.131 2.706-2.403 5.525-0.926 11.953 2.558 7.015 3.783 16.188 8.299 24.842 0.613 6.251-5.554 7.244-15.327-1.429-25.087-2.738-3.080-6.544-6.644-14.898-10.363l-8.418 7.48zM808.857 57.699c3.925 0.948 11.095 2.577 16.124 6.922 5.777 4.999 3.374 8.131 3.006 8.557-2.155 2.49-7.289 0.606-14.788-2.164-6.599-2.409-15.224-4.341-22.165 3.687-8.305 9.612-1.087 20.533 4.806 25.626 6.648 5.744 15.782 7.905 17.395 8.025l7.728-8.938c-5.354-0.7-12.382-1.677-18.159-6.67-1.274-1.103-5.841-5.157-2.635-8.87 2.367-2.735 5.357-1.638 12.186 0.971 7.451 2.835 17.136 6.106 24.706-2.651 5.467-6.331 5.174-16.15-4.706-24.694-3.122-2.696-7.364-5.725-16.133-8.312l-7.364 8.512z" />
<glyph unicode="&#xe92a;" glyph-name="new-window" horiz-adv-x="1078" d="M1009.556 493.811c-9.755-9.701-23.229-15.737-38.104-15.737-29.75 0-53.895 24.091-53.895 53.895v243.496l-369.125-369.125c-21.073-21.073-55.188-21.073-76.261 0-21.019 21.019-21.019 55.134 0 76.207l369.179 369.125h-243.55c-29.75 0-53.895 24.145-53.841 53.895-0.054 29.75 24.091 53.895 53.841 53.895h373.598c3.557 0 7.114-0.377 10.617-1.078 1.563-0.323 2.964-0.862 4.473-1.347 1.886-0.539 3.773-0.97 5.605-1.671 1.725-0.755 3.341-1.779 5.012-2.695 1.401-0.755 2.856-1.401 4.258-2.317 5.875-3.934 10.941-9 14.875-14.875 0.916-1.347 1.563-2.856 2.317-4.258 0.916-1.671 1.94-3.288 2.641-5.012 0.755-1.832 1.186-3.719 1.725-5.605 0.485-1.509 1.024-2.91 1.347-4.473 0.701-3.503 1.078-7.060 1.078-10.617v-373.544c0-14.929-6.036-28.403-15.791-38.157zM292.864 845.851h-179.631v-799.421h799.421v175.158c0 29.75 24.145 53.895 53.895 53.895s53.895-24.145 53.895-53.895v-229.053c0-29.75-24.145-53.895-53.895-53.895h-907.21c-29.804 0-53.895 24.145-53.895 53.895v907.21c0 29.75 24.091 53.895 53.895 53.895h233.526c29.75 0 53.895-24.145 53.895-53.895s-24.145-53.895-53.895-53.895z" />
<glyph unicode="&#xe92b;" glyph-name="phone" horiz-adv-x="981" d="M789.632-61.952c-113.835 0-316.672 41.856-526.293 287.061-217.045 274.389-248.533 506.837-205.952 633.344l6.272 18.56 17.835 8.107c96.981 44.117 229.931 49.024 293.419 38.4l20.736-3.456 10.667-18.133c50.347-85.461 72.405-216.96 52.437-312.661l-2.987-14.421-10.965-9.856c-20.352-18.389-61.568-45.525-95.36-64.768 10.795-26.752 33.451-65.664 79.019-121.088 45.568-55.381 79.36-85.163 103.509-100.907 25.429 29.483 60.032 64.683 82.005 81.109l11.776 8.789 14.72 0.171c98.432 1.237 222.549-45.952 296.619-111.829l15.744-13.995-0.597-21.035c-2.091-73.131-17.109-177.877-76.928-261.461l-11.435-15.957-19.413-2.517c-14.677-1.92-33.152-3.456-54.827-3.456zM137.643 810.667c-23.936-104.789 13.269-297.899 195.456-528.213 202.795-237.227 391.253-259.328 479.616-253.397 32.896 54.699 44.715 120.363 48.256 173.141-55.125 41.557-137.003 71.936-204.16 75.477-23.723-21.205-60.843-61.184-75.264-81.835l-19.456-27.947-32.213 11.051c-50.987 17.451-105.387 62.891-171.179 142.848-65.749 80.043-99.797 142.165-107.093 195.541l-4.608 33.792 31.189 13.653c23.040 10.155 69.419 38.827 94.848 58.027 9.429 66.261-4.395 152.021-34.261 214.059-48.427 3.541-132.949-0.853-201.131-26.197z" />
<glyph unicode="&#xe92c;" glyph-name="publications" d="M1023.952 672.484c0.431 7.056-2.058 13.976-6.919 19.112l-2.725 2.901c-26.285 27.814-124.371 118.531-282.771 118.531-121.235 0-186.607-28.775-219.517-51.689-32.891 22.895-98.282 51.689-219.557 51.689-158.4 0-256.486-90.715-282.791-118.55l-2.705-2.881c-4.862-5.136-7.35-12.055-6.919-19.112l31.402-502.033c0.059-0.745 0.313-1.43 0.431-2.137 0.019-0.353-0.137-0.667-0.118-0.999 0.235-2.685 0.745-5.194 2.156-9.585 1.137-2.999 2.627-5.763 4.9-8.899 1.588-2.137 3.333-3.979 7.154-7.233 1.274-0.961 2.568-1.862 5.352-3.411 0.862-0.49 1.823-0.94 2.784-1.352 8.625-4.136 21.11-13.368 21.875-21.11 1.352-12.82 9.487-24.13 21.209-29.461 4.704-2.156 9.938-3.293 15.112-3.293 7.566 0 15.112 2.431 21.326 6.9l4.41 3.215c20.151 14.603 42.986 31.147 135.662 31.147 130.781 0 206.051 33.322 238.295 52.238 32.245-18.916 107.553-52.238 238.295-52.238 92.676 0 116.512-17.289 135.662-31.186l4.429-3.195c6.135-4.429 13.701-6.881 21.307-6.881 5.175 0 10.389 1.137 15.074 3.274 11.741 5.331 19.896 16.622 21.268 29.598 0.667 6.86 11.585 16.014 21.64 20.895 1.058 0.431 2.097 0.921 3.097 1.489 2.822 1.607 4.175 2.549 6.763 4.606 2.313 2.038 4.077 3.882 6.017 6.488 1.96 2.725 3.489 5.586 4.94 9.644 0.765 2.352 1.255 4.45 1.548 6.586l0.098 0.53c0.137 0.745-0.098 1.411-0.019 2.137 0.118 0.765 0.392 1.47 0.45 2.235l31.382 502.033zM972.322 664.467l-27.972-447.267c-41.614 25.345-105.318 58.118-173.983 71.525-25.286 4.959-51.728 7.488-78.543 7.488-60.823 0-114.786-12.309-154.303-25.011v445.62c19.896 14.76 75.329 45.181 194.016 45.181 129.527 0 212.304-69.154 240.785-97.537zM292.464 762.004c118.765 0 174.199-30.46 194.016-45.162v-445.64c-39.536 12.702-93.499 25.011-154.303 25.011-26.815 0-53.257-2.528-78.543-7.488-68.644-13.407-132.35-46.181-173.964-71.506l-27.991 447.248c28.5 28.403 111.278 97.537 240.785 97.537zM120.244 142.89c-5.567 10.879-13.779 19.288-21.915 25.835 37.616 23.678 99.321 57.040 165.104 69.918 22.071 4.332 45.201 6.527 68.743 6.527 60.902 0 114.159-13.838 150.52-26.619-28.952-16.348-93.891-43.28-208.991-43.28-92.010 0-129.644-16.759-153.46-32.382zM903.736 142.89c-23.777 15.602-61.412 32.382-153.441 32.382-115.061 0-180.020 26.933-208.991 43.28 36.321 12.761 89.598 26.619 150.52 26.619 23.541 0 46.671-2.195 68.743-6.527 65.782-12.878 127.488-46.22 165.104-69.918-8.154-6.547-16.367-14.975-21.934-25.835z" />
<glyph unicode="&#xe92d;" glyph-name="case" d="M892.724 811.176h-155.492c-7.147 119.585-115.729 119.953-152.324 119.953h-145.791c-36.595 0-145.201-0.368-152.349-119.953h-155.492c-72.38 0-131.276-58.921-131.276-131.374v-583.605c0-72.428 58.896-131.325 131.276-131.325h761.448c72.38 0 131.276 58.896 131.276 131.325v583.605c0 72.453-58.896 131.374-131.276 131.374zM439.117 867.174h145.791c68.548 0 85.814-18.224 88.54-55.998h-322.872c2.677 37.774 19.968 55.998 88.54 55.998zM63.956 679.802c0 37.16 30.184 67.418 67.32 67.418h761.448c37.136 0 67.32-30.259 67.32-67.418v-247.913c0-23.431-19.059-42.514-42.489-42.514h-82.719v6.189c0 41.311-33.598 74.91-74.885 74.91h-76.309c-41.311 0-74.934-33.598-74.934-74.91v-6.189h-193.414v6.189c0 41.311-33.598 74.91-74.91 74.91h-76.334c-41.311 0-74.885-33.598-74.885-74.91v-6.189h-82.719c-23.431 0-42.489 19.083-42.489 42.514v247.913zM770.879 395.564v-76.359c0-6.042-4.912-10.954-10.929-10.954h-76.309c-6.042 0-10.979 4.912-10.979 10.954v76.359c0 6.066 4.937 10.954 10.979 10.954h76.309c6.017 0 10.929-4.888 10.929-10.954zM351.338 395.564v-76.359c0-6.042-4.912-10.954-10.954-10.954h-76.334c-6.042 0-10.929 4.912-10.929 10.954v76.359c0 6.066 4.888 10.954 10.929 10.954h76.334c6.042 0 10.954-4.888 10.954-10.954zM892.724 28.827h-761.448c-37.136 0-67.32 30.234-67.32 67.37v238.236c13.041-5.723 27.361-9.014 42.489-9.014h82.719v-6.214c0-41.311 33.574-74.91 74.885-74.91h76.334c41.311 0 74.91 33.598 74.91 74.91v6.214h193.414v-6.214c0-41.311 33.623-74.91 74.934-74.91h76.309c41.286 0 74.885 33.598 74.885 74.91v6.214h82.719c15.105 0 29.448 3.291 42.489 8.964v-238.188c0-37.136-30.184-67.37-67.32-67.37z" />
<glyph unicode="&#xe92e;" glyph-name="tie" d="M1024 435.405c0 58.368-18.513 114.595-52.101 158.27-0.573 0.726-1.394 1.089-2.025 1.739-1.166 1.223-2.35 2.33-3.745 3.287-1.433 0.974-2.865 1.72-4.413 2.388-1.281 0.554-2.579 0.993-3.955 1.337-1.853 0.401-3.649 0.573-5.521 0.573-0.84 0-1.624 0.344-2.503 0.267l-314.534-30.874c-8.597 22.602-30.339 38.746-55.903 38.746h-128.886c-25.010 0-46.426-15.399-55.426-37.16l-320.018 31.429c-0.859 0.077-1.643-0.267-2.484-0.267-1.929-0.019-3.764-0.191-5.655-0.631-1.223-0.324-2.33-0.707-3.496-1.185-1.758-0.707-3.381-1.528-4.948-2.656-1.204-0.84-2.217-1.796-3.248-2.846-0.746-0.726-1.662-1.166-2.312-2.006-34.065-44.306-52.827-101.279-52.827-160.41 0-59.685 18.781-116.697 52.922-160.506 0.363-0.478 0.936-0.65 1.337-1.089 1.72-1.891 3.668-3.42 5.885-4.738 0.84-0.478 1.567-1.108 2.445-1.49 3.095-1.375 6.401-2.274 9.935-2.274h0.038c0.802 0 1.605 0.057 2.407 0.134l315.451 30.97v-147.877c0-9.667 5.598-18.456 14.348-22.544 8.731-4.050 19.106-2.713 26.5 3.477l83.606 70.022 83.549-70.022c4.566-3.802 10.24-5.808 15.991-5.808 3.554 0 7.164 0.783 10.508 2.33 8.769 4.089 14.367 12.877 14.367 22.544v149.52l310.446-30.512c0.802-0.057 1.605-0.115 2.388-0.115h0.019c0.019 0 0.019 0 0.057 0 3.534 0 6.84 0.898 9.935 2.255 0.859 0.382 1.567 0.993 2.426 1.509 2.197 1.281 4.165 2.846 5.904 4.738 0.382 0.458 0.955 0.612 1.337 1.089 33.664 43.236 52.197 99.502 52.197 158.385zM939.592 318.537l-300.301 29.499v174.777l300.225 29.461c22.124-33.377 34.734-74.091 34.734-116.868 0-43.159-12.61-83.873-34.658-116.868zM85.134 316.435c-22.544 33.569-35.383 75.028-35.383 118.97 0 43.446 12.342 85.153 34.811 119.085l305.861-30.053v-178.064l-305.287-29.938zM440.173 551.128c0 5.636 4.585 10.24 10.24 10.24h128.886c5.636 0 10.24-4.604 10.24-10.24v-231.444c0-5.636-4.604-10.221-10.24-10.221h-128.886c-5.655 0-10.24 4.585-10.24 10.221v231.444zM530.848 250.999c-9.247 7.738-22.717 7.738-31.944 0l-58.73-49.178v58.922c3.344-0.573 6.725-1.032 10.24-1.032h128.886c3.496 0 6.897 0.458 10.24 1.032v-58.903l-58.692 49.159z" />
<glyph unicode="&#xe92f;" glyph-name="flash" d="M176.502-55.856c7.661-5.458 16.595-8.144 25.446-8.144 10.961 0 21.834 4.049 30.245 12.019l635.676 600.55c13.119 12.415 17.344 31.518 10.697 48.293-6.693 16.727-22.892 27.733-40.897 27.733h-240.14l182.78 266.467c9.244 13.47 10.302 30.949 2.641 45.431-7.571 14.441-22.583 23.507-38.916 23.507h-358.825c-18.312 0-34.734-11.315-41.161-28.482l-198.892-526.46c-5.107-13.56-3.213-28.701 4.975-40.588 8.234-11.887 21.789-18.972 36.23-18.972h130.923l-155.485-347.465c-8.584-19.194-2.422-41.733 14.705-53.883zM250.061 433.534l165.567 438.415h244.807l-182.78-266.422c-9.244-13.515-10.257-30.991-2.641-45.431 7.616-14.482 22.628-23.507 38.961-23.507h212.979l-394.483-372.734 92.931 207.653c6.075 13.647 4.844 29.405-3.258 41.955-8.102 12.502-22.011 20.075-36.934 20.075h-135.148z" />
<glyph unicode="&#xe930;" glyph-name="chat" d="M987.68 933.328h-951.362c-20.054 0-36.319-16.238-36.319-36.319v-651.261c0-20.054 16.265-36.292 36.319-36.292h155.328l221.912-235.361c6.869-7.317 16.422-11.422 26.423-11.422s19.58 4.106 26.423 11.422l221.912 235.361h299.365c20.054 0 36.319 16.238 36.319 36.292v651.261c0 20.081-16.265 36.319-36.319 36.319zM951.361 282.094h-278.705c-0.184 0-0.316-0.132-0.5-0.132-3.131-0.027-6.106-0.974-9.159-1.842-1.552-0.421-3.263-0.421-4.737-1.053-1.343-0.606-2.421-1.737-3.684-2.473-2.816-1.684-5.658-3.316-7.948-5.658-0.105-0.079-0.263-0.132-0.395-0.263l-206.253-218.754-206.253 218.754c-0.132 0.132-0.29 0.184-0.421 0.263-2.237 2.342-5.080 3.948-7.869 5.606-1.316 0.737-2.395 1.921-3.764 2.527-1.447 0.631-3.158 0.631-4.685 1.053-3.053 0.869-6.053 1.816-9.185 1.842-0.184 0-0.316 0.132-0.5 0.132h-134.668v578.597h878.724v-578.597z" />
<glyph unicode="&#xe931;" glyph-name="publications-open" d="M36.95 26.937h950.099c20.403 0 36.952 16.523 36.952 36.952v675.992c0 20.403-16.549 36.952-36.952 36.952h-84.331v54.029c0 0.819-0.211 1.557-0.237 2.376-0.079 1.188-0.185 2.323-0.369 3.484-0.211 1.267-0.475 2.507-0.819 3.748-0.291 1.083-0.633 2.191-1.029 3.247-0.423 1.188-0.924 2.323-1.504 3.431-0.501 1.029-1.003 2.006-1.584 2.956-0.66 1.056-1.372 2.059-2.112 3.035-0.687 0.897-1.399 1.795-2.191 2.639-0.792 0.897-1.663 1.689-2.56 2.481-0.871 0.819-1.768 1.557-2.719 2.27-0.924 0.687-1.927 1.32-2.956 1.927-1.003 0.607-2.059 1.188-3.141 1.716s-2.191 0.951-3.352 1.347c-1.108 0.423-2.244 0.792-3.431 1.083-1.215 0.291-2.455 0.501-3.722 0.687-0.712 0.105-1.399 0.317-2.164 0.396-3.959 0.343-98.161 7.866-192.733-16.444-67.306-17.341-132.633-51.021-164.095-68.653-31.462 17.632-96.815 51.311-164.095 68.653-94.545 24.362-188.801 16.787-192.733 16.444-0.765-0.079-1.452-0.291-2.164-0.396-1.267-0.185-2.507-0.396-3.722-0.687-1.188-0.291-2.323-0.66-3.431-1.083-1.161-0.396-2.27-0.819-3.352-1.347s-2.138-1.108-3.141-1.716c-1.029-0.607-2.032-1.24-2.956-1.927-0.951-0.712-1.848-1.452-2.719-2.27-0.897-0.792-1.768-1.584-2.56-2.481-0.792-0.844-1.504-1.742-2.191-2.639-0.739-0.976-1.452-1.98-2.112-3.035-0.555-0.951-1.083-1.927-1.584-2.956-0.58-1.108-1.083-2.27-1.504-3.458-0.396-1.029-0.739-2.138-1.029-3.22-0.317-1.24-0.607-2.481-0.819-3.748-0.185-1.161-0.291-2.296-0.369-3.484-0.027-0.819-0.237-1.557-0.237-2.376v-54.029h-84.331c-20.403 0-36.952-16.549-36.952-36.952v-675.992c0-20.429 16.549-36.952 36.952-36.952zM950.096 702.927v-602.113h-261.518c2.006 0.555 3.959 1.135 5.939 1.636 82.114 21.116 167.342 14.464 168.16 14.358 20.456-1.716 38.193 13.461 39.883 33.785 0.079 0.819-0.053 1.584-0.053 2.428 0.027 0.607 0.211 1.215 0.211 1.821v548.083h47.378zM694.518 779.683c50.334 12.933 101.751 15.414 134.296 15.388v-603.221c-37.032 0.027-94.757-2.903-152.719-17.843-46.982-12.089-92.988-31.304-127.142-47.458v592.003c28.374 15.784 87.234 46.111 145.566 61.13zM475.048 718.553v-592.003c-34.154 16.153-80.16 35.369-127.142 47.458-57.963 14.94-115.688 17.869-152.693 17.843v603.221c32.518 0.027 83.935-2.455 134.296-15.388 58.332-15.018 117.165-45.346 145.539-61.13zM73.903 702.927h47.378v-548.083c0-0.607 0.185-1.215 0.211-1.821 0-0.844-0.132-1.61-0.053-2.428 1.689-20.324 19.637-35.553 39.883-33.785 0.844 0.105 86.099 6.757 168.186-14.358 1.953-0.501 3.932-1.083 5.912-1.636h-261.518v602.113z" />
<glyph unicode="&#xe932;" glyph-name="event_busy" d="M810 128.667v468h-596v-468h596zM810 810.667c46 0 86-40 86-86v-596c0-46-40-86-86-86h-596c-48 0-86 40-86 86v596c0 46 38 86 86 86h42v86h86v-86h340v86h86v-86h42zM398 212.667l-46 46 104 104-104 104 46 46 104-104 104 104 44-46-104-104 104-104-44-46-104 104z" />
<glyph unicode="&#xe933;" glyph-name="event_available" d="M810 128.667v468h-596v-468h596zM810 810.667c46 0 86-40 86-86v-596c0-46-40-86-86-86h-596c-48 0-86 40-86 86v596c0 46 38 86 86 86h42v86h86v-86h340v86h86v-86h42zM706 466.667l-254-254-136 136 46 46 90-90 208 208z" />
<glyph unicode="&#xe934;" glyph-name="share, social" d="M864 256c-45.16 0-85.92-18.738-115.012-48.83l-431.004 215.502c1.314 8.252 2.016 16.706 2.016 25.328s-0.702 17.076-2.016 25.326l431.004 215.502c29.092-30.090 69.852-48.828 115.012-48.828 88.366 0 160 71.634 160 160s-71.634 160-160 160-160-71.634-160-160c0-8.622 0.704-17.076 2.016-25.326l-431.004-215.504c-29.092 30.090-69.852 48.83-115.012 48.83-88.366 0-160-71.636-160-160 0-88.368 71.634-160 160-160 45.16 0 85.92 18.738 115.012 48.828l431.004-215.502c-1.312-8.25-2.016-16.704-2.016-25.326 0-88.368 71.634-160 160-160s160 71.632 160 160c0 88.364-71.634 160-160 160z" />
<glyph unicode="&#xe935;" glyph-name="share1, out, external, outside" d="M256 320c0 0 58.824 192 384 192v-192l384 256-384 256v-192c-256 0-384-159.672-384-320zM704 192h-576v384h125.876c10.094 11.918 20.912 23.334 32.488 34.18 43.964 41.19 96.562 72.652 156.114 93.82h-442.478v-640h832v268.624l-128-85.334v-55.29z" />
<glyph unicode="&#xe936;" glyph-name="cross, cancel, close, quit, remove" d="M1014.662 137.34c-0.004 0.004-0.008 0.008-0.012 0.010l-310.644 310.65 310.644 310.65c0.004 0.004 0.008 0.006 0.012 0.010 3.344 3.346 5.762 7.254 7.312 11.416 4.246 11.376 1.824 24.682-7.324 33.83l-146.746 146.746c-9.148 9.146-22.45 11.566-33.828 7.32-4.16-1.55-8.070-3.968-11.418-7.31 0-0.004-0.004-0.006-0.008-0.010l-310.648-310.652-310.648 310.65c-0.004 0.004-0.006 0.006-0.010 0.010-3.346 3.342-7.254 5.76-11.414 7.31-11.38 4.248-24.682 1.826-33.83-7.32l-146.748-146.748c-9.148-9.148-11.568-22.452-7.322-33.828 1.552-4.16 3.97-8.072 7.312-11.416 0.004-0.002 0.006-0.006 0.010-0.010l310.65-310.648-310.65-310.652c-0.002-0.004-0.006-0.006-0.008-0.010-3.342-3.346-5.76-7.254-7.314-11.414-4.248-11.376-1.826-24.682 7.322-33.83l146.748-146.746c9.15-9.148 22.452-11.568 33.83-7.322 4.16 1.552 8.070 3.97 11.416 7.312 0.002 0.004 0.006 0.006 0.010 0.010l310.648 310.65 310.648-310.65c0.004-0.002 0.008-0.006 0.012-0.008 3.348-3.344 7.254-5.762 11.414-7.314 11.378-4.246 24.684-1.826 33.828 7.322l146.746 146.748c9.148 9.148 11.57 22.454 7.324 33.83-1.552 4.16-3.97 8.068-7.314 11.414z" />
<glyph unicode="&#xe937;" glyph-name="blocked, forbidden, denied, banned" d="M874.040 810.040c-96.706 96.702-225.28 149.96-362.040 149.96s-265.334-53.258-362.040-149.96c-96.702-96.706-149.96-225.28-149.96-362.040s53.258-265.334 149.96-362.040c96.706-96.702 225.28-149.96 362.040-149.96s265.334 53.258 362.040 149.96c96.702 96.706 149.96 225.28 149.96 362.040s-53.258 265.334-149.96 362.040zM896 448c0-82.814-26.354-159.588-71.112-222.38l-535.266 535.268c62.792 44.758 139.564 71.112 222.378 71.112 211.738 0 384-172.262 384-384zM128 448c0 82.814 26.354 159.586 71.112 222.378l535.27-535.268c-62.794-44.756-139.568-71.11-222.382-71.11-211.738 0-384 172.262-384 384z" />
<glyph unicode="&#xe938;" glyph-name="google" d="M522.2 521.2v-175.6h290.4c-11.8-75.4-87.8-220.8-290.4-220.8-174.8 0-317.4 144.8-317.4 323.2s142.6 323.2 317.4 323.2c99.4 0 166-42.4 204-79l139 133.8c-89.2 83.6-204.8 134-343 134-283 0-512-229-512-512s229-512 512-512c295.4 0 491.6 207.8 491.6 500.2 0 33.6-3.6 59.2-8 84.8l-483.6 0.2z" />
<glyph unicode="&#xe939;" glyph-name="behance" d="M297 754.8c30.2 0 57.4-2.6 82.2-8 24.8-5.2 45.8-14 63.6-26 17.6-12 31.2-28 41.2-48 9.6-19.8 14.4-44.6 14.4-74 0-31.8-7.2-58.2-21.6-79.4-14.6-21.2-35.8-38.4-64.2-52 38.8-11.2 67.4-30.8 86.6-58.6 19.2-28 28.4-61.6 28.4-101.2 0-32-6.2-59.4-18.4-82.6-12.4-23.4-29.2-42.4-49.8-57-20.8-14.8-44.8-25.6-71.6-32.6-26.6-7-54-10.6-82.4-10.6h-305.4v630h297zM279 500.4c24.6 0 45 5.8 61 17.6 16 11.6 23.6 30.8 23.6 57.2 0 14.6-2.6 26.8-7.8 36.2-5.4 9.4-12.4 16.8-21.4 22-8.8 5.4-18.8 9-30.6 11-11.4 2.2-23.4 3.2-35.6 3.2h-129.6v-147.2h140.4zM286.6 232.2c13.6 0 26.6 1.2 38.8 4 12.4 2.8 23.4 7 32.6 13.4 9.2 6.2 17 14.4 22.6 25.2 5.6 10.6 8.2 24.2 8.2 40.8 0 32.4-9.2 55.6-27.4 69.6-18.2 13.8-42.4 20.6-72.4 20.6h-150.4v-173.4h148zM725.2 234.4c18.8-18.4 45.8-27.6 81-27.6 25.2 0 47.2 6.4 65.4 19.2s29.2 26.4 33.4 40.4h110.4c-17.8-55-44.6-94-81.4-117.6-36.2-23.6-80.6-35.6-132-35.6-36 0-68.2 5.8-97.2 17.2-29 11.6-53.2 27.8-73.6 49-19.8 21.2-35.4 46.4-46.4 76-10.8 29.4-16.4 62-16.4 97.2 0 34.2 5.6 66 16.8 95.4 11.4 29.6 27 55 47.8 76.4s45.2 38.4 74 50.8c28.6 12.4 60.2 18.6 95.2 18.6 38.6 0 72.4-7.4 101.4-22.6 28.8-15 52.6-35.2 71.2-60.4s31.8-54.2 40-86.6c8.2-32.4 11-66.2 8.8-101.6h-329.4c0-35.8 12-70 31-88.2zM869 474c-14.8 16.4-40.2 25.4-70.8 25.4-20 0-36.6-3.4-49.8-10.2-13-6.8-23.6-15.2-31.8-25.2-8-10-13.6-20.8-16.8-32.2-3.2-11-5.2-21.2-5.8-30h204c-3 32-14 55.6-29 72.2zM668.4 704h255.4v-62.2h-255.4v62.2z" />
<glyph unicode="&#xe93a;" glyph-name="circle-down" d="M1024 448c0 282.77-229.23 512-512 512s-512-229.23-512-512 229.23-512 512-512 512 229.23 512 512zM96 448c0 229.75 186.25 416 416 416s416-186.25 416-416-186.25-416-416-416-416 186.25-416 416zM317.256 605.256l-90.512-90.512 285.256-285.254 285.254 285.256-90.508 90.508-194.746-194.744z" />
<glyph unicode="&#xe93b;" glyph-name="circle-left" d="M512-64c282.77 0 512 229.23 512 512s-229.23 512-512 512-512-229.23-512-512 229.23-512 512-512zM512 864c229.75 0 416-186.25 416-416s-186.25-416-416-416-416 186.25-416 416 186.25 416 416 416zM669.256 642.744l-90.512 90.512-285.254-285.256 285.256-285.254 90.508 90.508-194.744 194.746z" />
<glyph unicode="&#xe93c;" glyph-name="circle-right" d="M512 960c-282.77 0-512-229.23-512-512s229.23-512 512-512 512 229.23 512 512-229.23 512-512 512zM512 32c-229.75 0-416 186.25-416 416s186.25 416 416 416 416-186.25 416-416-186.25-416-416-416zM354.744 253.256l90.512-90.512 285.254 285.256-285.256 285.254-90.508-90.508 194.744-194.746z" />
<glyph unicode="&#xe93d;" glyph-name="circle-up" d="M0 448c0-282.77 229.23-512 512-512s512 229.23 512 512-229.23 512-512 512-512-229.23-512-512zM928 448c0-229.75-186.25-416-416-416s-416 186.25-416 416 186.25 416 416 416 416-186.25 416-416zM706.744 290.744l90.512 90.512-285.256 285.254-285.254-285.256 90.508-90.508 194.746 194.744z" />
<glyph unicode="&#xe93e;" glyph-name="spinner" d="M384 832c0 70.692 57.308 128 128 128s128-57.308 128-128c0-70.692-57.308-128-128-128s-128 57.308-128 128zM655.53 719.53c0 70.692 57.308 128 128 128s128-57.308 128-128c0-70.692-57.308-128-128-128s-128 57.308-128 128zM832 448c0 35.346 28.654 64 64 64s64-28.654 64-64c0-35.346-28.654-64-64-64s-64 28.654-64 64zM719.53 176.47c0 35.346 28.654 64 64 64s64-28.654 64-64c0-35.346-28.654-64-64-64s-64 28.654-64 64zM448.002 64c0 0 0 0 0 0 0 35.346 28.654 64 64 64s64-28.654 64-64c0 0 0 0 0 0 0-35.346-28.654-64-64-64s-64 28.654-64 64zM176.472 176.47c0 0 0 0 0 0 0 35.346 28.654 64 64 64s64-28.654 64-64c0 0 0 0 0 0 0-35.346-28.654-64-64-64s-64 28.654-64 64zM144.472 719.53c0 0 0 0 0 0 0 53.019 42.981 96 96 96s96-42.981 96-96c0 0 0 0 0 0 0-53.019-42.981-96-96-96s-96 42.981-96 96zM56 448c0 39.765 32.235 72 72 72s72-32.235 72-72c0-39.765-32.235-72-72-72s-72 32.235-72 72z" />
<glyph unicode="&#xe947;" glyph-name="location" d="M512 960c-176.732 0-320-143.268-320-320 0-320 320-704 320-704s320 384 320 704c0 176.732-143.27 320-320 320zM512 448c-106.040 0-192 85.96-192 192s85.96 192 192 192 192-85.96 192-192-85.96-192-192-192z" />
<glyph unicode="&#xe94e;" glyph-name="clock" d="M658.744 210.744l-210.744 210.746v282.51h128v-229.49l173.256-173.254zM512 960c-282.77 0-512-229.23-512-512s229.23-512 512-512 512 229.23 512 512-229.23 512-512 512zM512 64c-212.078 0-384 171.922-384 384s171.922 384 384 384c212.078 0 384-171.922 384-384s-171.922-384-384-384z" />
<glyph unicode="&#xe9d7;" glyph-name="star-empty" d="M1024 562.95l-353.78 51.408-158.22 320.582-158.216-320.582-353.784-51.408 256-249.538-60.432-352.352 316.432 166.358 316.432-166.358-60.434 352.352 256.002 249.538zM512 206.502l-223.462-117.48 42.676 248.83-180.786 176.222 249.84 36.304 111.732 226.396 111.736-226.396 249.836-36.304-180.788-176.222 42.678-248.83-223.462 117.48z" />
<glyph unicode="&#xe9d9;" glyph-name="star-full" d="M1024 562.95l-353.78 51.408-158.22 320.582-158.216-320.582-353.784-51.408 256-249.538-60.432-352.352 316.432 166.358 316.432-166.358-60.434 352.352 256.002 249.538z" />
<glyph unicode="&#xea1c;" glyph-name="play" d="M192 832l640-384-640-384z" />
<glyph unicode="&#xea9b;" glyph-name="rss" d="M136.294 209.070c-75.196 0-136.292-61.334-136.292-136.076 0-75.154 61.1-135.802 136.292-135.802 75.466 0 136.494 60.648 136.494 135.802-0.002 74.742-61.024 136.076-136.494 136.076zM0.156 612.070v-196.258c127.784 0 247.958-49.972 338.458-140.512 90.384-90.318 140.282-211.036 140.282-339.3h197.122c-0.002 372.82-303.282 676.070-675.862 676.070zM0.388 960v-196.356c455.782 0 826.756-371.334 826.756-827.644h196.856c0 564.47-459.254 1024-1023.612 1024z" />
<glyph unicode="&#xea9d;" glyph-name="youtube" d="M1013.8 652.8c0 0-10 70.6-40.8 101.6-39 40.8-82.6 41-102.6 43.4-143.2 10.4-358.2 10.4-358.2 10.4h-0.4c0 0-215 0-358.2-10.4-20-2.4-63.6-2.6-102.6-43.4-30.8-31-40.6-101.6-40.6-101.6s-10.2-82.8-10.2-165.8v-77.6c0-82.8 10.2-165.8 10.2-165.8s10-70.6 40.6-101.6c39-40.8 90.2-39.4 113-43.8 82-7.8 348.2-10.2 348.2-10.2s215.2 0.4 358.4 10.6c20 2.4 63.6 2.6 102.6 43.4 30.8 31 40.8 101.6 40.8 101.6s10.2 82.8 10.2 165.8v77.6c-0.2 82.8-10.4 165.8-10.4 165.8zM406.2 315.2v287.8l276.6-144.4-276.6-143.4z" />
<glyph unicode="&#xeaa0;" glyph-name="vimeo" d="M1023.6 686c-4.6-99.6-74.2-236.2-208.8-409.4-139.2-180.8-257-271.4-353.4-271.4-59.6 0-110.2 55-151.4 165.2-27.6 101-55 202-82.6 303-30.6 110.2-63.4 165.2-98.6 165.2-7.6 0-34.4-16.2-80.4-48.2l-48.2 62c50.6 44.4 100.4 88.8 149.4 133.2 67.4 58.2 118 88.8 151.8 92 79.6 7.6 128.8-46.8 147.2-163.4 19.8-125.8 33.6-204 41.4-234.6 23-104.4 48.2-156.6 75.8-156.6 21.4 0 53.6 33.8 96.6 101.6 42.8 67.6 65.8 119.2 69 154.6 6.2 58.4-16.8 87.8-69 87.8-24.6 0-49.8-5.6-75.8-16.8 50.4 164.8 146.4 244.8 288.4 240.2 105-2.8 154.6-71 148.6-204.4z" />
<glyph unicode="&#xeaa4;" glyph-name="flickr2" d="M800 544c-70.58 0-128-57.42-128-128s57.42-128 128-128c70.58 0 128 57.42 128 128s-57.42 128-128 128zM800 640v0c123.71 0 224-100.288 224-224 0-123.71-100.29-224-224-224s-224 100.29-224 224c0 123.712 100.29 224 224 224zM0 416c0 123.712 100.288 224 224 224s224-100.288 224-224c0-123.712-100.288-224-224-224s-224 100.288-224 224z" />
<glyph unicode="&#xead1;" glyph-name="pinterest" d="M512 891.6c-245 0-443.6-198.6-443.6-443.6 0-188 117-348.4 282-413-3.8 35-7.4 89 1.6 127.2 8 34.6 52 220.4 52 220.4s-13.2 26.6-13.2 65.8c0 61.6 35.8 107.8 80.2 107.8 37.8 0 56.2-28.4 56.2-62.4 0-38-24.2-95-36.8-147.6-10.6-44.2 22-80.2 65.6-80.2 78.8 0 139.4 83.2 139.4 203.2 0 106.2-76.4 180.4-185.2 180.4-126.2 0-200.2-94.6-200.2-192.6 0-38.2 14.6-79 33-101.2 3.6-4.4 4.2-8.2 3-12.8-3.4-14-10.8-44.2-12.4-50.4-2-8.2-6.4-9.8-14.8-6-55.4 25.8-90 106.8-90 171.8 0 140 101.6 268.4 293 268.4 153.8 0 273.4-109.6 273.4-256.2 0-152.8-96.4-276-230.2-276-45 0-87.2 23.4-101.6 51 0 0-22.2-84.6-27.6-105.4-10-38.6-37-86.8-55.2-116.2 41.6-12.8 85.6-19.8 131.4-19.8 245 0 443.6 198.6 443.6 443.6 0 245.2-198.6 443.8-443.6 443.8z" />
</font>
</defs>
</svg>
